<svg width="550" height="550" viewBox="0 0 550 550" fill="none" xmlns="http://www.w3.org/2000/svg">
<path d="M550 276.684C550 123.853 426.869 -0.0344238 275 -0.0344238C123.063 -4.88303e-05 -0.0683594 123.853 -0.0683594 276.719C-0.0683594 414.803 100.513 529.272 231.963 550.034V356.675H162.182V276.719H232.032V215.703C232.032 146.369 273.11 108.075 335.913 108.075C366.025 108.075 397.479 113.472 397.479 113.472V181.534H362.794C328.66 181.534 318.004 202.881 318.004 224.778V276.684H394.247L382.079 356.641H317.969V550C449.419 529.237 550 414.769 550 276.684Z" fill="#FEB631"/>
</svg>
