<svg width="41" height="41" viewBox="0 0 41 41" fill="none" xmlns="http://www.w3.org/2000/svg">
<path fill-rule="evenodd" clip-rule="evenodd" d="M20.4914 31.6819C26.6669 31.6819 31.6732 26.6756 31.6732 20.5001C31.6732 14.3245 26.6669 9.31824 20.4914 9.31824C14.3158 9.31824 9.30957 14.3245 9.30957 20.5001C9.30957 26.6756 14.3158 31.6819 20.4914 31.6819ZM20.4914 27.9546C24.6083 27.9546 27.9459 24.617 27.9459 20.5001C27.9459 16.383 24.6083 13.0455 20.4914 13.0455C16.3744 13.0455 13.0368 16.383 13.0368 20.5001C13.0368 24.617 16.3744 27.9546 20.4914 27.9546Z" fill="white"/>
<path d="M31.68 7.45459C30.6508 7.45459 29.8164 8.28898 29.8164 9.31823C29.8164 10.3475 30.6508 11.1819 31.68 11.1819C32.7093 11.1819 33.5437 10.3475 33.5437 9.31823C33.5437 8.28898 32.7093 7.45459 31.68 7.45459Z" fill="white"/>
<path fill-rule="evenodd" clip-rule="evenodd" d="M1.21874 6.10538C0 8.49731 0 11.6285 0 17.8909V23.1091C0 29.3715 0 32.5027 1.21874 34.8945C2.29078 36.9986 4.00138 38.7092 6.10538 39.7812C8.49731 41 11.6285 41 17.8909 41H23.1091C29.3715 41 32.5027 41 34.8945 39.7812C36.9986 38.7092 38.7092 36.9986 39.7812 34.8945C41 32.5027 41 29.3715 41 23.1091V17.8909C41 11.6285 41 8.49731 39.7812 6.10538C38.7092 4.00138 36.9986 2.29078 34.8945 1.21874C32.5027 0 29.3715 0 23.1091 0H17.8909C11.6285 0 8.49731 0 6.10538 1.21874C4.00138 2.29078 2.29078 4.00138 1.21874 6.10538ZM23.1091 3.72727H17.8909C14.6982 3.72727 12.5278 3.73018 10.8502 3.86723C9.21613 4.00074 8.38047 4.24274 7.79753 4.53976C6.39486 5.25447 5.25447 6.39486 4.53976 7.79753C4.24274 8.38047 4.00074 9.21613 3.86723 10.8502C3.73018 12.5278 3.72727 14.6982 3.72727 17.8909V23.1091C3.72727 26.3019 3.73018 28.4721 3.86723 30.1497C4.00074 31.7839 4.24274 32.6196 4.53976 33.2025C5.25447 34.6051 6.39486 35.7455 7.79753 36.4602C8.38047 36.7572 9.21613 36.9993 10.8502 37.1328C12.5278 37.2697 14.6982 37.2727 17.8909 37.2727H23.1091C26.3019 37.2727 28.4721 37.2697 30.1497 37.1328C31.7839 36.9993 32.6196 36.7572 33.2025 36.4602C34.6051 35.7455 35.7455 34.6051 36.4602 33.2025C36.7572 32.6196 36.9993 31.7839 37.1328 30.1497C37.2697 28.4721 37.2727 26.3019 37.2727 23.1091V17.8909C37.2727 14.6982 37.2697 12.5278 37.1328 10.8502C36.9993 9.21613 36.7572 8.38047 36.4602 7.79753C35.7455 6.39486 34.6051 5.25447 33.2025 4.53976C32.6196 4.24274 31.7839 4.00074 30.1497 3.86723C28.4721 3.73018 26.3019 3.72727 23.1091 3.72727Z" fill="white"/>
</svg>
