<svg width="550" height="550" viewBox="0 0 550 550" fill="none" xmlns="http://www.w3.org/2000/svg">
<g clip-path="url(#clip0_298_5)">
<path d="M275 0C200.372 0 190.988 0.34375 161.666 1.65C132.344 3.025 112.372 7.63125 94.875 14.4375C76.5134 21.3237 59.8861 32.1543 46.1656 46.1656C32.1543 59.8861 21.3237 76.5134 14.4375 94.875C7.63125 112.337 2.99063 132.344 1.65 161.562C0.34375 190.953 0 200.303 0 275.034C0 349.697 0.34375 359.047 1.65 388.369C3.025 417.656 7.63125 437.628 14.4375 455.125C21.4844 473.206 30.8688 488.537 46.1656 503.834C61.4281 519.131 76.7594 528.55 94.8406 535.562C112.372 542.369 132.309 547.009 161.597 548.35C190.953 549.656 200.303 550 275 550C349.697 550 359.013 549.656 388.369 548.35C417.622 546.975 437.663 542.369 455.159 535.562C473.509 528.672 490.124 517.841 503.834 503.834C519.131 488.537 528.516 473.206 535.562 455.125C542.334 437.628 546.975 417.656 548.35 388.369C549.656 359.047 550 349.697 550 275C550 200.303 549.656 190.953 548.35 161.597C546.975 132.344 542.334 112.337 535.562 94.875C528.676 76.5134 517.846 59.8861 503.834 46.1656C490.114 32.1543 473.487 21.3237 455.125 14.4375C437.594 7.63125 417.588 2.99063 388.334 1.65C358.978 0.34375 349.662 0 274.931 0H275ZM250.353 49.5688H275.034C348.459 49.5688 357.156 49.8094 386.134 51.15C412.947 52.3531 427.522 56.8563 437.216 60.6031C450.037 65.5875 459.216 71.5687 468.841 81.1937C478.466 90.8187 484.413 99.9625 489.397 112.819C493.178 122.478 497.647 137.053 498.85 163.866C500.191 192.844 500.466 201.541 500.466 274.931C500.466 348.322 500.191 357.053 498.85 386.031C497.647 412.844 493.144 427.384 489.397 437.078C484.957 449.003 477.924 459.793 468.806 468.669C459.181 478.294 450.038 484.241 437.181 489.225C427.556 493.006 412.981 497.475 386.134 498.713C357.156 500.019 348.459 500.328 275.034 500.328C201.609 500.328 192.878 500.019 163.9 498.713C137.088 497.475 122.547 493.006 112.853 489.225C100.919 484.799 90.1174 477.778 81.2281 468.669C72.0938 459.786 65.0488 448.984 60.6031 437.044C56.8563 427.384 52.3531 412.809 51.15 385.997C49.8438 357.019 49.5688 348.322 49.5688 274.862C49.5688 201.403 49.8438 192.775 51.15 163.797C52.3875 136.984 56.8563 122.409 60.6375 112.716C65.6219 99.8938 71.6031 90.7156 81.2281 81.0906C90.8531 71.4656 99.9969 65.5188 112.853 60.5344C122.547 56.7531 137.088 52.2844 163.9 51.0469C189.269 49.8781 199.1 49.5344 250.353 49.5V49.5688ZM421.816 95.2188C417.482 95.2187 413.191 96.0723 409.187 97.7307C405.183 99.3891 401.545 101.82 398.481 104.884C395.417 107.949 392.986 111.586 391.328 115.59C389.669 119.594 388.816 123.885 388.816 128.219C388.816 132.552 389.669 136.844 391.328 140.847C392.986 144.851 395.417 148.489 398.481 151.553C401.545 154.618 405.183 157.048 409.187 158.707C413.191 160.365 417.482 161.219 421.816 161.219C430.568 161.219 438.961 157.742 445.15 151.553C451.339 145.365 454.816 136.971 454.816 128.219C454.816 119.467 451.339 111.073 445.15 104.884C438.961 98.6955 430.568 95.2188 421.816 95.2188ZM275.034 133.788C256.302 133.495 237.699 136.932 220.309 143.899C202.918 150.865 187.086 161.221 173.736 174.365C160.386 187.508 149.784 203.176 142.548 220.456C135.311 237.736 131.584 256.283 131.584 275.017C131.584 293.751 135.311 312.298 142.548 329.579C149.784 346.859 160.386 362.526 173.736 375.67C187.086 388.813 202.918 399.169 220.309 406.136C237.699 413.102 256.302 416.539 275.034 416.247C312.109 415.668 347.47 400.535 373.484 374.112C399.497 347.689 414.078 312.097 414.078 275.017C414.078 237.938 399.497 202.345 373.484 175.923C347.47 149.5 312.109 134.366 275.034 133.788ZM275.034 183.322C287.074 183.322 298.995 185.693 310.118 190.3C321.241 194.908 331.348 201.661 339.861 210.174C348.374 218.687 355.127 228.793 359.734 239.916C364.341 251.039 366.712 262.961 366.712 275C366.712 287.039 364.341 298.961 359.734 310.084C355.127 321.207 348.374 331.313 339.861 339.826C331.348 348.339 321.241 355.092 310.118 359.7C298.995 364.307 287.074 366.678 275.034 366.678C250.72 366.678 227.401 357.019 210.208 339.826C193.015 322.633 183.356 299.315 183.356 275C183.356 250.685 193.015 227.367 210.208 210.174C227.401 192.981 250.72 183.322 275.034 183.322Z" fill="#FEB631"/>
</g>
<defs>
<clipPath id="clip0_298_5">
<rect width="550" height="550" fill="white"/>
</clipPath>
</defs>
</svg>
