<svg width="550" height="550" viewBox="0 0 550 550" fill="none" xmlns="http://www.w3.org/2000/svg">
<path d="M325.891 451.922C308.748 476.089 287.98 500.047 263.721 523.797C268.958 522.962 274.194 521.97 279.297 520.822C293.306 517.533 306.734 512.731 319.759 506.154C326.383 502.814 332.829 499.212 339.006 495.297L339.498 496.968C341.87 504.85 345.003 511.374 348.718 516.594C341.915 520.874 334.932 524.841 327.771 528.39C313.359 535.646 298.499 540.918 283.191 544.571C267.928 548.225 252.083 550 235.791 550C219.499 550 203.833 548.173 188.391 544.571C173.263 541.126 158.671 535.855 144.393 528.756C144.259 528.756 143.99 528.599 143.811 528.443C129.667 521.344 116.239 512.784 103.617 503.023C91.04 493.314 79.4474 482.092 68.7948 469.721C58.0526 457.35 48.5636 443.831 40.2384 429.112C31.7342 414.444 24.528 398.733 18.4408 382.239C12.2192 365.431 7.69857 348.102 4.56543 330.251C1.56657 312.451 0 293.974 0 275.026C0 256.079 1.56657 237.757 4.65495 219.749C7.60905 202.107 12.1745 185.091 18.217 168.44C18.217 168.283 18.3512 167.97 18.4855 167.761C24.5728 151.11 31.9132 135.608 40.2832 120.888C48.6084 106.221 58.2316 92.7019 68.8395 80.279C79.4474 67.7517 91.04 56.686 103.662 46.9773C116.239 37.0599 129.712 28.6562 143.856 21.5574C158.268 14.302 173.128 9.03008 188.436 5.37629C203.699 1.8269 219.543 0 235.836 0C252.128 0 267.794 1.8269 283.236 5.42849C298.364 8.87349 312.956 14.1454 327.234 21.2442C327.368 21.2442 327.637 21.4008 327.816 21.5574C341.96 28.6562 355.387 37.2165 368.009 46.9773C380.587 56.686 392.179 67.9083 402.832 80.279C413.574 92.6497 423.063 106.169 431.388 120.888C439.893 135.556 447.099 151.267 453.186 167.761C459.408 184.569 463.928 201.898 467.061 219.749C467.24 220.793 467.419 221.837 467.598 222.881L444.727 213.486C442.086 201.115 438.639 189.11 434.253 177.365C430.717 167.657 426.733 158.418 422.392 149.492H353.239C358.655 160.297 363.399 171.05 367.472 181.802L339.722 170.423C336.454 163.481 332.918 156.487 329.069 149.492H288.652C283.907 147.77 278.805 147.352 273.836 148.24C272.27 148.553 270.703 148.97 269.137 149.492H246.13V262.969H268.823L276.074 287.031H246.13V400.508H310.36L317.611 424.571H246.13V509.443C275.269 481.57 299.17 453.383 317.79 425.197L325.891 451.922ZM502.645 484.388C499.198 487.99 493.872 488.042 490.739 484.388L428.166 411.834L398.49 480.682C389.539 501.457 373.604 510.852 366.085 486.006L276.074 187.909C274.239 181.802 276.432 179.349 281.624 181.489L537.199 286.405C558.504 295.174 550.403 313.756 532.633 324.196L473.596 358.802L535.811 431.722C538.9 435.375 538.9 441.639 535.811 445.606L502.645 484.388ZM208.085 523.797C174.695 491.122 147.974 458.133 128.145 424.675H62.9313C69.1528 434.592 76.0905 443.831 83.5653 452.548C93.3228 463.927 103.796 474.001 115.255 482.927C126.579 491.852 138.888 499.578 152.181 506.207C152.36 506.311 152.494 506.311 152.629 506.468C165.519 512.731 178.813 517.69 192.643 520.822C197.746 521.97 202.983 522.962 208.219 523.797H208.085ZM49.3693 400.56H115.031C96.7692 363.291 86.8774 325.344 85.7585 287.084H20.9473C21.5291 300.289 22.7824 312.973 24.9308 325.501C27.7507 341.838 31.8685 357.497 37.5081 372.687C41.0441 382.395 44.9829 391.634 49.3693 400.56ZM20.9473 262.969H86.1613C88.5783 225.335 99.3205 187.596 118.433 149.492H49.3693C44.9829 158.418 41.0441 167.657 37.5081 177.365C37.3739 177.522 37.3739 177.679 37.2396 177.835C31.8685 192.868 27.6164 208.37 24.9308 224.499C22.7824 237.079 21.3501 249.763 20.9473 262.969ZM62.797 125.377H131.681C151.375 92.3887 177.246 59.2436 209.517 25.8897C203.699 26.7249 198.059 27.7166 192.554 29.0215C178.544 32.31 165.116 37.1121 152.091 43.6889C138.932 50.2657 126.624 58.0431 115.165 66.9688C103.707 75.8945 93.2332 85.9163 83.4757 97.3474C76.001 106.117 69.0633 115.303 62.8418 125.221V125.377H62.797ZM262.154 25.8897C294.56 59.1914 320.43 92.3887 339.945 125.377H408.83C402.608 115.46 395.671 106.221 388.196 97.504C378.438 86.1251 367.965 76.0511 356.506 67.1254C345.182 58.1997 332.874 50.4745 319.58 43.8455C319.446 43.6889 319.312 43.6889 319.177 43.5323C306.287 37.2687 292.993 32.31 279.163 29.1781C273.523 27.8732 267.839 26.8815 262.199 26.0463V25.8897H262.154ZM246.13 41.5488V125.377H314.612C296.663 97.6606 273.881 69.7874 246.13 41.5488ZM225.496 509.443V424.623H153.479C172.009 453.018 196.09 481.413 225.496 509.443ZM225.496 400.56V287.031H106.392C107.646 325.135 118.701 362.926 139.067 400.508H225.496V400.56ZM225.496 262.969V149.492H142.603C121.387 187.909 109.481 225.7 106.795 262.969H225.496ZM225.496 125.377V41.5488C197.791 69.7352 175.008 97.6606 157.015 125.377H225.496Z" fill="#FEB631"/>
</svg>
