<svg width="550" height="550" viewBox="0 0 550 550" fill="none" xmlns="http://www.w3.org/2000/svg">
<g clip-path="url(#clip0_298_7)">
<path d="M0 39.3938C0 17.6344 18.0812 0 40.3906 0H509.609C531.919 0 550 17.6344 550 39.3938V510.606C550 532.366 531.919 550 509.609 550H40.3906C18.0812 550 0 532.366 0 510.606V39.3938ZM169.916 460.419V212.059H87.3813V460.419H169.916ZM128.666 178.131C157.438 178.131 175.347 159.088 175.347 135.231C174.831 110.859 157.472 92.3313 129.216 92.3313C100.959 92.3313 82.5 110.894 82.5 135.231C82.5 159.088 100.409 178.131 128.116 178.131H128.666ZM297.378 460.419V321.716C297.378 314.291 297.928 306.866 300.128 301.572C306.075 286.756 319.653 271.391 342.478 271.391C372.35 271.391 384.278 294.147 384.278 327.559V460.419H466.812V317.969C466.812 241.656 426.113 206.181 371.8 206.181C328.006 206.181 308.378 230.244 297.378 247.191V248.05H296.828L297.378 247.191V212.059H214.878C215.909 235.366 214.878 460.419 214.878 460.419H297.378Z" fill="#FEB631"/>
</g>
<defs>
<clipPath id="clip0_298_7">
<rect width="550" height="550" fill="white"/>
</clipPath>
</defs>
</svg>
