<svg width="41" height="41" viewBox="0 0 41 41" fill="none" xmlns="http://www.w3.org/2000/svg">
<path d="M10.2496 13.0455C11.7934 13.0455 13.045 11.7939 13.045 10.25C13.045 8.70615 11.7934 7.45459 10.2496 7.45459C8.70566 7.45459 7.4541 8.70615 7.4541 10.25C7.4541 11.7939 8.70566 13.0455 10.2496 13.0455Z" fill="white"/>
<path d="M7.4541 16.7727C7.4541 15.7434 8.28849 14.9091 9.31774 14.9091H11.1814C12.2106 14.9091 13.045 15.7434 13.045 16.7727V31.6818C13.045 32.7111 12.2106 33.5454 11.1814 33.5454H9.31774C8.28849 33.5454 7.4541 32.7111 7.4541 31.6818V16.7727Z" fill="white"/>
<path d="M18.6361 33.5454H20.4997C21.529 33.5454 22.3634 32.7111 22.3634 31.6818V23.2954C22.3634 20.5 27.9543 18.6363 27.9543 22.3636V31.6825C27.9543 32.7118 28.7886 33.5454 29.8179 33.5454H31.6816C32.7108 33.5454 33.5452 32.7111 33.5452 31.6818V20.5C33.5452 16.7727 30.7497 14.9091 27.0225 14.9091C23.2952 14.9091 22.3634 17.7045 22.3634 17.7045V16.7727C22.3634 15.7434 21.529 14.9091 20.4997 14.9091H18.6361C17.6068 14.9091 16.7725 15.7434 16.7725 16.7727V31.6818C16.7725 32.7111 17.6068 33.5454 18.6361 33.5454Z" fill="white"/>
<path fill-rule="evenodd" clip-rule="evenodd" d="M35.4091 0C38.497 0 41 2.50314 41 5.59091V35.4091C41 38.497 38.497 41 35.4091 41H5.59091C2.50314 41 0 38.497 0 35.4091V5.59091C0 2.50314 2.50314 0 5.59091 0H35.4091ZM35.4091 3.72727C36.4384 3.72727 37.2727 4.56166 37.2727 5.59091V35.4091C37.2727 36.4384 36.4384 37.2727 35.4091 37.2727H5.59091C4.56166 37.2727 3.72727 36.4384 3.72727 35.4091V5.59091C3.72727 4.56166 4.56166 3.72727 5.59091 3.72727H35.4091Z" fill="white"/>
</svg>
