<svg width="1440" height="516" viewBox="0 0 1440 516" fill="none" xmlns="http://www.w3.org/2000/svg">
<rect width="1440" height="516" fill="black"/>
<path d="M372.761 335.55L350.101 412H335.911L319.851 354.14L302.801 412L288.721 412.11L267.051 335.55H280.361L296.201 397.81L313.361 335.55H327.441L343.391 397.48L359.341 335.55H372.761ZM378.924 381.42C378.924 375.333 380.17 369.943 382.664 365.25C385.23 360.557 388.677 356.927 393.004 354.36C397.404 351.72 402.244 350.4 407.524 350.4C412.29 350.4 416.434 351.353 419.954 353.26C423.547 355.093 426.407 357.403 428.534 360.19V351.39H441.184V412H428.534V402.98C426.407 405.84 423.51 408.223 419.844 410.13C416.177 412.037 411.997 412.99 407.304 412.99C402.097 412.99 397.33 411.67 393.004 409.03C388.677 406.317 385.23 402.577 382.664 397.81C380.17 392.97 378.924 387.507 378.924 381.42ZM428.534 381.64C428.534 377.46 427.654 373.83 425.894 370.75C424.207 367.67 421.97 365.323 419.184 363.71C416.397 362.097 413.39 361.29 410.164 361.29C406.937 361.29 403.93 362.097 401.144 363.71C398.357 365.25 396.084 367.56 394.324 370.64C392.637 373.647 391.794 377.24 391.794 381.42C391.794 385.6 392.637 389.267 394.324 392.42C396.084 395.573 398.357 397.993 401.144 399.68C404.004 401.293 407.01 402.1 410.164 402.1C413.39 402.1 416.397 401.293 419.184 399.68C421.97 398.067 424.207 395.72 425.894 392.64C427.654 389.487 428.534 385.82 428.534 381.64ZM472.284 361.62V395.17C472.284 397.443 472.798 399.093 473.824 400.12C474.924 401.073 476.758 401.55 479.324 401.55H487.024V412H477.124C471.478 412 467.151 410.68 464.144 408.04C461.138 405.4 459.634 401.11 459.634 395.17V361.62H452.484V351.39H459.634V336.32H472.284V351.39H487.024V361.62H472.284ZM554.132 380.21C554.132 382.483 553.985 384.537 553.692 386.37H507.382C507.749 391.21 509.545 395.097 512.772 398.03C515.999 400.963 519.959 402.43 524.652 402.43C531.399 402.43 536.165 399.607 538.952 393.96H552.482C550.649 399.533 547.312 404.117 542.472 407.71C537.705 411.23 531.765 412.99 524.652 412.99C518.859 412.99 513.652 411.707 509.032 409.14C504.485 406.5 500.892 402.833 498.252 398.14C495.685 393.373 494.402 387.873 494.402 381.64C494.402 375.407 495.649 369.943 498.142 365.25C500.709 360.483 504.265 356.817 508.812 354.25C513.432 351.683 518.712 350.4 524.652 350.4C530.372 350.4 535.469 351.647 539.942 354.14C544.415 356.633 547.899 360.153 550.392 364.7C552.885 369.173 554.132 374.343 554.132 380.21ZM541.042 376.25C540.969 371.63 539.319 367.927 536.092 365.14C532.865 362.353 528.869 360.96 524.102 360.96C519.775 360.96 516.072 362.353 512.992 365.14C509.912 367.853 508.079 371.557 507.492 376.25H541.042ZM579.013 360.19C580.846 357.11 583.266 354.727 586.273 353.04C589.353 351.28 592.983 350.4 597.163 350.4V363.38H593.973C589.059 363.38 585.319 364.627 582.753 367.12C580.259 369.613 579.013 373.94 579.013 380.1V412H566.473V351.39H579.013V360.19ZM655.219 366.9V377.46H610.009V366.9H655.219ZM719.125 396.38H687.115L681.615 412H668.525L695.915 335.44H710.435L737.825 412H724.625L719.125 396.38ZM715.605 386.15L703.175 350.62L690.635 386.15H715.605ZM774.154 350.4C778.848 350.4 782.991 351.353 786.584 353.26C790.251 355.093 793.111 357.403 795.164 360.19V351.39H807.814V412.99C807.814 418.563 806.641 423.513 804.294 427.84C801.948 432.24 798.538 435.687 794.064 438.18C789.664 440.673 784.384 441.92 778.224 441.92C770.011 441.92 763.191 439.977 757.764 436.09C752.338 432.277 749.258 427.07 748.524 420.47H760.954C761.908 423.623 763.924 426.153 767.004 428.06C770.158 430.04 773.898 431.03 778.224 431.03C783.284 431.03 787.354 429.49 790.434 426.41C793.588 423.33 795.164 418.857 795.164 412.99V402.87C793.038 405.73 790.141 408.15 786.474 410.13C782.881 412.037 778.774 412.99 774.154 412.99C768.874 412.99 764.034 411.67 759.634 409.03C755.308 406.317 751.861 402.577 749.294 397.81C746.801 392.97 745.554 387.507 745.554 381.42C745.554 375.333 746.801 369.943 749.294 365.25C751.861 360.557 755.308 356.927 759.634 354.36C764.034 351.72 768.874 350.4 774.154 350.4ZM795.164 381.64C795.164 377.46 794.284 373.83 792.524 370.75C790.838 367.67 788.601 365.323 785.814 363.71C783.028 362.097 780.021 361.29 776.794 361.29C773.568 361.29 770.561 362.097 767.774 363.71C764.988 365.25 762.714 367.56 760.954 370.64C759.268 373.647 758.424 377.24 758.424 381.42C758.424 385.6 759.268 389.267 760.954 392.42C762.714 395.573 764.988 397.993 767.774 399.68C770.634 401.293 773.641 402.1 776.794 402.1C780.021 402.1 783.028 401.293 785.814 399.68C788.601 398.067 790.838 395.72 792.524 392.64C794.284 389.487 795.164 385.82 795.164 381.64ZM836.825 360.19C838.658 357.11 841.078 354.727 844.085 353.04C847.165 351.28 850.795 350.4 854.975 350.4V363.38H851.785C846.872 363.38 843.132 364.627 840.565 367.12C838.072 369.613 836.825 373.94 836.825 380.1V412H824.285V351.39H836.825V360.19ZM892.792 412.99C887.072 412.99 881.902 411.707 877.282 409.14C872.662 406.5 869.032 402.833 866.392 398.14C863.752 393.373 862.432 387.873 862.432 381.64C862.432 375.48 863.789 370.017 866.502 365.25C869.215 360.483 872.919 356.817 877.612 354.25C882.305 351.683 887.549 350.4 893.342 350.4C899.135 350.4 904.379 351.683 909.072 354.25C913.765 356.817 917.469 360.483 920.182 365.25C922.895 370.017 924.252 375.48 924.252 381.64C924.252 387.8 922.859 393.263 920.072 398.03C917.285 402.797 913.472 406.5 908.632 409.14C903.865 411.707 898.585 412.99 892.792 412.99ZM892.792 402.1C896.019 402.1 899.025 401.33 901.812 399.79C904.672 398.25 906.982 395.94 908.742 392.86C910.502 389.78 911.382 386.04 911.382 381.64C911.382 377.24 910.539 373.537 908.852 370.53C907.165 367.45 904.929 365.14 902.142 363.6C899.355 362.06 896.349 361.29 893.122 361.29C889.895 361.29 886.889 362.06 884.102 363.6C881.389 365.14 879.225 367.45 877.612 370.53C875.999 373.537 875.192 377.24 875.192 381.64C875.192 388.167 876.842 393.227 880.142 396.82C883.515 400.34 887.732 402.1 892.792 402.1ZM983.178 366.9V377.46H937.968V366.9H983.178ZM1013.53 401.88H1039.38V412H1000.99V335.55H1013.53V401.88ZM1056.25 343.36C1053.98 343.36 1052.07 342.59 1050.53 341.05C1048.99 339.51 1048.22 337.603 1048.22 335.33C1048.22 333.057 1048.99 331.15 1050.53 329.61C1052.07 328.07 1053.98 327.3 1056.25 327.3C1058.45 327.3 1060.32 328.07 1061.86 329.61C1063.4 331.15 1064.17 333.057 1064.17 335.33C1064.17 337.603 1063.4 339.51 1061.86 341.05C1060.32 342.59 1058.45 343.36 1056.25 343.36ZM1062.41 351.39V412H1049.87V351.39H1062.41ZM1104.29 361.62H1093.07V412H1080.42V361.62H1073.27V351.39H1080.42V347.1C1080.42 340.133 1082.25 335.073 1085.92 331.92C1089.66 328.693 1095.49 327.08 1103.41 327.08V337.53C1099.59 337.53 1096.92 338.263 1095.38 339.73C1093.84 341.123 1093.07 343.58 1093.07 347.1V351.39H1104.29V361.62ZM1170.95 380.21C1170.95 382.483 1170.8 384.537 1170.51 386.37H1124.2C1124.57 391.21 1126.36 395.097 1129.59 398.03C1132.82 400.963 1136.78 402.43 1141.47 402.43C1148.22 402.43 1152.98 399.607 1155.77 393.96H1169.3C1167.47 399.533 1164.13 404.117 1159.29 407.71C1154.52 411.23 1148.58 412.99 1141.47 412.99C1135.68 412.99 1130.47 411.707 1125.85 409.14C1121.3 406.5 1117.71 402.833 1115.07 398.14C1112.5 393.373 1111.22 387.873 1111.22 381.64C1111.22 375.407 1112.47 369.943 1114.96 365.25C1117.53 360.483 1121.08 356.817 1125.63 354.25C1130.25 351.683 1135.53 350.4 1141.47 350.4C1147.19 350.4 1152.29 351.647 1156.76 354.14C1161.23 356.633 1164.72 360.153 1167.21 364.7C1169.7 369.173 1170.95 374.343 1170.95 380.21ZM1157.86 376.25C1157.79 371.63 1156.14 367.927 1152.91 365.14C1149.68 362.353 1145.69 360.96 1140.92 360.96C1136.59 360.96 1132.89 362.353 1129.81 365.14C1126.73 367.853 1124.9 371.557 1124.31 376.25H1157.86Z" fill="url(#paint0_linear_336_31)" fill-opacity="0.53" style="mix-blend-mode:lighten"/>
<defs>
<linearGradient id="paint0_linear_336_31" x1="720" y1="291" x2="720" y2="456" gradientUnits="userSpaceOnUse">
<stop offset="0.384615" stop-color="#29B64D"/>
<stop offset="0.673077" stop-color="#125022"/>
</linearGradient>
</defs>
</svg>
