<!-- <svg width="1440" height="516" viewBox="0 0 1440 516" fill="none" xmlns="http://www.w3.org/2000/svg">
<rect width="1440" height="516" fill="black"/>
<path d="M372.761 335.55L350.101 412H335.911L319.851 354.14L302.801 412L288.721 412.11L267.051 335.55H280.361L296.201 397.81L313.361 335.55H327.441L343.391 397.48L359.341 335.55H372.761ZM378.924 381.42C378.924 375.333 380.17 369.943 382.664 365.25C385.23 360.557 388.677 356.927 393.004 354.36C397.404 351.72 402.244 350.4 407.524 350.4C412.29 350.4 416.434 351.353 419.954 353.26C423.547 355.093 426.407 357.403 428.534 360.19V351.39H441.184V412H428.534V402.98C426.407 405.84 423.51 408.223 419.844 410.13C416.177 412.037 411.997 412.99 407.304 412.99C402.097 412.99 397.33 411.67 393.004 409.03C388.677 406.317 385.23 402.577 382.664 397.81C380.17 392.97 378.924 387.507 378.924 381.42ZM428.534 381.64C428.534 377.46 427.654 373.83 425.894 370.75C424.207 367.67 421.97 365.323 419.184 363.71C416.397 362.097 413.39 361.29 410.164 361.29C406.937 361.29 403.93 362.097 401.144 363.71C398.357 365.25 396.084 367.56 394.324 370.64C392.637 373.647 391.794 377.24 391.794 381.42C391.794 385.6 392.637 389.267 394.324 392.42C396.084 395.573 398.357 397.993 401.144 399.68C404.004 401.293 407.01 402.1 410.164 402.1C413.39 402.1 416.397 401.293 419.184 399.68C421.97 398.067 424.207 395.72 425.894 392.64C427.654 389.487 428.534 385.82 428.534 381.64ZM472.284 361.62V395.17C472.284 397.443 472.798 399.093 473.824 400.12C474.924 401.073 476.758 401.55 479.324 401.55H487.024V412H477.124C471.478 412 467.151 410.68 464.144 408.04C461.138 405.4 459.634 401.11 459.634 395.17V361.62H452.484V351.39H459.634V336.32H472.284V351.39H487.024V361.62H472.284ZM554.132 380.21C554.132 382.483 553.985 384.537 553.692 386.37H507.382C507.749 391.21 509.545 395.097 512.772 398.03C515.999 400.963 519.959 402.43 524.652 402.43C531.399 402.43 536.165 399.607 538.952 393.96H552.482C550.649 399.533 547.312 404.117 542.472 407.71C537.705 411.23 531.765 412.99 524.652 412.99C518.859 412.99 513.652 411.707 509.032 409.14C504.485 406.5 500.892 402.833 498.252 398.14C495.685 393.373 494.402 387.873 494.402 381.64C494.402 375.407 495.649 369.943 498.142 365.25C500.709 360.483 504.265 356.817 508.812 354.25C513.432 351.683 518.712 350.4 524.652 350.4C530.372 350.4 535.469 351.647 539.942 354.14C544.415 356.633 547.899 360.153 550.392 364.7C552.885 369.173 554.132 374.343 554.132 380.21ZM541.042 376.25C540.969 371.63 539.319 367.927 536.092 365.14C532.865 362.353 528.869 360.96 524.102 360.96C519.775 360.96 516.072 362.353 512.992 365.14C509.912 367.853 508.079 371.557 507.492 376.25H541.042ZM579.013 360.19C580.846 357.11 583.266 354.727 586.273 353.04C589.353 351.28 592.983 350.4 597.163 350.4V363.38H593.973C589.059 363.38 585.319 364.627 582.753 367.12C580.259 369.613 579.013 373.94 579.013 380.1V412H566.473V351.39H579.013V360.19ZM655.219 366.9V377.46H610.009V366.9H655.219ZM719.125 396.38H687.115L681.615 412H668.525L695.915 335.44H710.435L737.825 412H724.625L719.125 396.38ZM715.605 386.15L703.175 350.62L690.635 386.15H715.605ZM774.154 350.4C778.848 350.4 782.991 351.353 786.584 353.26C790.251 355.093 793.111 357.403 795.164 360.19V351.39H807.814V412.99C807.814 418.563 806.641 423.513 804.294 427.84C801.948 432.24 798.538 435.687 794.064 438.18C789.664 440.673 784.384 441.92 778.224 441.92C770.011 441.92 763.191 439.977 757.764 436.09C752.338 432.277 749.258 427.07 748.524 420.47H760.954C761.908 423.623 763.924 426.153 767.004 428.06C770.158 430.04 773.898 431.03 778.224 431.03C783.284 431.03 787.354 429.49 790.434 426.41C793.588 423.33 795.164 418.857 795.164 412.99V402.87C793.038 405.73 790.141 408.15 786.474 410.13C782.881 412.037 778.774 412.99 774.154 412.99C768.874 412.99 764.034 411.67 759.634 409.03C755.308 406.317 751.861 402.577 749.294 397.81C746.801 392.97 745.554 387.507 745.554 381.42C745.554 375.333 746.801 369.943 749.294 365.25C751.861 360.557 755.308 356.927 759.634 354.36C764.034 351.72 768.874 350.4 774.154 350.4ZM795.164 381.64C795.164 377.46 794.284 373.83 792.524 370.75C790.838 367.67 788.601 365.323 785.814 363.71C783.028 362.097 780.021 361.29 776.794 361.29C773.568 361.29 770.561 362.097 767.774 363.71C764.988 365.25 762.714 367.56 760.954 370.64C759.268 373.647 758.424 377.24 758.424 381.42C758.424 385.6 759.268 389.267 760.954 392.42C762.714 395.573 764.988 397.993 767.774 399.68C770.634 401.293 773.641 402.1 776.794 402.1C780.021 402.1 783.028 401.293 785.814 399.68C788.601 398.067 790.838 395.72 792.524 392.64C794.284 389.487 795.164 385.82 795.164 381.64ZM836.825 360.19C838.658 357.11 841.078 354.727 844.085 353.04C847.165 351.28 850.795 350.4 854.975 350.4V363.38H851.785C846.872 363.38 843.132 364.627 840.565 367.12C838.072 369.613 836.825 373.94 836.825 380.1V412H824.285V351.39H836.825V360.19ZM892.792 412.99C887.072 412.99 881.902 411.707 877.282 409.14C872.662 406.5 869.032 402.833 866.392 398.14C863.752 393.373 862.432 387.873 862.432 381.64C862.432 375.48 863.789 370.017 866.502 365.25C869.215 360.483 872.919 356.817 877.612 354.25C882.305 351.683 887.549 350.4 893.342 350.4C899.135 350.4 904.379 351.683 909.072 354.25C913.765 356.817 917.469 360.483 920.182 365.25C922.895 370.017 924.252 375.48 924.252 381.64C924.252 387.8 922.859 393.263 920.072 398.03C917.285 402.797 913.472 406.5 908.632 409.14C903.865 411.707 898.585 412.99 892.792 412.99ZM892.792 402.1C896.019 402.1 899.025 401.33 901.812 399.79C904.672 398.25 906.982 395.94 908.742 392.86C910.502 389.78 911.382 386.04 911.382 381.64C911.382 377.24 910.539 373.537 908.852 370.53C907.165 367.45 904.929 365.14 902.142 363.6C899.355 362.06 896.349 361.29 893.122 361.29C889.895 361.29 886.889 362.06 884.102 363.6C881.389 365.14 879.225 367.45 877.612 370.53C875.999 373.537 875.192 377.24 875.192 381.64C875.192 388.167 876.842 393.227 880.142 396.82C883.515 400.34 887.732 402.1 892.792 402.1ZM983.178 366.9V377.46H937.968V366.9H983.178ZM1013.53 401.88H1039.38V412H1000.99V335.55H1013.53V401.88ZM1056.25 343.36C1053.98 343.36 1052.07 342.59 1050.53 341.05C1048.99 339.51 1048.22 337.603 1048.22 335.33C1048.22 333.057 1048.99 331.15 1050.53 329.61C1052.07 328.07 1053.98 327.3 1056.25 327.3C1058.45 327.3 1060.32 328.07 1061.86 329.61C1063.4 331.15 1064.17 333.057 1064.17 335.33C1064.17 337.603 1063.4 339.51 1061.86 341.05C1060.32 342.59 1058.45 343.36 1056.25 343.36ZM1062.41 351.39V412H1049.87V351.39H1062.41ZM1104.29 361.62H1093.07V412H1080.42V361.62H1073.27V351.39H1080.42V347.1C1080.42 340.133 1082.25 335.073 1085.92 331.92C1089.66 328.693 1095.49 327.08 1103.41 327.08V337.53C1099.59 337.53 1096.92 338.263 1095.38 339.73C1093.84 341.123 1093.07 343.58 1093.07 347.1V351.39H1104.29V361.62ZM1170.95 380.21C1170.95 382.483 1170.8 384.537 1170.51 386.37H1124.2C1124.57 391.21 1126.36 395.097 1129.59 398.03C1132.82 400.963 1136.78 402.43 1141.47 402.43C1148.22 402.43 1152.98 399.607 1155.77 393.96H1169.3C1167.47 399.533 1164.13 404.117 1159.29 407.71C1154.52 411.23 1148.58 412.99 1141.47 412.99C1135.68 412.99 1130.47 411.707 1125.85 409.14C1121.3 406.5 1117.71 402.833 1115.07 398.14C1112.5 393.373 1111.22 387.873 1111.22 381.64C1111.22 375.407 1112.47 369.943 1114.96 365.25C1117.53 360.483 1121.08 356.817 1125.63 354.25C1130.25 351.683 1135.53 350.4 1141.47 350.4C1147.19 350.4 1152.29 351.647 1156.76 354.14C1161.23 356.633 1164.72 360.153 1167.21 364.7C1169.7 369.173 1170.95 374.343 1170.95 380.21ZM1157.86 376.25C1157.79 371.63 1156.14 367.927 1152.91 365.14C1149.68 362.353 1145.69 360.96 1140.92 360.96C1136.59 360.96 1132.89 362.353 1129.81 365.14C1126.73 367.853 1124.9 371.557 1124.31 376.25H1157.86Z" fill="url(#paint0_linear_336_31)" fill-opacity="0.53" style="mix-blend-mode:lighten"/>
<defs>
<linearGradient id="paint0_linear_336_31" x1="720" y1="291" x2="720" y2="456" gradientUnits="userSpaceOnUse">
<stop offset="0.384615" stop-color="#29B64D"/>
<stop offset="0.673077" stop-color="#125022"/>
</linearGradient>
</defs>
</svg> -->


<svg width="1287" height="560" viewBox="0 0 1287 560" fill="none" xmlns="http://www.w3.org/2000/svg">
<rect width="1287" height="560" fill="#395828"/>
<g filter="url(#filter0_d_342_80)">
<path d="M436.261 330.55L413.601 407H399.411L383.351 349.14L366.301 407L352.221 407.11L330.551 330.55H343.861L359.701 392.81L376.861 330.55H390.941L406.891 392.48L422.841 330.55H436.261ZM442.424 376.42C442.424 370.333 443.67 364.943 446.164 360.25C448.73 355.557 452.177 351.927 456.504 349.36C460.904 346.72 465.744 345.4 471.024 345.4C475.79 345.4 479.934 346.353 483.454 348.26C487.047 350.093 489.907 352.403 492.034 355.19V346.39H504.684V407H492.034V397.98C489.907 400.84 487.01 403.223 483.344 405.13C479.677 407.037 475.497 407.99 470.804 407.99C465.597 407.99 460.83 406.67 456.504 404.03C452.177 401.317 448.73 397.577 446.164 392.81C443.67 387.97 442.424 382.507 442.424 376.42ZM492.034 376.64C492.034 372.46 491.154 368.83 489.394 365.75C487.707 362.67 485.47 360.323 482.684 358.71C479.897 357.097 476.89 356.29 473.664 356.29C470.437 356.29 467.43 357.097 464.644 358.71C461.857 360.25 459.584 362.56 457.824 365.64C456.137 368.647 455.294 372.24 455.294 376.42C455.294 380.6 456.137 384.267 457.824 387.42C459.584 390.573 461.857 392.993 464.644 394.68C467.504 396.293 470.51 397.1 473.664 397.1C476.89 397.1 479.897 396.293 482.684 394.68C485.47 393.067 487.707 390.72 489.394 387.64C491.154 384.487 492.034 380.82 492.034 376.64ZM535.784 356.62V390.17C535.784 392.443 536.298 394.093 537.324 395.12C538.424 396.073 540.258 396.55 542.824 396.55H550.524V407H540.624C534.978 407 530.651 405.68 527.644 403.04C524.638 400.4 523.134 396.11 523.134 390.17V356.62H515.984V346.39H523.134V331.32H535.784V346.39H550.524V356.62H535.784ZM617.632 375.21C617.632 377.483 617.485 379.537 617.192 381.37H570.882C571.249 386.21 573.045 390.097 576.272 393.03C579.499 395.963 583.459 397.43 588.152 397.43C594.899 397.43 599.665 394.607 602.452 388.96H615.982C614.149 394.533 610.812 399.117 605.972 402.71C601.205 406.23 595.265 407.99 588.152 407.99C582.359 407.99 577.152 406.707 572.532 404.14C567.985 401.5 564.392 397.833 561.752 393.14C559.185 388.373 557.902 382.873 557.902 376.64C557.902 370.407 559.149 364.943 561.642 360.25C564.209 355.483 567.765 351.817 572.312 349.25C576.932 346.683 582.212 345.4 588.152 345.4C593.872 345.4 598.969 346.647 603.442 349.14C607.915 351.633 611.399 355.153 613.892 359.7C616.385 364.173 617.632 369.343 617.632 375.21ZM604.542 371.25C604.469 366.63 602.819 362.927 599.592 360.14C596.365 357.353 592.369 355.96 587.602 355.96C583.275 355.96 579.572 357.353 576.492 360.14C573.412 362.853 571.579 366.557 570.992 371.25H604.542ZM642.513 355.19C644.346 352.11 646.766 349.727 649.773 348.04C652.853 346.28 656.483 345.4 660.663 345.4V358.38H657.473C652.559 358.38 648.819 359.627 646.253 362.12C643.759 364.613 642.513 368.94 642.513 375.1V407H629.973V346.39H642.513V355.19ZM718.719 361.9V372.46H673.509V361.9H718.719ZM782.625 391.38H750.615L745.115 407H732.025L759.415 330.44H773.935L801.325 407H788.125L782.625 391.38ZM779.105 381.15L766.675 345.62L754.135 381.15H779.105ZM837.654 345.4C842.348 345.4 846.491 346.353 850.084 348.26C853.751 350.093 856.611 352.403 858.664 355.19V346.39H871.314V407.99C871.314 413.563 870.141 418.513 867.794 422.84C865.448 427.24 862.038 430.687 857.564 433.18C853.164 435.673 847.884 436.92 841.724 436.92C833.511 436.92 826.691 434.977 821.264 431.09C815.838 427.277 812.758 422.07 812.024 415.47H824.454C825.408 418.623 827.424 421.153 830.504 423.06C833.658 425.04 837.398 426.03 841.724 426.03C846.784 426.03 850.854 424.49 853.934 421.41C857.088 418.33 858.664 413.857 858.664 407.99V397.87C856.538 400.73 853.641 403.15 849.974 405.13C846.381 407.037 842.274 407.99 837.654 407.99C832.374 407.99 827.534 406.67 823.134 404.03C818.808 401.317 815.361 397.577 812.794 392.81C810.301 387.97 809.054 382.507 809.054 376.42C809.054 370.333 810.301 364.943 812.794 360.25C815.361 355.557 818.808 351.927 823.134 349.36C827.534 346.72 832.374 345.4 837.654 345.4ZM858.664 376.64C858.664 372.46 857.784 368.83 856.024 365.75C854.338 362.67 852.101 360.323 849.314 358.71C846.528 357.097 843.521 356.29 840.294 356.29C837.068 356.29 834.061 357.097 831.274 358.71C828.488 360.25 826.214 362.56 824.454 365.64C822.768 368.647 821.924 372.24 821.924 376.42C821.924 380.6 822.768 384.267 824.454 387.42C826.214 390.573 828.488 392.993 831.274 394.68C834.134 396.293 837.141 397.1 840.294 397.1C843.521 397.1 846.528 396.293 849.314 394.68C852.101 393.067 854.338 390.72 856.024 387.64C857.784 384.487 858.664 380.82 858.664 376.64ZM900.325 355.19C902.158 352.11 904.578 349.727 907.585 348.04C910.665 346.28 914.295 345.4 918.475 345.4V358.38H915.285C910.372 358.38 906.632 359.627 904.065 362.12C901.572 364.613 900.325 368.94 900.325 375.1V407H887.785V346.39H900.325V355.19ZM956.292 407.99C950.572 407.99 945.402 406.707 940.782 404.14C936.162 401.5 932.532 397.833 929.892 393.14C927.252 388.373 925.932 382.873 925.932 376.64C925.932 370.48 927.289 365.017 930.002 360.25C932.715 355.483 936.419 351.817 941.112 349.25C945.805 346.683 951.049 345.4 956.842 345.4C962.635 345.4 967.879 346.683 972.572 349.25C977.265 351.817 980.969 355.483 983.682 360.25C986.395 365.017 987.752 370.48 987.752 376.64C987.752 382.8 986.359 388.263 983.572 393.03C980.785 397.797 976.972 401.5 972.132 404.14C967.365 406.707 962.085 407.99 956.292 407.99ZM956.292 397.1C959.519 397.1 962.525 396.33 965.312 394.79C968.172 393.25 970.482 390.94 972.242 387.86C974.002 384.78 974.882 381.04 974.882 376.64C974.882 372.24 974.039 368.537 972.352 365.53C970.665 362.45 968.429 360.14 965.642 358.6C962.855 357.06 959.849 356.29 956.622 356.29C953.395 356.29 950.389 357.06 947.602 358.6C944.889 360.14 942.725 362.45 941.112 365.53C939.499 368.537 938.692 372.24 938.692 376.64C938.692 383.167 940.342 388.227 943.642 391.82C947.015 395.34 951.232 397.1 956.292 397.1ZM1046.68 361.9V372.46H1001.47V361.9H1046.68ZM1077.03 396.88H1102.88V407H1064.49V330.55H1077.03V396.88ZM1119.75 338.36C1117.48 338.36 1115.57 337.59 1114.03 336.05C1112.49 334.51 1111.72 332.603 1111.72 330.33C1111.72 328.057 1112.49 326.15 1114.03 324.61C1115.57 323.07 1117.48 322.3 1119.75 322.3C1121.95 322.3 1123.82 323.07 1125.36 324.61C1126.9 326.15 1127.67 328.057 1127.67 330.33C1127.67 332.603 1126.9 334.51 1125.36 336.05C1123.82 337.59 1121.95 338.36 1119.75 338.36ZM1125.91 346.39V407H1113.37V346.39H1125.91ZM1167.79 356.62H1156.57V407H1143.92V356.62H1136.77V346.39H1143.92V342.1C1143.92 335.133 1145.75 330.073 1149.42 326.92C1153.16 323.693 1158.99 322.08 1166.91 322.08V332.53C1163.09 332.53 1160.42 333.263 1158.88 334.73C1157.34 336.123 1156.57 338.58 1156.57 342.1V346.39H1167.79V356.62ZM1234.45 375.21C1234.45 377.483 1234.3 379.537 1234.01 381.37H1187.7C1188.07 386.21 1189.86 390.097 1193.09 393.03C1196.32 395.963 1200.28 397.43 1204.97 397.43C1211.72 397.43 1216.48 394.607 1219.27 388.96H1232.8C1230.97 394.533 1227.63 399.117 1222.79 402.71C1218.02 406.23 1212.08 407.99 1204.97 407.99C1199.18 407.99 1193.97 406.707 1189.35 404.14C1184.8 401.5 1181.21 397.833 1178.57 393.14C1176 388.373 1174.72 382.873 1174.72 376.64C1174.72 370.407 1175.97 364.943 1178.46 360.25C1181.03 355.483 1184.58 351.817 1189.13 349.25C1193.75 346.683 1199.03 345.4 1204.97 345.4C1210.69 345.4 1215.79 346.647 1220.26 349.14C1224.73 351.633 1228.22 355.153 1230.71 359.7C1233.2 364.173 1234.45 369.343 1234.45 375.21ZM1221.36 371.25C1221.29 366.63 1219.64 362.927 1216.41 360.14C1213.18 357.353 1209.19 355.96 1204.42 355.96C1200.09 355.96 1196.39 357.353 1193.31 360.14C1190.23 362.853 1188.4 366.557 1187.81 371.25H1221.36Z" fill="white"/>
</g>
<g clip-path="url(#clip0_342_80)">
<path d="M162.053 434.912L161.74 428.389C161.707 428.373 161.675 428.357 161.642 428.341C158.283 426.71 154.432 429.663 155.505 433.03C156.515 436.198 157.193 439.614 159.041 442.387C160.133 443.997 161.603 445.36 163.341 446.374C165.08 447.388 167.042 448.026 169.084 448.243L173.352 450.661C173.937 447.64 173.808 444.537 172.973 441.566C172.138 438.596 170.617 435.828 168.515 433.454C167.321 432.133 165.953 430.956 164.441 429.951C163.419 432.445 162.053 434.912 162.053 434.912Z" fill="#28D84B"/>
<path d="M123.841 368.714C115.624 360.872 103.716 356.375 91.1706 356.375L90.6867 356.376C82.4235 356.379 74.3078 354.351 67.1695 350.499L66.4267 350.099L67.025 349.528C70.2639 346.428 72.9684 342.885 75.0437 339.023C73.5698 340.295 71.8118 341.251 69.8942 341.824C67.9766 342.397 65.9463 342.574 63.947 342.34C61.8362 342.107 59.8098 341.435 58.0197 340.374C56.2297 339.313 54.7225 337.891 53.6113 336.214C49.2266 329.631 44 320.29 44 313.174C44.0068 307.16 45.3678 301.212 47.9962 295.711C50.6247 290.21 54.4628 285.276 59.2661 281.223C62.307 278.686 64.7359 275.584 66.3945 272.12C68.053 268.656 68.9039 264.908 68.8918 261.119L68.8894 260.579C68.8886 255.591 69.5473 250.622 70.851 245.782L70.9833 245.293L71.5268 245.31C75.0313 245.421 78.5377 245.149 81.9735 244.5C78.7507 244.135 75.5979 243.359 72.6046 242.195L72.02 241.976L72.2184 241.421C85.8955 233.585 116.769 237.643 134.688 199.705C149.219 168.942 200.487 227.013 200.487 260.58C200.487 264.005 196.824 268.531 199.566 270.794C229.209 295.266 208.756 310.98 202.307 326.793C200.777 330.544 204.095 334.663 204.095 338.722C204.095 339.41 204.076 340.121 204.038 340.835L203.981 341.931L202.993 341.323C201.038 340.138 199.225 338.762 197.587 337.219C199.287 340.839 200.088 344.766 199.931 348.71C199.774 352.655 198.664 356.516 196.682 360.011C193.575 365.437 190.57 369.321 187.749 371.555C178.713 378.711 167.065 382.402 155.185 381.873C143.306 381.345 132.094 376.638 123.841 368.714Z" fill="#1BEA63"/>
<path d="M173.47 450.339C173.672 450.338 173.867 450.271 174.02 450.148C174.172 450.026 174.272 449.856 174.3 449.671C174.336 449.439 177.83 426.122 174.692 395.131C171.794 366.511 162.487 325.288 134.609 291.432C134.542 291.351 134.459 291.282 134.363 291.231C134.268 291.179 134.163 291.146 134.053 291.132C133.944 291.118 133.833 291.125 133.726 291.151C133.619 291.177 133.519 291.222 133.431 291.284C133.344 291.346 133.27 291.423 133.214 291.511C133.159 291.6 133.123 291.697 133.108 291.798C133.093 291.9 133.1 292.003 133.129 292.101C133.157 292.2 133.206 292.293 133.273 292.374C160.911 325.937 170.142 366.858 173.02 395.276C176.14 426.086 172.673 449.222 172.638 449.452C172.621 449.562 172.63 449.675 172.664 449.782C172.698 449.888 172.756 449.987 172.835 450.071C172.914 450.155 173.012 450.223 173.121 450.269C173.231 450.315 173.35 450.339 173.47 450.339Z" fill="#3F3D56"/>
<path d="M150.719 339.188C150.897 339.188 151.07 339.136 151.213 339.039C151.357 338.943 151.464 338.807 151.518 338.651C151.573 338.495 151.573 338.327 151.519 338.171C151.464 338.015 151.357 337.879 151.214 337.782C151.112 337.714 140.914 330.914 125.667 325.748C111.572 320.973 90.1386 316.644 68.0735 323.143C67.9683 323.174 67.8707 323.223 67.7863 323.289C67.7018 323.355 67.6322 323.435 67.5814 323.526C67.5307 323.617 67.4997 323.716 67.4903 323.817C67.481 323.919 67.4934 324.022 67.5268 324.119C67.5603 324.216 67.6142 324.307 67.6854 324.385C67.7566 324.463 67.8437 324.527 67.9418 324.574C68.0398 324.621 68.1469 324.649 68.2569 324.658C68.3669 324.666 68.4776 324.654 68.5827 324.623C90.1958 318.259 111.24 322.516 125.089 327.208C140.119 332.3 150.127 338.972 150.226 339.039C150.37 339.136 150.542 339.188 150.719 339.188Z" fill="#3F3D56"/>
<path d="M189.147 250.624C189.16 250.46 189.117 250.297 189.023 250.157C188.929 250.018 188.791 249.909 188.626 249.847C188.462 249.786 188.281 249.773 188.109 249.813C187.936 249.852 187.782 249.941 187.668 250.066C187.587 250.155 179.523 259.078 172.857 272.778C166.695 285.443 160.486 304.912 165.901 325.745C165.953 325.945 166.089 326.118 166.279 326.226C166.469 326.334 166.697 326.367 166.914 326.319C167.13 326.271 167.317 326.145 167.433 325.969C167.549 325.793 167.586 325.582 167.533 325.382C162.23 304.976 168.334 285.86 174.388 273.416C180.959 259.911 188.872 251.155 188.951 251.068C189.066 250.943 189.134 250.787 189.147 250.624Z" fill="#3F3D56"/>
<path d="M188.011 290.685C188.72 295.974 192.68 300.334 198.439 300.334C201.205 300.334 203.857 299.318 205.813 297.508C207.768 295.699 208.867 293.244 208.867 290.685C208.867 285.356 204.174 281.528 198.439 281.036C192.354 280.513 187.102 283.895 188.011 290.685Z" fill="#2F2E41"/>
<path d="M203.268 446.089L207.239 446.089L209.128 431.915L203.268 431.915L203.268 446.089Z" fill="#FFB6B6"/>
<path d="M203.129 449.922L215.341 449.921V449.778C215.341 448.612 214.84 447.493 213.948 446.669C213.057 445.844 211.848 445.38 210.588 445.38L208.357 443.814L204.195 445.381L203.129 445.381L203.129 449.922Z" fill="#2F2E41"/>
<path d="M187.627 446.089L191.598 446.089L193.487 431.915L187.626 431.915L187.627 446.089Z" fill="#FFB6B6"/>
<path d="M187.488 449.922L199.699 449.921V449.778C199.699 448.612 199.198 447.493 198.307 446.669C197.415 445.844 196.207 445.38 194.946 445.38L192.715 443.814L188.553 445.381L187.487 445.381L187.488 449.922Z" fill="#2F2E41"/>
<path d="M216.934 357.317L219.742 366.224L216.434 403.948C216.434 403.948 218.137 406.307 216.934 406.307C215.731 406.307 214.188 406.83 215.16 408.238C216.132 409.647 212.81 414.704 212.81 414.704L208.11 441.564L202.123 441.482C202.123 441.482 199.078 439.913 200.787 438.326C202.495 436.739 203.699 436.739 202.094 435.255C200.49 433.77 200.49 434.217 200.49 433.066C200.49 431.915 198.883 417.844 202.694 412.446L201.546 390.44L198.841 412.025L193.271 440.822L187.502 440.778C187.502 440.778 184.838 438.401 184.843 436.643C184.848 434.884 186.489 434.737 185.268 433.697C184.046 432.657 184.046 416.675 187.656 407.791C187.656 407.791 189.697 402.828 187.651 401.127C185.604 399.426 187.648 397.48 187.648 397.48C187.648 397.48 190.89 396.396 187.645 393.272C184.401 390.148 187.628 368.054 187.628 368.054C187.628 368.054 184.081 359.135 187.673 355.628C191.265 352.121 216.934 357.317 216.934 357.317Z" fill="#2F2E41"/>
<path d="M166.93 372.664L171.939 361.462L175.886 363.491L173.502 374.886C173.741 375.608 173.757 376.377 173.549 377.107C173.342 377.837 172.918 378.499 172.326 379.018C171.734 379.537 170.997 379.894 170.198 380.047C169.399 380.2 168.57 380.144 167.803 379.885C167.037 379.626 166.364 379.174 165.86 378.58C165.356 377.987 165.041 377.275 164.95 376.524C164.859 375.774 164.997 375.015 165.346 374.333C165.696 373.651 166.244 373.073 166.93 372.664Z" fill="#FFB6B6"/>
<path d="M250.985 284.086L243.364 293.946L240.017 291.142L245.128 280.543C245.072 279.79 245.245 279.038 245.626 278.37C246.007 277.703 246.582 277.147 247.286 276.765C247.99 276.383 248.795 276.191 249.61 276.209C250.426 276.228 251.22 276.456 251.903 276.869C252.586 277.282 253.131 277.863 253.476 278.547C253.822 279.231 253.954 279.991 253.859 280.74C253.764 281.49 253.444 282.2 252.937 282.791C252.429 283.382 251.753 283.831 250.985 284.086Z" fill="#FFB6B6"/>
<path d="M217.691 358.231C222.634 365.326 197.785 374.33 188.25 370.715C186.58 370.082 180.837 367.992 184.763 365.093C188.689 362.194 184.308 361.786 184.204 359.899C184.135 358.638 185.191 355.87 184.089 355.989C182.988 356.108 181.699 354.363 184.098 353.612C186.496 352.862 184.123 352.177 184.144 351.464C184.374 343.687 190.822 331.317 190.822 331.317L179.203 358.802C179.203 358.802 179.288 363.557 177.807 362.104C176.325 360.65 176.433 365.353 176.433 365.353C176.433 365.353 174.229 366.776 175.496 367.568C176.763 368.36 174.132 370.795 174.132 370.795L167.993 370.389C167.993 370.389 168.089 366.169 169.137 365.236C170.186 364.302 169.671 362.834 169.671 362.834C169.671 362.834 172.4 360.598 170.57 358.783C168.217 356.449 176.797 317.02 179.757 317.41C180.176 315.525 181.15 313.784 182.571 312.379C183.992 310.974 185.806 309.96 187.811 309.449L194.442 307.76L195.619 303.437H204.956L206.582 306.277L213.68 309.241C215.017 307.496 216.016 305.656 221.491 305.06C221.491 305.06 236.244 292.639 235.523 291.67C234.803 290.7 237.09 288.429 237.09 288.429C237.09 288.429 239.043 287.838 237.941 287.522C236.839 287.206 238.922 286.476 238.922 286.476C238.922 286.476 240.851 286.007 239.941 285.389C239.031 284.771 242.978 284.366 242.978 284.366L248.098 288.232L247.064 289.856C247.064 289.856 247.695 292.067 246.871 291.26C246.048 290.452 245.892 292.795 245.892 292.795C245.892 292.795 245.472 295.36 242.978 296.133C240.484 296.906 238.593 304.248 238.593 304.248C232.711 311.325 225.77 316.845 217.545 320.479C220.75 323.884 217.691 358.231 217.691 358.231Z" fill="#6C63FF"/>
<path d="M199.592 300.907C204.699 300.907 208.839 297.076 208.839 292.351C208.839 287.625 204.699 283.794 199.592 283.794C194.485 283.794 190.345 287.625 190.345 292.351C190.345 297.076 194.485 300.907 199.592 300.907Z" fill="#FFB6B6"/>
<path d="M190.016 293.283C190.309 295.142 192.022 297.736 191.621 297.736C191.22 297.736 188.368 290.071 191.22 289.571C193.288 289.209 193.75 289.527 195.684 288.751L195.411 288.989C196.69 289.85 198.471 289.319 199.931 288.759C201.395 288.202 203.172 287.671 204.455 288.529C205.261 289.067 205.602 290.002 206.103 290.796C206.605 291.594 207.531 292.348 208.486 292.103C209.252 291.906 209.693 291.112 209.689 290.377C209.685 289.642 208.651 288.943 208.999 288.284C210.031 286.33 209.103 284.998 206.853 284.079C206.035 283.964 205.217 283.846 204.399 283.726C204.828 283.177 205.347 282.693 205.939 282.294C205.689 281.701 205.257 281.188 204.696 280.82C204.042 280.46 203.232 280.486 202.474 280.523C200.781 280.605 199.09 280.687 197.4 280.768C196.149 280.828 194.853 280.898 193.734 281.429C192.339 282.093 191.424 283.388 190.758 284.706C189.266 287.668 189.503 290.05 190.016 293.283Z" fill="#2F2E41"/>
<path d="M151.549 450.886L242.492 451C242.619 451 242.741 450.953 242.83 450.87C242.92 450.788 242.97 450.675 242.97 450.558C242.97 450.441 242.92 450.328 242.83 450.245C242.741 450.163 242.619 450.116 242.492 450.116L151.549 450.002C151.422 450.002 151.301 450.049 151.211 450.131C151.122 450.214 151.071 450.327 151.071 450.444C151.071 450.561 151.122 450.673 151.211 450.756C151.301 450.839 151.422 450.886 151.549 450.886Z" fill="#CACACA"/>
<path d="M118.657 412.366C118.825 411.299 117.618 410.254 115.962 410.031C114.305 409.808 112.827 410.492 112.659 411.558C112.491 412.624 113.698 413.67 115.355 413.893C117.011 414.116 118.49 413.432 118.657 412.366Z" fill="#E6E6E6"/>
<path d="M138.378 410.585C138.546 409.519 137.339 408.474 135.682 408.251C134.026 408.028 132.547 408.711 132.38 409.777C132.212 410.844 133.419 411.889 135.075 412.112C136.732 412.335 138.21 411.651 138.378 410.585Z" fill="#3F3D56"/>
<path d="M113.257 397.592C113.425 396.526 112.218 395.48 110.561 395.257C108.905 395.034 107.426 395.718 107.259 396.784C107.091 397.85 108.298 398.896 109.954 399.119C111.611 399.342 113.089 398.658 113.257 397.592Z" fill="#FF6584"/>
<path d="M104.687 391.54C104.695 390.561 104.105 389.764 103.369 389.758C102.633 389.753 102.03 390.543 102.022 391.522C102.014 392.5 102.604 393.298 103.34 393.303C104.076 393.308 104.679 392.519 104.687 391.54Z" fill="#E6E6E6"/>
<path d="M101.781 380.268C101.789 379.289 101.199 378.492 100.463 378.487C99.7271 378.481 99.124 379.271 99.116 380.25C99.108 381.228 99.6981 382.026 100.434 382.031C101.17 382.036 101.773 381.247 101.781 380.268Z" fill="#3F3D56"/>
<path d="M124.38 400.106C124.388 399.127 123.798 398.33 123.062 398.324C122.326 398.319 121.723 399.109 121.715 400.087C121.707 401.066 122.297 401.864 123.033 401.869C123.769 401.874 124.372 401.085 124.38 400.106Z" fill="#E6E6E6"/>
<path d="M114.849 404.509C114.857 403.53 114.267 402.732 113.531 402.727C112.795 402.722 112.192 403.511 112.184 404.49C112.176 405.469 112.766 406.267 113.502 406.272C114.238 406.277 114.841 405.488 114.849 404.509Z" fill="#FF6584"/>
<path d="M128.116 412.647C128.124 411.668 127.534 410.871 126.798 410.865C126.062 410.86 125.459 411.65 125.451 412.628C125.443 413.607 126.033 414.405 126.769 414.41C127.505 414.415 128.108 413.626 128.116 412.647Z" fill="#3F3D56"/>
<path d="M270.263 355.212C270.431 354.146 269.224 353.1 267.567 352.877C265.911 352.654 264.432 353.338 264.265 354.404C264.097 355.471 265.304 356.516 266.96 356.739C268.617 356.962 270.095 356.278 270.263 355.212Z" fill="#E6E6E6"/>
<path d="M289.985 353.431C290.152 352.365 288.945 351.32 287.289 351.097C285.633 350.874 284.154 351.557 283.986 352.624C283.819 353.69 285.025 354.735 286.682 354.958C288.338 355.181 289.817 354.497 289.985 353.431Z" fill="#3F3D56"/>
<path d="M264.863 340.437C265.03 339.371 263.823 338.326 262.167 338.103C260.51 337.88 259.032 338.564 258.864 339.63C258.696 340.696 259.903 341.741 261.56 341.964C263.216 342.187 264.695 341.504 264.863 340.437Z" fill="#FF6584"/>
<path d="M256.294 334.386C256.302 333.407 255.712 332.609 254.976 332.604C254.24 332.599 253.637 333.388 253.629 334.367C253.621 335.346 254.211 336.144 254.947 336.149C255.683 336.154 256.286 335.365 256.294 334.386Z" fill="#E6E6E6"/>
<path d="M253.387 323.114C253.395 322.135 252.805 321.337 252.069 321.332C251.334 321.327 250.73 322.116 250.722 323.095C250.714 324.074 251.305 324.872 252.04 324.877C252.776 324.882 253.379 324.093 253.387 323.114Z" fill="#3F3D56"/>
<path d="M275.986 342.952C275.994 341.973 275.404 341.175 274.668 341.17C273.932 341.165 273.329 341.954 273.321 342.933C273.313 343.912 273.903 344.71 274.639 344.715C275.375 344.72 275.978 343.931 275.986 342.952Z" fill="#E6E6E6"/>
<path d="M266.456 347.355C266.464 346.376 265.874 345.578 265.138 345.573C264.402 345.568 263.799 346.357 263.791 347.336C263.783 348.315 264.373 349.113 265.109 349.118C265.845 349.123 266.448 348.334 266.456 347.355Z" fill="#FF6584"/>
<path d="M279.722 355.493C279.73 354.514 279.14 353.716 278.404 353.711C277.669 353.706 277.065 354.495 277.057 355.474C277.049 356.453 277.64 357.251 278.375 357.256C279.111 357.261 279.714 356.472 279.722 355.493Z" fill="#3F3D56"/>
<path d="M196.866 249.439C197.034 248.373 195.827 247.328 194.171 247.105C192.514 246.882 191.036 247.566 190.868 248.632C190.7 249.698 191.907 250.743 193.564 250.966C195.22 251.189 196.699 250.506 196.866 249.439Z" fill="white"/>
<path d="M216.588 247.659C216.756 246.592 215.549 245.547 213.892 245.324C212.236 245.101 210.757 245.785 210.59 246.851C210.422 247.917 211.629 248.963 213.285 249.186C214.942 249.409 216.42 248.725 216.588 247.659Z" fill="#3F3D56"/>
<path d="M191.466 234.666C191.634 233.599 190.427 232.554 188.77 232.331C187.114 232.108 185.635 232.792 185.468 233.858C185.3 234.924 186.507 235.969 188.163 236.192C189.82 236.415 191.298 235.732 191.466 234.666Z" fill="#FF6584"/>
<path d="M182.897 228.613C182.905 227.635 182.315 226.837 181.579 226.832C180.843 226.827 180.24 227.616 180.232 228.595C180.224 229.574 180.814 230.371 181.55 230.377C182.286 230.382 182.889 229.592 182.897 228.613Z" fill="#E6E6E6"/>
<path d="M179.991 217.342C179.999 216.363 179.409 215.565 178.673 215.56C177.937 215.555 177.334 216.344 177.326 217.323C177.318 218.302 177.908 219.1 178.644 219.105C179.38 219.11 179.983 218.321 179.991 217.342Z" fill="#3F3D56"/>
<path d="M202.59 237.179C202.598 236.2 202.007 235.403 201.272 235.398C200.536 235.392 199.933 236.182 199.925 237.161C199.917 238.14 200.507 238.937 201.243 238.942C201.978 238.948 202.582 238.158 202.59 237.179Z" fill="#E6E6E6"/>
<path d="M193.059 241.583C193.067 240.604 192.477 239.806 191.741 239.801C191.005 239.796 190.402 240.585 190.394 241.564C190.386 242.543 190.976 243.341 191.712 243.346C192.448 243.351 193.051 242.562 193.059 241.583Z" fill="#FF6584"/>
<path d="M206.326 249.72C206.334 248.741 205.744 247.944 205.008 247.939C204.272 247.934 203.669 248.723 203.661 249.702C203.653 250.681 204.243 251.478 204.979 251.483C205.715 251.489 206.318 250.699 206.326 249.72Z" fill="#3F3D56"/>
</g>
<defs>
<filter id="filter0_d_342_80" x="328.551" y="320.08" width="911.897" height="122.84" filterUnits="userSpaceOnUse" color-interpolation-filters="sRGB">
<feFlood flood-opacity="0" result="BackgroundImageFix"/>
<feColorMatrix in="SourceAlpha" type="matrix" values="0 0 0 0 0 0 0 0 0 0 0 0 0 0 0 0 0 0 127 0" result="hardAlpha"/>
<feOffset dx="2" dy="2"/>
<feGaussianBlur stdDeviation="2"/>
<feComposite in2="hardAlpha" operator="out"/>
<feColorMatrix type="matrix" values="0 0 0 0 0 0 0 0 0 0 0 0 0 0 0 0 0 0 0.25 0"/>
<feBlend mode="normal" in2="BackgroundImageFix" result="effect1_dropShadow_342_80"/>
<feBlend mode="normal" in="SourceGraphic" in2="effect1_dropShadow_342_80" result="shape"/>
</filter>
<clipPath id="clip0_342_80">
<rect width="246" height="260" fill="white" transform="translate(44 191)"/>
</clipPath>
</defs>
</svg>
