<svg width="1287" height="560" viewBox="0 0 1287 560" fill="none" xmlns="http://www.w3.org/2000/svg">
<rect width="1287" height="560" fill="#23160E"/>
<g clip-path="url(#clip0_352_3)">
<path d="M162.053 434.912L161.74 428.389C161.707 428.373 161.675 428.357 161.642 428.341C158.283 426.71 154.432 429.663 155.505 433.03C156.515 436.198 157.193 439.614 159.041 442.387C160.133 443.997 161.603 445.36 163.341 446.374C165.08 447.388 167.042 448.026 169.084 448.243L173.352 450.661C173.937 447.64 173.808 444.537 172.973 441.566C172.138 438.596 170.617 435.828 168.515 433.454C167.321 432.133 165.953 430.956 164.441 429.951C163.419 432.445 162.053 434.912 162.053 434.912Z" fill="#28D84B"/>
<path d="M123.841 368.714C115.624 360.872 103.716 356.375 91.1706 356.375L90.6867 356.376C82.4235 356.379 74.3078 354.351 67.1695 350.499L66.4267 350.099L67.025 349.528C70.2639 346.428 72.9684 342.885 75.0437 339.023C73.5698 340.295 71.8118 341.251 69.8942 341.824C67.9766 342.397 65.9463 342.574 63.947 342.34C61.8362 342.107 59.8098 341.435 58.0197 340.374C56.2297 339.313 54.7225 337.891 53.6113 336.214C49.2266 329.631 44 320.29 44 313.174C44.0068 307.16 45.3678 301.212 47.9962 295.711C50.6247 290.21 54.4628 285.276 59.2661 281.223C62.307 278.686 64.7359 275.584 66.3945 272.12C68.053 268.656 68.9039 264.908 68.8918 261.119L68.8894 260.579C68.8886 255.591 69.5473 250.622 70.851 245.782L70.9833 245.293L71.5268 245.31C75.0313 245.421 78.5377 245.149 81.9735 244.5C78.7507 244.135 75.5979 243.359 72.6046 242.195L72.02 241.976L72.2184 241.421C85.8955 233.585 116.769 237.643 134.688 199.705C149.219 168.942 200.487 227.013 200.487 260.58C200.487 264.005 196.824 268.531 199.566 270.794C229.209 295.266 208.756 310.98 202.307 326.793C200.777 330.544 204.095 334.663 204.095 338.722C204.095 339.41 204.076 340.121 204.038 340.835L203.981 341.931L202.993 341.323C201.038 340.138 199.225 338.762 197.587 337.219C199.287 340.839 200.088 344.766 199.931 348.71C199.774 352.655 198.664 356.516 196.682 360.011C193.575 365.437 190.57 369.321 187.749 371.555C178.713 378.711 167.065 382.402 155.185 381.873C143.306 381.345 132.094 376.638 123.841 368.714Z" fill="#0FDD57"/>
<path d="M173.47 450.339C173.672 450.338 173.867 450.271 174.02 450.148C174.172 450.026 174.272 449.856 174.3 449.671C174.336 449.439 177.83 426.122 174.692 395.131C171.794 366.511 162.487 325.288 134.609 291.432C134.542 291.351 134.459 291.282 134.363 291.231C134.268 291.179 134.163 291.146 134.053 291.132C133.944 291.118 133.833 291.125 133.726 291.151C133.619 291.177 133.519 291.222 133.431 291.284C133.344 291.346 133.27 291.423 133.214 291.511C133.159 291.6 133.123 291.697 133.108 291.798C133.093 291.9 133.1 292.003 133.129 292.101C133.157 292.2 133.206 292.293 133.273 292.374C160.911 325.937 170.142 366.858 173.02 395.276C176.14 426.086 172.673 449.222 172.638 449.452C172.621 449.562 172.63 449.675 172.664 449.782C172.698 449.888 172.756 449.987 172.835 450.071C172.914 450.155 173.012 450.223 173.121 450.269C173.231 450.315 173.35 450.339 173.47 450.339Z" fill="#3F3D56"/>
<path d="M150.719 339.188C150.897 339.188 151.07 339.136 151.213 339.039C151.357 338.943 151.464 338.807 151.518 338.651C151.573 338.495 151.573 338.327 151.519 338.171C151.464 338.015 151.357 337.879 151.214 337.782C151.112 337.714 140.914 330.914 125.667 325.748C111.572 320.973 90.1386 316.644 68.0735 323.143C67.9683 323.174 67.8707 323.223 67.7863 323.289C67.7018 323.355 67.6322 323.435 67.5814 323.526C67.5307 323.617 67.4997 323.716 67.4903 323.817C67.481 323.919 67.4934 324.022 67.5268 324.119C67.5603 324.216 67.6142 324.307 67.6854 324.385C67.7566 324.463 67.8437 324.527 67.9418 324.574C68.0398 324.621 68.1469 324.649 68.2569 324.658C68.3669 324.666 68.4776 324.654 68.5827 324.623C90.1958 318.259 111.24 322.516 125.089 327.208C140.119 332.3 150.127 338.972 150.226 339.039C150.37 339.136 150.542 339.188 150.719 339.188Z" fill="#3F3D56"/>
<path d="M189.147 250.624C189.16 250.46 189.117 250.297 189.023 250.157C188.929 250.018 188.791 249.909 188.626 249.847C188.462 249.786 188.281 249.773 188.109 249.813C187.936 249.852 187.782 249.941 187.668 250.066C187.587 250.155 179.523 259.078 172.857 272.778C166.695 285.443 160.486 304.912 165.901 325.745C165.953 325.945 166.089 326.118 166.279 326.226C166.469 326.334 166.697 326.367 166.914 326.319C167.13 326.271 167.317 326.145 167.433 325.969C167.549 325.793 167.586 325.582 167.533 325.382C162.23 304.976 168.334 285.86 174.388 273.416C180.959 259.911 188.872 251.155 188.951 251.068C189.066 250.943 189.134 250.787 189.147 250.624Z" fill="#3F3D56"/>
<path d="M188.011 290.685C188.72 295.974 192.68 300.334 198.439 300.334C201.205 300.334 203.857 299.318 205.813 297.508C207.768 295.699 208.867 293.244 208.867 290.685C208.867 285.356 204.174 281.528 198.439 281.036C192.354 280.513 187.102 283.895 188.011 290.685Z" fill="#2F2E41"/>
<path d="M203.268 446.089L207.239 446.089L209.128 431.915L203.268 431.915L203.268 446.089Z" fill="#FFB6B6"/>
<path d="M203.129 449.922L215.341 449.921V449.778C215.341 448.612 214.84 447.493 213.948 446.669C213.057 445.844 211.848 445.38 210.588 445.38L208.357 443.814L204.195 445.381L203.129 445.381L203.129 449.922Z" fill="#2F2E41"/>
<path d="M187.627 446.089L191.598 446.089L193.487 431.915L187.626 431.915L187.627 446.089Z" fill="#FFB6B6"/>
<path d="M187.488 449.922L199.699 449.921V449.778C199.699 448.612 199.198 447.493 198.307 446.669C197.415 445.844 196.207 445.38 194.946 445.38L192.715 443.814L188.553 445.381L187.487 445.381L187.488 449.922Z" fill="#2F2E41"/>
<path d="M216.934 357.317L219.742 366.224L216.434 403.948C216.434 403.948 218.137 406.307 216.934 406.307C215.731 406.307 214.188 406.83 215.16 408.238C216.132 409.647 212.81 414.704 212.81 414.704L208.11 441.564L202.123 441.482C202.123 441.482 199.078 439.913 200.787 438.326C202.495 436.739 203.699 436.739 202.094 435.255C200.49 433.77 200.49 434.217 200.49 433.066C200.49 431.915 198.883 417.844 202.694 412.446L201.546 390.44L198.841 412.025L193.271 440.822L187.502 440.778C187.502 440.778 184.838 438.401 184.843 436.643C184.848 434.884 186.489 434.737 185.268 433.697C184.046 432.657 184.046 416.675 187.656 407.791C187.656 407.791 189.697 402.828 187.651 401.127C185.604 399.426 187.648 397.48 187.648 397.48C187.648 397.48 190.89 396.396 187.645 393.272C184.401 390.148 187.628 368.054 187.628 368.054C187.628 368.054 184.081 359.135 187.673 355.628C191.265 352.121 216.934 357.317 216.934 357.317Z" fill="#2F2E41"/>
<path d="M166.93 372.664L171.939 361.462L175.886 363.491L173.502 374.886C173.741 375.608 173.757 376.377 173.549 377.107C173.342 377.837 172.918 378.499 172.326 379.018C171.734 379.537 170.997 379.894 170.198 380.047C169.399 380.2 168.57 380.144 167.803 379.885C167.037 379.626 166.364 379.174 165.86 378.58C165.356 377.987 165.041 377.275 164.95 376.524C164.859 375.774 164.997 375.015 165.346 374.333C165.696 373.651 166.244 373.073 166.93 372.664Z" fill="#FFB6B6"/>
<path d="M250.985 284.086L243.364 293.946L240.017 291.142L245.128 280.543C245.072 279.79 245.245 279.038 245.626 278.37C246.007 277.703 246.582 277.147 247.286 276.765C247.99 276.383 248.795 276.191 249.61 276.209C250.426 276.228 251.22 276.456 251.903 276.869C252.586 277.282 253.131 277.863 253.476 278.547C253.822 279.231 253.954 279.991 253.859 280.74C253.764 281.49 253.444 282.2 252.937 282.791C252.429 283.382 251.753 283.831 250.985 284.086Z" fill="#FFB6B6"/>
<path d="M217.691 358.231C222.634 365.326 197.785 374.33 188.25 370.715C186.58 370.082 180.837 367.992 184.763 365.093C188.689 362.194 184.308 361.786 184.204 359.899C184.135 358.638 185.191 355.87 184.089 355.989C182.988 356.108 181.699 354.363 184.098 353.612C186.496 352.862 184.123 352.177 184.144 351.464C184.374 343.687 190.822 331.317 190.822 331.317L179.203 358.802C179.203 358.802 179.288 363.557 177.807 362.104C176.325 360.65 176.433 365.353 176.433 365.353C176.433 365.353 174.229 366.776 175.496 367.568C176.763 368.36 174.132 370.795 174.132 370.795L167.993 370.389C167.993 370.389 168.089 366.169 169.137 365.236C170.186 364.302 169.671 362.834 169.671 362.834C169.671 362.834 172.4 360.598 170.57 358.783C168.217 356.449 176.797 317.02 179.757 317.41C180.176 315.525 181.15 313.784 182.571 312.379C183.992 310.974 185.806 309.96 187.811 309.449L194.442 307.76L195.619 303.437H204.956L206.582 306.277L213.68 309.241C215.017 307.496 216.016 305.656 221.491 305.06C221.491 305.06 236.244 292.639 235.523 291.67C234.803 290.7 237.09 288.429 237.09 288.429C237.09 288.429 239.043 287.838 237.941 287.522C236.839 287.206 238.922 286.476 238.922 286.476C238.922 286.476 240.851 286.007 239.941 285.389C239.031 284.771 242.978 284.366 242.978 284.366L248.098 288.232L247.064 289.856C247.064 289.856 247.695 292.067 246.871 291.26C246.048 290.452 245.892 292.795 245.892 292.795C245.892 292.795 245.472 295.36 242.978 296.133C240.484 296.906 238.593 304.248 238.593 304.248C232.711 311.325 225.77 316.845 217.545 320.479C220.75 323.884 217.691 358.231 217.691 358.231Z" fill="#6C63FF"/>
<path d="M199.592 300.907C204.699 300.907 208.839 297.076 208.839 292.351C208.839 287.625 204.699 283.794 199.592 283.794C194.485 283.794 190.345 287.625 190.345 292.351C190.345 297.076 194.485 300.907 199.592 300.907Z" fill="#FFB6B6"/>
<path d="M190.016 293.283C190.309 295.142 192.022 297.736 191.621 297.736C191.22 297.736 188.368 290.071 191.22 289.571C193.288 289.209 193.75 289.527 195.684 288.751L195.411 288.989C196.69 289.85 198.471 289.319 199.931 288.759C201.395 288.202 203.172 287.671 204.455 288.529C205.261 289.067 205.602 290.002 206.103 290.796C206.605 291.594 207.531 292.348 208.486 292.103C209.252 291.906 209.693 291.112 209.689 290.377C209.685 289.642 208.651 288.943 208.999 288.284C210.031 286.33 209.103 284.998 206.853 284.079C206.035 283.964 205.217 283.846 204.399 283.726C204.828 283.177 205.347 282.693 205.939 282.294C205.689 281.701 205.257 281.188 204.696 280.82C204.042 280.46 203.232 280.486 202.474 280.523C200.781 280.605 199.09 280.687 197.4 280.768C196.149 280.828 194.853 280.898 193.734 281.429C192.339 282.093 191.424 283.388 190.758 284.706C189.266 287.668 189.503 290.05 190.016 293.283Z" fill="#2F2E41"/>
<path d="M151.549 450.886L242.492 451C242.619 451 242.741 450.953 242.83 450.87C242.92 450.788 242.97 450.675 242.97 450.558C242.97 450.441 242.92 450.328 242.83 450.245C242.741 450.163 242.619 450.116 242.492 450.116L151.549 450.002C151.422 450.002 151.301 450.049 151.211 450.131C151.122 450.214 151.071 450.327 151.071 450.444C151.071 450.561 151.122 450.673 151.211 450.756C151.301 450.839 151.422 450.886 151.549 450.886Z" fill="#CACACA"/>
<path d="M118.657 412.366C118.825 411.299 117.618 410.254 115.962 410.031C114.305 409.808 112.827 410.492 112.659 411.558C112.491 412.624 113.698 413.67 115.355 413.893C117.011 414.116 118.49 413.432 118.657 412.366Z" fill="#E6E6E6"/>
<path d="M138.378 410.585C138.546 409.519 137.339 408.474 135.682 408.251C134.026 408.028 132.547 408.711 132.38 409.777C132.212 410.844 133.419 411.889 135.075 412.112C136.732 412.335 138.21 411.651 138.378 410.585Z" fill="#3F3D56"/>
<path d="M113.257 397.592C113.425 396.526 112.218 395.48 110.561 395.257C108.905 395.034 107.426 395.718 107.259 396.784C107.091 397.85 108.298 398.896 109.954 399.119C111.611 399.342 113.089 398.658 113.257 397.592Z" fill="#FF6584"/>
<path d="M104.687 391.54C104.695 390.561 104.105 389.764 103.369 389.758C102.633 389.753 102.03 390.543 102.022 391.522C102.014 392.5 102.604 393.298 103.34 393.303C104.076 393.308 104.679 392.519 104.687 391.54Z" fill="#E6E6E6"/>
<path d="M101.781 380.268C101.789 379.289 101.199 378.492 100.463 378.487C99.7271 378.481 99.124 379.271 99.116 380.25C99.108 381.228 99.6981 382.026 100.434 382.031C101.17 382.036 101.773 381.247 101.781 380.268Z" fill="#3F3D56"/>
<path d="M124.38 400.106C124.388 399.127 123.798 398.33 123.062 398.324C122.326 398.319 121.723 399.109 121.715 400.087C121.707 401.066 122.297 401.864 123.033 401.869C123.769 401.874 124.372 401.085 124.38 400.106Z" fill="#E6E6E6"/>
<path d="M114.849 404.509C114.857 403.53 114.267 402.732 113.531 402.727C112.795 402.722 112.192 403.511 112.184 404.49C112.176 405.469 112.766 406.267 113.502 406.272C114.238 406.277 114.841 405.488 114.849 404.509Z" fill="#FF6584"/>
<path d="M128.116 412.647C128.124 411.668 127.534 410.871 126.798 410.865C126.062 410.86 125.459 411.65 125.451 412.628C125.443 413.607 126.033 414.405 126.769 414.41C127.505 414.415 128.108 413.626 128.116 412.647Z" fill="#3F3D56"/>
<path d="M270.263 355.212C270.431 354.146 269.224 353.1 267.567 352.877C265.911 352.654 264.432 353.338 264.265 354.404C264.097 355.471 265.304 356.516 266.96 356.739C268.617 356.962 270.095 356.278 270.263 355.212Z" fill="#E6E6E6"/>
<path d="M289.985 353.431C290.152 352.365 288.945 351.32 287.289 351.097C285.633 350.874 284.154 351.557 283.986 352.624C283.819 353.69 285.025 354.735 286.682 354.958C288.338 355.181 289.817 354.497 289.985 353.431Z" fill="#3F3D56"/>
<path d="M264.863 340.437C265.03 339.371 263.823 338.326 262.167 338.103C260.51 337.88 259.032 338.564 258.864 339.63C258.696 340.696 259.903 341.741 261.56 341.964C263.216 342.187 264.695 341.504 264.863 340.437Z" fill="#FF6584"/>
<path d="M256.294 334.386C256.302 333.407 255.712 332.609 254.976 332.604C254.24 332.599 253.637 333.388 253.629 334.367C253.621 335.346 254.211 336.144 254.947 336.149C255.683 336.154 256.286 335.365 256.294 334.386Z" fill="#E6E6E6"/>
<path d="M253.387 323.114C253.395 322.135 252.805 321.337 252.069 321.332C251.334 321.327 250.73 322.116 250.722 323.095C250.714 324.074 251.305 324.872 252.04 324.877C252.776 324.882 253.379 324.093 253.387 323.114Z" fill="#3F3D56"/>
<path d="M275.986 342.952C275.994 341.973 275.404 341.175 274.668 341.17C273.932 341.165 273.329 341.954 273.321 342.933C273.313 343.912 273.903 344.71 274.639 344.715C275.375 344.72 275.978 343.931 275.986 342.952Z" fill="#E6E6E6"/>
<path d="M266.456 347.355C266.464 346.376 265.874 345.578 265.138 345.573C264.402 345.568 263.799 346.357 263.791 347.336C263.783 348.315 264.373 349.113 265.109 349.118C265.845 349.123 266.448 348.334 266.456 347.355Z" fill="#FF6584"/>
<path d="M279.722 355.493C279.73 354.514 279.14 353.716 278.404 353.711C277.669 353.706 277.065 354.495 277.057 355.474C277.049 356.453 277.64 357.251 278.375 357.256C279.111 357.261 279.714 356.472 279.722 355.493Z" fill="#3F3D56"/>
<path d="M196.866 249.439C197.034 248.373 195.827 247.328 194.171 247.105C192.514 246.882 191.036 247.566 190.868 248.632C190.7 249.698 191.907 250.743 193.564 250.966C195.22 251.189 196.699 250.506 196.866 249.439Z" fill="white"/>
<path d="M216.588 247.659C216.756 246.592 215.549 245.547 213.892 245.324C212.236 245.101 210.757 245.785 210.59 246.851C210.422 247.917 211.629 248.963 213.285 249.186C214.942 249.409 216.42 248.725 216.588 247.659Z" fill="#3F3D56"/>
<path d="M191.466 234.666C191.634 233.599 190.427 232.554 188.77 232.331C187.114 232.108 185.635 232.792 185.468 233.858C185.3 234.924 186.507 235.969 188.163 236.192C189.82 236.415 191.298 235.732 191.466 234.666Z" fill="#FF6584"/>
<path d="M182.897 228.613C182.905 227.635 182.315 226.837 181.579 226.832C180.843 226.827 180.24 227.616 180.232 228.595C180.224 229.574 180.814 230.371 181.55 230.377C182.286 230.382 182.889 229.592 182.897 228.613Z" fill="#E6E6E6"/>
<path d="M179.991 217.342C179.999 216.363 179.409 215.565 178.673 215.56C177.937 215.555 177.334 216.344 177.326 217.323C177.318 218.302 177.908 219.1 178.644 219.105C179.38 219.11 179.983 218.321 179.991 217.342Z" fill="#3F3D56"/>
<path d="M202.59 237.179C202.598 236.2 202.007 235.403 201.272 235.398C200.536 235.392 199.933 236.182 199.925 237.161C199.917 238.14 200.507 238.937 201.243 238.942C201.978 238.948 202.582 238.158 202.59 237.179Z" fill="#E6E6E6"/>
<path d="M193.059 241.583C193.067 240.604 192.477 239.806 191.741 239.801C191.005 239.796 190.402 240.585 190.394 241.564C190.386 242.543 190.976 243.341 191.712 243.346C192.448 243.351 193.051 242.562 193.059 241.583Z" fill="#FF6584"/>
<path d="M206.326 249.72C206.334 248.741 205.744 247.944 205.008 247.939C204.272 247.934 203.669 248.723 203.661 249.702C203.653 250.681 204.243 251.478 204.979 251.483C205.715 251.489 206.318 250.699 206.326 249.72Z" fill="#3F3D56"/>
</g>
<defs>
<clipPath id="clip0_352_3">
<rect width="246" height="260" fill="white" transform="translate(44 191)"/>
</clipPath>
</defs>
</svg>
