<svg width="1440" height="516" viewBox="0 0 1440 516" fill="none" xmlns="http://www.w3.org/2000/svg">
<rect width="1440" height="516" fill="black"/>
<path d="M372.761 269.55L350.101 346H335.911L319.851 288.14L302.801 346L288.721 346.11L267.051 269.55H280.361L296.201 331.81L313.361 269.55H327.441L343.391 331.48L359.341 269.55H372.761ZM378.924 315.42C378.924 309.333 380.17 303.943 382.664 299.25C385.23 294.557 388.677 290.927 393.004 288.36C397.404 285.72 402.244 284.4 407.524 284.4C412.29 284.4 416.434 285.353 419.954 287.26C423.547 289.093 426.407 291.403 428.534 294.19V285.39H441.184V346H428.534V336.98C426.407 339.84 423.51 342.223 419.844 344.13C416.177 346.037 411.997 346.99 407.304 346.99C402.097 346.99 397.33 345.67 393.004 343.03C388.677 340.317 385.23 336.577 382.664 331.81C380.17 326.97 378.924 321.507 378.924 315.42ZM428.534 315.64C428.534 311.46 427.654 307.83 425.894 304.75C424.207 301.67 421.97 299.323 419.184 297.71C416.397 296.097 413.39 295.29 410.164 295.29C406.937 295.29 403.93 296.097 401.144 297.71C398.357 299.25 396.084 301.56 394.324 304.64C392.637 307.647 391.794 311.24 391.794 315.42C391.794 319.6 392.637 323.267 394.324 326.42C396.084 329.573 398.357 331.993 401.144 333.68C404.004 335.293 407.01 336.1 410.164 336.1C413.39 336.1 416.397 335.293 419.184 333.68C421.97 332.067 424.207 329.72 425.894 326.64C427.654 323.487 428.534 319.82 428.534 315.64ZM472.284 295.62V329.17C472.284 331.443 472.798 333.093 473.824 334.12C474.924 335.073 476.758 335.55 479.324 335.55H487.024V346H477.124C471.478 346 467.151 344.68 464.144 342.04C461.138 339.4 459.634 335.11 459.634 329.17V295.62H452.484V285.39H459.634V270.32H472.284V285.39H487.024V295.62H472.284ZM554.132 314.21C554.132 316.483 553.985 318.537 553.692 320.37H507.382C507.749 325.21 509.545 329.097 512.772 332.03C515.999 334.963 519.959 336.43 524.652 336.43C531.399 336.43 536.165 333.607 538.952 327.96H552.482C550.649 333.533 547.312 338.117 542.472 341.71C537.705 345.23 531.765 346.99 524.652 346.99C518.859 346.99 513.652 345.707 509.032 343.14C504.485 340.5 500.892 336.833 498.252 332.14C495.685 327.373 494.402 321.873 494.402 315.64C494.402 309.407 495.649 303.943 498.142 299.25C500.709 294.483 504.265 290.817 508.812 288.25C513.432 285.683 518.712 284.4 524.652 284.4C530.372 284.4 535.469 285.647 539.942 288.14C544.415 290.633 547.899 294.153 550.392 298.7C552.885 303.173 554.132 308.343 554.132 314.21ZM541.042 310.25C540.969 305.63 539.319 301.927 536.092 299.14C532.865 296.353 528.869 294.96 524.102 294.96C519.775 294.96 516.072 296.353 512.992 299.14C509.912 301.853 508.079 305.557 507.492 310.25H541.042ZM579.013 294.19C580.846 291.11 583.266 288.727 586.273 287.04C589.353 285.28 592.983 284.4 597.163 284.4V297.38H593.973C589.059 297.38 585.319 298.627 582.753 301.12C580.259 303.613 579.013 307.94 579.013 314.1V346H566.473V285.39H579.013V294.19ZM655.219 300.9V311.46H610.009V300.9H655.219ZM719.125 330.38H687.115L681.615 346H668.525L695.915 269.44H710.435L737.825 346H724.625L719.125 330.38ZM715.605 320.15L703.175 284.62L690.635 320.15H715.605ZM774.154 284.4C778.848 284.4 782.991 285.353 786.584 287.26C790.251 289.093 793.111 291.403 795.164 294.19V285.39H807.814V346.99C807.814 352.563 806.641 357.513 804.294 361.84C801.948 366.24 798.538 369.687 794.064 372.18C789.664 374.673 784.384 375.92 778.224 375.92C770.011 375.92 763.191 373.977 757.764 370.09C752.338 366.277 749.258 361.07 748.524 354.47H760.954C761.908 357.623 763.924 360.153 767.004 362.06C770.158 364.04 773.898 365.03 778.224 365.03C783.284 365.03 787.354 363.49 790.434 360.41C793.588 357.33 795.164 352.857 795.164 346.99V336.87C793.038 339.73 790.141 342.15 786.474 344.13C782.881 346.037 778.774 346.99 774.154 346.99C768.874 346.99 764.034 345.67 759.634 343.03C755.308 340.317 751.861 336.577 749.294 331.81C746.801 326.97 745.554 321.507 745.554 315.42C745.554 309.333 746.801 303.943 749.294 299.25C751.861 294.557 755.308 290.927 759.634 288.36C764.034 285.72 768.874 284.4 774.154 284.4ZM795.164 315.64C795.164 311.46 794.284 307.83 792.524 304.75C790.838 301.67 788.601 299.323 785.814 297.71C783.028 296.097 780.021 295.29 776.794 295.29C773.568 295.29 770.561 296.097 767.774 297.71C764.988 299.25 762.714 301.56 760.954 304.64C759.268 307.647 758.424 311.24 758.424 315.42C758.424 319.6 759.268 323.267 760.954 326.42C762.714 329.573 764.988 331.993 767.774 333.68C770.634 335.293 773.641 336.1 776.794 336.1C780.021 336.1 783.028 335.293 785.814 333.68C788.601 332.067 790.838 329.72 792.524 326.64C794.284 323.487 795.164 319.82 795.164 315.64ZM836.825 294.19C838.658 291.11 841.078 288.727 844.085 287.04C847.165 285.28 850.795 284.4 854.975 284.4V297.38H851.785C846.872 297.38 843.132 298.627 840.565 301.12C838.072 303.613 836.825 307.94 836.825 314.1V346H824.285V285.39H836.825V294.19ZM892.792 346.99C887.072 346.99 881.902 345.707 877.282 343.14C872.662 340.5 869.032 336.833 866.392 332.14C863.752 327.373 862.432 321.873 862.432 315.64C862.432 309.48 863.789 304.017 866.502 299.25C869.215 294.483 872.919 290.817 877.612 288.25C882.305 285.683 887.549 284.4 893.342 284.4C899.135 284.4 904.379 285.683 909.072 288.25C913.765 290.817 917.469 294.483 920.182 299.25C922.895 304.017 924.252 309.48 924.252 315.64C924.252 321.8 922.859 327.263 920.072 332.03C917.285 336.797 913.472 340.5 908.632 343.14C903.865 345.707 898.585 346.99 892.792 346.99ZM892.792 336.1C896.019 336.1 899.025 335.33 901.812 333.79C904.672 332.25 906.982 329.94 908.742 326.86C910.502 323.78 911.382 320.04 911.382 315.64C911.382 311.24 910.539 307.537 908.852 304.53C907.165 301.45 904.929 299.14 902.142 297.6C899.355 296.06 896.349 295.29 893.122 295.29C889.895 295.29 886.889 296.06 884.102 297.6C881.389 299.14 879.225 301.45 877.612 304.53C875.999 307.537 875.192 311.24 875.192 315.64C875.192 322.167 876.842 327.227 880.142 330.82C883.515 334.34 887.732 336.1 892.792 336.1ZM983.178 300.9V311.46H937.968V300.9H983.178ZM1013.53 335.88H1039.38V346H1000.99V269.55H1013.53V335.88ZM1056.25 277.36C1053.98 277.36 1052.07 276.59 1050.53 275.05C1048.99 273.51 1048.22 271.603 1048.22 269.33C1048.22 267.057 1048.99 265.15 1050.53 263.61C1052.07 262.07 1053.98 261.3 1056.25 261.3C1058.45 261.3 1060.32 262.07 1061.86 263.61C1063.4 265.15 1064.17 267.057 1064.17 269.33C1064.17 271.603 1063.4 273.51 1061.86 275.05C1060.32 276.59 1058.45 277.36 1056.25 277.36ZM1062.41 285.39V346H1049.87V285.39H1062.41ZM1104.29 295.62H1093.07V346H1080.42V295.62H1073.27V285.39H1080.42V281.1C1080.42 274.133 1082.25 269.073 1085.92 265.92C1089.66 262.693 1095.49 261.08 1103.41 261.08V271.53C1099.59 271.53 1096.92 272.263 1095.38 273.73C1093.84 275.123 1093.07 277.58 1093.07 281.1V285.39H1104.29V295.62ZM1170.95 314.21C1170.95 316.483 1170.8 318.537 1170.51 320.37H1124.2C1124.57 325.21 1126.36 329.097 1129.59 332.03C1132.82 334.963 1136.78 336.43 1141.47 336.43C1148.22 336.43 1152.98 333.607 1155.77 327.96H1169.3C1167.47 333.533 1164.13 338.117 1159.29 341.71C1154.52 345.23 1148.58 346.99 1141.47 346.99C1135.68 346.99 1130.47 345.707 1125.85 343.14C1121.3 340.5 1117.71 336.833 1115.07 332.14C1112.5 327.373 1111.22 321.873 1111.22 315.64C1111.22 309.407 1112.47 303.943 1114.96 299.25C1117.53 294.483 1121.08 290.817 1125.63 288.25C1130.25 285.683 1135.53 284.4 1141.47 284.4C1147.19 284.4 1152.29 285.647 1156.76 288.14C1161.23 290.633 1164.72 294.153 1167.21 298.7C1169.7 303.173 1170.95 308.343 1170.95 314.21ZM1157.86 310.25C1157.79 305.63 1156.14 301.927 1152.91 299.14C1149.68 296.353 1145.69 294.96 1140.92 294.96C1136.59 294.96 1132.89 296.353 1129.81 299.14C1126.73 301.853 1124.9 305.557 1124.31 310.25H1157.86Z" fill="url(#paint0_linear_336_31)" fill-opacity="0.53" style="mix-blend-mode:lighten"/>
<defs>
<linearGradient id="paint0_linear_336_31" x1="720" y1="225" x2="720" y2="390" gradientUnits="userSpaceOnUse">
<stop offset="0.384615" stop-color="#29B64D"/>
<stop offset="0.673077" stop-color="#125022"/>
</linearGradient>
</defs>
</svg>
