<svg width="1440" height="305" viewBox="0 0 1440 305" fill="none" xmlns="http://www.w3.org/2000/svg">
<path d="M0 174.867L34.5672 150.873C69.1344 127.015 138.269 95.84 207.082 69C276.055 42.16 340.026 56.2844 409 73.5C477.813 90.7156 571.187 161.04 640 174.867C708.974 188.693 818.026 120.862 887 113C955.813 105.138 1107.19 136.113 1176 147.5C1244.97 158.751 1404.27 154.087 1434.5 113C1464.73 71.9134 1408.21 111.274 1447 86C1485.79 60.7262 1447 0 1447 0V305H1412.43C1377.86 305 1308.73 305 1239.92 305C1170.94 305 1102.45 305 1033.48 305C964.666 305 895.532 305 826.719 305C757.745 305 689.254 305 620.28 305C551.468 305 482.333 305 413.52 305C344.547 305 276.055 305 207.082 305C138.269 305 69.1344 305 34.5672 305H0V174.867Z" fill="#23160E"/>
<g clip-path="url(#clip0_162_28)">
<path d="M389.488 235.171V235.174C389.282 235.323 389.065 235.467 388.841 235.602C385.106 237.851 382.554 239.428 377.958 240.248C369.306 241.789 360.623 243.201 351.909 244.483C334.908 246.987 317.817 249.011 300.634 250.553C265.76 253.698 230.669 254.813 195.612 253.892C183.938 253.586 172.678 253.26 161.98 248.926C154.16 245.759 147.59 240.753 142.684 234.765C137.709 228.693 134.684 221.508 133.653 214.125C136.076 213.236 138.649 212.672 141.28 212.455C150.41 211.723 159.395 214.536 167.698 217.808C176.004 221.078 184.159 224.901 193.152 226.409C206.404 228.633 220.084 225.609 232.789 221.737C245.495 217.866 258.002 213.085 271.402 211.623C289.374 209.66 307.408 213.814 324.859 217.928C343.448 222.309 362.037 226.691 380.627 231.073C383.284 231.698 386.04 232.368 388.111 233.9C388.625 234.28 389.086 234.706 389.488 235.171Z" fill="#49C362"/>
<path d="M389.487 235.171V235.173C389.281 235.323 389.065 235.467 388.841 235.602C386.5 237.01 384.624 238.157 382.421 239.017C374.845 239.644 367.26 240.187 359.664 240.646C340.114 241.825 320.525 242.452 300.899 242.527C261.083 242.698 219.221 243.747 184.36 227.482C172.76 222.069 155.957 233.168 144.465 227.233C141.153 225.517 138.075 223.5 135.287 221.217C134.534 218.89 133.988 216.52 133.653 214.125C132.73 207.655 133.381 201.095 135.564 194.844C136.62 191.853 138.061 188.968 139.862 186.24C145.2 187.852 150.32 190.172 155.193 192.629C164.13 197.129 172.82 202.24 182.772 204.817C197.442 208.616 213.312 206.527 228.199 203.385C243.085 200.243 257.871 196.057 273.213 195.704C293.789 195.231 313.594 201.675 332.747 208.017C351.962 214.379 371.179 220.741 390.398 227.103C390.821 228.068 391.198 229.048 391.531 230.041C392.21 232.062 391.225 233.891 389.487 235.171Z" fill="#00FF15" fill-opacity="0.4"/>
<path d="M202.144 153.009C199.25 151.368 199.533 147.778 202.593 146.367C202.656 146.338 202.717 146.308 202.777 146.278C202.93 145.66 203.083 145.042 203.237 144.424C204.14 145.213 205.915 145.064 206.615 144.141C204.174 139.763 200.965 135.718 197.095 132.142C196.251 131.359 195.778 130.343 195.764 129.286C195.751 128.229 196.198 127.204 197.021 126.406C197.036 126.391 197.05 126.377 197.065 126.362C199.25 125.741 201.32 124.862 203.211 123.752C196.725 114.987 184.357 108.023 181.417 98C172.573 105.988 171.58 108.802 162.735 116.79C162.735 116.79 154.361 123.146 152.553 126.561C152.997 126.954 156.974 127.895 157.127 128.667C160.159 128.871 165.412 126.076 165.412 126.076C165.412 126.076 153.946 136.357 150.464 142.69C150.151 143.261 149.853 143.912 150.116 144.5C150.326 144.97 151.078 145.24 151.562 145.054C150.984 145.523 150.519 146.083 150.194 146.702C151.204 147.244 152.403 147.484 153.595 147.383C154.788 147.282 155.905 146.846 156.766 146.145C156.281 146.907 155.797 147.669 155.312 148.431L155.312 148.432C155.968 148.612 156.556 148.933 157.018 149.363C157.481 149.792 157.802 150.316 157.95 150.882C158.099 151.448 158.069 152.037 157.864 152.591C157.659 153.144 157.285 153.643 156.781 154.038C153.772 156.391 151.022 158.866 150.015 160.495C149.067 162.028 158.799 163.875 160.988 163.8C163.177 163.724 165.223 162.915 167.2 162.121C167.103 162.879 167.276 163.644 167.695 164.32C168.778 164.541 169.902 164.578 171.002 164.429C172.102 164.279 173.155 163.946 174.1 163.449C174.012 164.966 176.286 165.803 177.865 165.374C177.077 175.858 177.653 190.582 178.41 205.866H180.289V165.978C180.788 166.191 181.323 166.341 181.875 166.422C185.718 166.995 190.355 167.344 192.856 164.824C195.734 167.265 201.008 167.218 203.87 164.786C203.588 165.206 204.019 165.912 204.657 166.023C205.408 166.154 206.139 165.779 206.777 165.42C209.665 163.796 212.553 162.172 215.441 160.548C211.877 158.527 206.814 155.657 202.144 153.009Z" fill="#00FF15" fill-opacity="0.7"/>
<path d="M288.839 148.129C293.847 148.129 297.908 144.714 297.908 140.502C297.908 136.289 293.847 132.874 288.839 132.874C283.83 132.874 279.77 136.289 279.77 140.502C279.77 144.714 283.83 148.129 288.839 148.129Z" fill="#FEB631"/>
<path d="M309.137 136.89C308.613 135.412 307.131 134.448 305.34 134.236C305.32 134.234 305.302 134.237 305.282 134.236C305.257 134.229 305.231 134.224 305.205 134.221C302.668 133.961 300.102 134.431 297.923 135.554C295.824 136.656 293.378 137.155 290.905 137.236C290.891 137.236 290.876 137.237 290.862 137.237C289.943 137.289 289.065 137.577 288.347 138.063C287.63 138.55 287.109 139.21 286.854 139.954C286.827 140.045 286.835 140.141 286.877 140.228C286.919 140.316 286.993 140.389 287.088 140.438C287.362 140.634 287.686 140.772 288.035 140.843C288.789 140.977 289.544 141.1 290.303 141.212C291.783 141.429 293.271 141.606 294.767 141.74C297.803 142.014 300.858 142.111 303.91 142.031C304.926 142.004 305.906 141.976 306.838 141.598C307.515 141.317 308.094 140.892 308.517 140.366C308.916 139.859 309.178 139.286 309.285 138.686C309.392 138.085 309.342 137.472 309.137 136.89Z" fill="#E6E6E6"/>
<path d="M290.289 147.06C289.764 145.583 288.282 144.618 286.492 144.406C286.472 144.404 286.453 144.407 286.433 144.406C286.408 144.4 286.382 144.395 286.356 144.391C283.82 144.131 281.253 144.601 279.074 145.724C276.975 146.826 274.53 147.325 272.057 147.406C272.042 147.406 272.028 147.407 272.013 147.408C271.094 147.459 270.216 147.748 269.499 148.234C268.782 148.72 268.26 149.38 268.005 150.125C267.978 150.216 267.986 150.312 268.028 150.399C268.07 150.486 268.144 150.559 268.239 150.609C268.513 150.804 268.838 150.942 269.187 151.013C269.94 151.147 270.696 151.27 271.454 151.382C272.934 151.6 274.422 151.776 275.918 151.91C278.954 152.184 282.009 152.281 285.061 152.201C286.077 152.174 287.058 152.146 287.989 151.769C288.667 151.487 289.245 151.062 289.669 150.536C290.067 150.03 290.33 149.456 290.437 148.856C290.544 148.256 290.493 147.643 290.289 147.06Z" fill="white"/>
<path d="M367.035 178.905C364.142 177.264 364.425 173.674 367.485 172.263C367.547 172.234 367.608 172.205 367.668 172.174C367.822 171.556 367.975 170.938 368.128 170.321C369.031 171.109 370.806 170.96 371.506 170.037C369.066 165.659 365.857 161.614 361.986 158.038C361.143 157.255 360.669 156.239 360.656 155.182C360.642 154.125 361.089 153.101 361.912 152.302C361.927 152.288 361.942 152.273 361.956 152.258C364.142 151.638 366.211 150.759 368.103 149.648C361.617 140.883 349.248 133.92 346.308 123.896C337.464 131.885 336.471 134.698 327.627 142.686C327.627 142.686 319.252 149.042 317.445 152.458C317.889 152.85 321.865 153.792 322.018 154.563C325.051 154.768 330.304 151.972 330.304 151.972C330.304 151.972 318.837 162.254 315.356 168.587C315.043 169.157 314.745 169.808 315.007 170.396C315.217 170.866 315.969 171.137 316.454 170.95C315.875 171.42 315.41 171.979 315.086 172.598C316.096 173.14 317.294 173.381 318.487 173.28C319.679 173.179 320.797 172.742 321.658 172.041C321.173 172.803 320.688 173.565 320.203 174.327L320.204 174.329C320.859 174.509 321.447 174.83 321.91 175.259C322.372 175.689 322.694 176.213 322.842 176.779C322.99 177.345 322.96 177.934 322.755 178.487C322.55 179.04 322.177 179.539 321.673 179.934C318.664 182.288 315.914 184.762 314.907 186.391C313.959 187.924 323.69 189.772 325.879 189.696C328.068 189.62 330.114 188.811 332.091 188.017C331.995 188.776 332.167 189.541 332.587 190.217C333.669 190.438 334.794 190.474 335.893 190.325C336.993 190.175 338.046 189.842 338.991 189.346C338.904 190.862 341.178 191.699 342.756 191.27C341.968 201.755 342.545 216.478 343.302 231.762H345.18V191.874C345.68 192.087 346.215 192.237 346.767 192.318C350.61 192.892 355.247 193.241 357.748 190.72C360.626 193.161 365.9 193.115 368.761 190.682C368.48 191.102 368.911 191.808 369.548 191.919C370.3 192.051 371.031 191.675 371.669 191.316C374.557 189.692 377.445 188.068 380.333 186.444C376.769 184.424 371.706 181.553 367.035 178.905Z" fill="#0CF200" fill-opacity="0.73"/>
<path d="M149.023 219.567C149.211 219.574 149.398 219.532 149.557 219.448C149.716 219.363 149.841 219.239 149.914 219.093C149.986 218.946 150.004 218.785 149.964 218.63C149.924 218.475 149.828 218.334 149.689 218.226C149.666 218.149 149.65 218.093 149.626 218.016C149.635 217.999 149.643 217.982 149.652 217.965C149.841 217.588 150.159 217.267 150.565 217.042C150.971 216.816 151.448 216.697 151.934 216.698C152.421 216.7 152.896 216.822 153.3 217.05C153.705 217.278 154.02 217.601 154.206 217.979C154.951 219.488 155.899 221 156.133 222.595C156.236 223.301 156.192 224.015 156.005 224.708C157.754 221.498 158.663 218.009 158.669 214.478C158.669 213.592 158.61 212.707 158.493 211.826C158.396 211.104 158.262 210.388 158.09 209.676C157.153 205.815 155.139 202.196 152.215 199.116C150.8 198.466 149.656 197.468 148.937 196.255C148.676 195.819 148.492 195.353 148.39 194.872C148.549 194.89 148.712 194.901 148.871 194.91C148.921 194.912 148.973 194.914 149.023 194.916L149.042 194.917C149.217 194.924 149.391 194.888 149.543 194.813C149.694 194.738 149.817 194.629 149.896 194.497C149.975 194.365 150.007 194.216 149.988 194.07C149.969 193.923 149.9 193.784 149.79 193.669C149.721 193.598 149.652 193.526 149.583 193.455C149.478 193.345 149.371 193.237 149.266 193.127C149.254 193.117 149.243 193.106 149.232 193.094C149.112 192.969 148.992 192.845 148.871 192.72C149.091 192.433 149.386 192.193 149.735 192.018C150.941 191.424 152.605 191.835 153.477 192.753C154.351 193.671 154.516 194.958 154.212 196.105C153.914 197.081 153.42 198.007 152.752 198.843C152.817 198.913 152.885 198.982 152.951 199.052C154.147 200.345 155.189 201.734 156.063 203.199C155.85 201.558 156.104 199.899 156.803 198.357C157.511 196.919 158.839 195.709 160.008 194.467C161.412 192.974 164.292 193.626 164.539 195.517C164.541 195.536 164.544 195.554 164.546 195.572C164.372 195.655 164.202 195.742 164.036 195.835C163.827 195.952 163.665 196.12 163.572 196.316C163.478 196.512 163.457 196.727 163.511 196.934C163.566 197.14 163.693 197.328 163.876 197.472C164.06 197.617 164.291 197.711 164.539 197.744L164.564 197.747C164.502 198.273 164.393 198.795 164.237 199.307C163.786 200.738 162.987 202.075 161.893 203.233C160.798 204.392 159.43 205.349 157.876 206.042C157.774 206.086 157.674 206.13 157.572 206.172C158.04 207.282 158.415 208.418 158.692 209.572C158.94 210.59 159.113 211.62 159.21 212.656C159.329 213.961 159.322 215.272 159.189 216.576L159.197 216.53C159.532 215.08 160.452 213.771 161.801 212.825C163.805 211.441 166.636 210.931 168.797 209.818C169.027 209.694 169.294 209.628 169.567 209.628C169.84 209.627 170.108 209.692 170.338 209.815C170.569 209.938 170.752 210.114 170.868 210.322C170.983 210.531 171.025 210.762 170.99 210.99C170.987 211.006 170.984 211.022 170.981 211.038C170.659 211.149 170.345 211.276 170.041 211.419C169.868 211.501 169.698 211.589 169.531 211.681C169.322 211.799 169.161 211.967 169.067 212.163C168.973 212.359 168.952 212.574 169.007 212.78C169.061 212.987 169.188 213.174 169.372 213.319C169.555 213.463 169.786 213.558 170.034 213.59L170.06 213.594C170.078 213.596 170.094 213.598 170.112 213.6C169.561 214.706 168.789 215.724 167.828 216.609C166.64 217.68 165.205 218.537 163.61 219.125C162.016 219.714 160.295 220.022 158.553 220.031H158.551C158.078 221.759 157.393 223.441 156.507 225.049H149.206C149.18 224.981 149.156 224.911 149.133 224.842C149.809 224.878 150.487 224.844 151.153 224.741C150.611 224.182 150.07 223.619 149.528 223.06C149.516 223.049 149.505 223.038 149.494 223.027C149.219 222.741 148.942 222.457 148.667 222.171C148.652 221.294 148.772 220.418 149.023 219.567Z" fill="#7DDA93"/>
<path d="M366.59 225.559C366.778 225.567 366.964 225.525 367.124 225.44C367.283 225.355 367.407 225.231 367.48 225.085C367.553 224.939 367.57 224.777 367.53 224.622C367.49 224.467 367.394 224.327 367.256 224.219C367.233 224.141 367.216 224.086 367.193 224.008C367.201 223.991 367.21 223.975 367.218 223.958C367.408 223.581 367.726 223.26 368.132 223.034C368.538 222.809 369.014 222.689 369.501 222.691C369.987 222.692 370.463 222.815 370.867 223.043C371.271 223.271 371.586 223.594 371.772 223.972C372.517 225.481 373.466 226.992 373.699 228.588C373.802 229.293 373.759 230.008 373.571 230.701C375.321 227.491 376.229 224.002 376.235 220.471C376.235 219.585 376.177 218.699 376.06 217.819C375.963 217.097 375.828 216.38 375.657 215.668C374.719 211.807 372.706 208.188 369.782 205.108C368.367 204.459 367.222 203.46 366.503 202.247C366.242 201.811 366.058 201.346 365.956 200.865C366.116 200.883 366.278 200.894 366.438 200.902C366.487 200.905 366.54 200.907 366.589 200.909L366.608 200.91C366.784 200.916 366.957 200.88 367.109 200.806C367.261 200.731 367.383 200.621 367.462 200.489C367.541 200.357 367.573 200.209 367.555 200.062C367.536 199.915 367.467 199.776 367.356 199.662C367.287 199.59 367.218 199.519 367.149 199.448C367.045 199.338 366.937 199.23 366.833 199.12C366.821 199.109 366.809 199.098 366.799 199.087C366.678 198.961 366.558 198.838 366.438 198.712C366.657 198.426 366.953 198.185 367.301 198.01C368.507 197.416 370.172 197.828 371.043 198.746C371.917 199.663 372.082 200.951 371.779 202.098C371.48 203.073 370.986 203.999 370.318 204.835C370.384 204.906 370.452 204.974 370.517 205.045C371.713 206.338 372.755 207.727 373.629 209.191C373.417 207.551 373.67 205.891 374.369 204.349C375.077 202.912 376.405 201.702 377.574 200.459C378.978 198.967 381.858 199.618 382.105 201.51C382.108 201.528 382.11 201.547 382.112 201.565C381.939 201.647 381.769 201.735 381.602 201.827C381.394 201.945 381.232 202.112 381.138 202.309C381.044 202.505 381.023 202.72 381.078 202.926C381.132 203.133 381.259 203.32 381.443 203.465C381.626 203.609 381.857 203.704 382.105 203.736L382.131 203.739C382.069 204.266 381.96 204.787 381.804 205.3C381.352 206.73 380.554 208.067 379.459 209.226C378.364 210.385 376.997 211.341 375.442 212.035C375.34 212.079 375.241 212.123 375.139 212.165C376.016 214.257 376.567 216.437 376.777 218.648C376.895 219.953 376.888 221.264 376.756 222.568L376.764 222.522C377.099 221.072 378.018 219.764 379.367 218.818C381.371 217.434 384.202 216.924 386.364 215.811C386.593 215.687 386.861 215.621 387.134 215.62C387.407 215.62 387.674 215.685 387.905 215.808C388.135 215.931 388.319 216.107 388.434 216.315C388.55 216.523 388.592 216.755 388.556 216.982C388.553 216.998 388.55 217.015 388.547 217.031C388.225 217.141 387.911 217.268 387.608 217.412C387.434 217.494 387.264 217.581 387.098 217.674C386.889 217.791 386.727 217.959 386.633 218.155C386.54 218.351 386.519 218.567 386.573 218.773C386.627 218.979 386.755 219.167 386.938 219.312C387.121 219.456 387.352 219.551 387.601 219.583L387.626 219.586C387.644 219.588 387.66 219.59 387.678 219.593C387.128 220.698 386.355 221.716 385.394 222.601C384.207 223.673 382.772 224.529 381.177 225.118C379.582 225.706 377.861 226.015 376.12 226.024H376.117C375.644 227.752 374.96 229.433 374.073 231.042H366.772C366.746 230.974 366.723 230.903 366.699 230.835C367.375 230.871 368.053 230.837 368.719 230.734C368.178 230.175 367.636 229.611 367.094 229.052C367.082 229.042 367.071 229.031 367.06 229.019C366.786 228.733 366.508 228.449 366.233 228.163L366.233 228.163C366.219 227.286 366.339 226.411 366.59 225.559Z" fill="#83FF97"/>
<path d="M279.817 207.796C280.005 207.803 280.192 207.761 280.351 207.676C280.51 207.592 280.635 207.468 280.708 207.321C280.78 207.175 280.798 207.014 280.758 206.859C280.718 206.704 280.622 206.563 280.483 206.455C280.46 206.378 280.444 206.322 280.42 206.245C280.429 206.228 280.437 206.211 280.445 206.194C280.635 205.817 280.953 205.496 281.359 205.27C281.765 205.045 282.242 204.926 282.728 204.927C283.215 204.929 283.69 205.051 284.094 205.279C284.499 205.507 284.814 205.83 285 206.208C285.745 207.717 286.693 209.229 286.927 210.824C287.03 211.529 286.986 212.244 286.799 212.937C288.548 209.727 289.457 206.238 289.463 202.707C289.463 201.821 289.404 200.936 289.287 200.055C289.19 199.333 289.056 198.616 288.884 197.905C287.946 194.044 285.933 190.424 283.009 187.345C281.594 186.695 280.45 185.697 279.731 184.484C279.47 184.047 279.286 183.582 279.184 183.101C279.343 183.119 279.505 183.13 279.665 183.139C279.715 183.141 279.767 183.143 279.817 183.145L279.836 183.146C280.011 183.153 280.185 183.117 280.337 183.042C280.488 182.967 280.611 182.857 280.69 182.726C280.769 182.594 280.801 182.445 280.782 182.299C280.763 182.152 280.694 182.013 280.584 181.898C280.515 181.827 280.446 181.755 280.377 181.684C280.272 181.574 280.165 181.466 280.06 181.356C280.048 181.346 280.037 181.335 280.026 181.323C279.906 181.198 279.785 181.074 279.665 180.949C279.885 180.662 280.18 180.422 280.529 180.247C281.735 179.652 283.399 180.064 284.271 180.982C285.145 181.9 285.31 183.187 285.006 184.334C284.708 185.31 284.214 186.235 283.546 187.072C283.611 187.142 283.679 187.21 283.745 187.281C284.941 188.574 285.983 189.963 286.857 191.427C286.644 189.787 286.898 188.127 287.597 186.585C288.305 185.148 289.633 183.938 290.802 182.696C292.206 181.203 295.086 181.855 295.333 183.746C295.335 183.765 295.338 183.783 295.34 183.801C295.166 183.884 294.996 183.971 294.83 184.064C294.621 184.181 294.459 184.349 294.366 184.545C294.272 184.741 294.251 184.956 294.305 185.163C294.36 185.369 294.487 185.557 294.67 185.701C294.854 185.846 295.085 185.94 295.333 185.972L295.358 185.976C295.296 186.502 295.187 187.024 295.031 187.536C294.579 188.967 293.781 190.303 292.687 191.462C291.592 192.621 290.224 193.577 288.67 194.271C288.568 194.315 288.468 194.359 288.366 194.401C289.244 196.493 289.795 198.673 290.004 200.885C290.123 202.19 290.116 203.501 289.983 204.805L289.991 204.758C290.326 203.308 291.246 202 292.595 201.054C294.599 199.67 297.43 199.16 299.591 198.047C299.821 197.923 300.088 197.857 300.361 197.857C300.634 197.856 300.902 197.921 301.132 198.044C301.362 198.167 301.546 198.343 301.662 198.551C301.777 198.759 301.819 198.991 301.784 199.219C301.781 199.235 301.778 199.251 301.775 199.267C301.452 199.378 301.139 199.505 300.835 199.648C300.662 199.73 300.492 199.818 300.325 199.91C300.116 200.028 299.955 200.195 299.861 200.392C299.767 200.588 299.746 200.803 299.801 201.009C299.855 201.216 299.982 201.403 300.165 201.548C300.349 201.692 300.58 201.787 300.828 201.819L300.854 201.822C300.872 201.825 300.888 201.827 300.906 201.829C300.355 202.935 299.583 203.952 298.621 204.838C297.434 205.909 295.999 206.765 294.404 207.354C292.81 207.943 291.089 208.251 289.347 208.26H289.345C288.872 209.988 288.187 211.67 287.301 213.278H280C279.974 213.21 279.95 213.14 279.927 213.071C280.603 213.107 281.281 213.073 281.947 212.97C281.405 212.411 280.864 211.848 280.322 211.289C280.31 211.278 280.298 211.267 280.288 211.256C280.013 210.969 279.736 210.686 279.461 210.399L279.461 210.399C279.446 209.522 279.566 208.647 279.817 207.796L279.817 207.796Z" fill="#ACF292" fill-opacity="0.99"/>
<path d="M233.426 254.458L236.481 253.694L234.461 243.19L229.951 244.317L233.426 254.458Z" fill="#FFB6B6"/>
<path d="M214.689 250.312C214.875 250.448 215.062 250.583 215.25 250.717C215.625 250.987 216.005 251.253 216.385 251.516C216.576 251.648 216.77 251.779 216.961 251.909L216.96 251.915L216.972 251.918L216.976 251.92L217.285 252.03L217.939 251.067L218.241 250.623L218.667 249.994L219.448 248.845L223.56 242.792L219.228 241.256L218.95 241.814L218.948 241.814L218.81 242.091L216.223 247.253L215.695 248.309L215.679 248.341L215.361 248.971L215.087 249.518L214.782 250.128L214.689 250.312Z" fill="#FFB6B6"/>
<path d="M192.055 224.116C192.268 224.54 192.488 224.963 192.71 225.383C193.123 226.165 193.553 226.938 193.999 227.702C193.999 227.704 194.001 227.704 194.003 227.706C194.289 228.013 194.617 228.29 194.98 228.533C194.995 228.545 195.013 228.555 195.028 228.566C195.295 228.742 195.588 228.889 195.899 229.004C196.011 229.044 196.125 229.085 196.238 229.125C196.643 229.265 197.047 229.393 197.45 229.511C198.168 229.72 198.884 229.897 199.6 230.042C199.657 230.055 199.715 230.066 199.773 230.078C202.723 230.659 205.685 230.75 208.81 230.668C210.353 230.629 211.936 230.547 213.575 230.461C214.111 230.432 214.648 230.405 215.192 230.378C215.233 230.376 215.276 230.373 215.32 230.372C216.097 230.333 216.886 230.298 217.694 230.267C218.71 230.228 219.757 230.198 220.842 230.183L220.532 231.424C220.288 232.378 219.872 233.295 219.297 234.143C218.637 235.191 218.116 236.021 218.525 237.948L218.721 238.881C218.45 239.295 218.297 239.756 218.274 240.228C218.251 240.7 218.358 241.171 218.587 241.602L218.643 241.705L214.403 247.743L214.128 248.134L215.678 248.341L217.584 248.596L220.816 249.027L226.96 241.78L227.254 241.435L227.257 241.415L229.623 226.232C229.642 226.098 229.655 225.961 229.659 225.825C229.688 225.207 229.571 224.591 229.314 224.012C229.057 223.433 228.665 222.903 228.162 222.453C227.68 222.018 227.101 221.669 226.457 221.424C225.813 221.18 225.118 221.045 224.412 221.029L222.783 220.99L219.456 220.91L217.112 220.855L217.065 220.854L210.152 220.689L209.98 218.957L209.896 218.917L207.21 217.658L197.919 213.303L197.895 213.293L197.284 213.007L197.187 213.102C197.158 213.13 197.129 213.159 197.102 213.187C196.279 214.069 195.565 215.019 194.971 216.022C193.982 217.659 193.105 219.342 192.343 221.063C192.31 221.137 192.28 221.205 192.254 221.266L192.244 221.285C192.232 221.314 192.224 221.333 192.221 221.338C191.844 222.104 191.819 223.097 192.055 224.116Z" fill="#2F2E41"/>
<path d="M192.688 218.489C192.74 218.38 192.801 218.272 192.864 218.167C193.353 217.374 193.893 216.604 194.483 215.861C195.147 215.014 195.921 214.115 196.824 213.151C197.26 212.684 197.726 212.2 198.222 211.699C198.47 211.448 198.727 211.192 198.993 210.933C199.003 210.921 199.015 210.909 199.027 210.898L199.103 210.822L208.656 213.22L208.651 214.32L209.344 215.879L209.297 215.925C209.299 215.923 209.299 215.925 209.297 215.925V215.711L209.551 215.925L212.014 218.484L212.031 218.484L217.534 218.615L223.206 218.75L226.252 218.823C226.958 218.839 227.653 218.974 228.297 219.218C228.941 219.463 229.521 219.812 230.002 220.247C230.505 220.698 230.897 221.228 231.154 221.807C231.411 222.386 231.528 223.002 231.499 223.619C231.495 223.745 231.483 223.873 231.466 223.998L233.226 229.986C234.279 233.567 234.683 237.262 234.425 240.945L235.445 246.773L235.146 246.757L230.705 246.516L229.532 246.453L227.576 242.989C227.353 242.594 227.146 242.191 226.96 241.781C226.654 241.112 226.398 240.426 226.194 239.729L222.764 227.977C222.327 227.982 221.894 227.984 221.467 227.984C219.487 227.99 217.595 227.958 215.788 227.888C209.914 227.661 204.907 227.037 200.544 225.985C199.319 225.69 198.142 225.361 197.016 224.997C196.602 224.864 196.195 224.727 195.795 224.584C195.701 224.552 195.608 224.52 195.516 224.486C194.69 224.184 193.966 223.713 193.412 223.115C192.857 222.517 192.49 221.811 192.344 221.063C192.165 220.195 192.284 219.302 192.688 218.489Z" fill="#2F2E41"/>
<path d="M232.826 252.707L236.132 251.877L236.651 251.747L237.121 253.439L242.308 255.149C242.564 255.234 242.782 255.385 242.929 255.581C243.076 255.777 243.145 256.007 243.125 256.238C243.106 256.469 242.999 256.689 242.82 256.865C242.641 257.041 242.4 257.165 242.132 257.218L236.542 258.32L235.113 256.837L235.203 258.584L233.097 259L232.022 252.909L232.826 252.707Z" fill="#2F2E41"/>
<path d="M214.403 247.743L214.128 248.134L214.324 248.16L214.403 247.743Z" fill="#2F2E41"/>
<path d="M215.378 248.392L218.421 249.759L218.899 249.973L217.817 251.454L220.072 255.739C220.183 255.951 220.212 256.187 220.152 256.413C220.093 256.639 219.949 256.844 219.742 256.996C219.535 257.149 219.275 257.242 219 257.261C218.726 257.281 218.451 257.226 218.217 257.105L213.322 254.58L213.548 252.68L212.149 253.975L210.306 253.024L214.638 248.06L215.378 248.392Z" fill="#2F2E41"/>
<path d="M237.368 170.453C237.397 170.737 237.352 171.022 237.236 171.29C237.12 171.557 236.935 171.8 236.696 172.001C236.456 172.202 236.167 172.356 235.848 172.453C235.53 172.55 235.19 172.587 234.853 172.561L231.469 178.869L229.184 175.83L232.748 170.306C232.837 169.832 233.129 169.402 233.569 169.098C234.009 168.793 234.566 168.635 235.136 168.654C235.705 168.672 236.247 168.865 236.659 169.197C237.07 169.528 237.322 169.976 237.368 170.453Z" fill="#FFB6B6"/>
<path d="M228.759 189.218L213.252 199.197C212.022 199.987 210.469 200.334 208.935 200.162C207.401 199.991 206.01 199.314 205.069 198.281C204.548 197.709 204.183 197.047 204.001 196.343C203.819 195.639 203.823 194.909 204.013 194.207C204.204 193.504 204.576 192.845 205.103 192.277C205.63 191.709 206.299 191.245 207.063 190.919L222.523 184.323L229.438 172.991L234.082 174.152L228.759 189.218Z" fill="#6C63FF"/>
<path d="M195.733 201.073L195.419 210.756C191.093 216.903 190.601 219.889 191.798 221.48L209.588 216.015L209.887 215.413L210.816 211.086L212.501 206.622C212.797 206.155 216.823 203.29 213.049 197.854L205.457 189.251L199.373 188.958C198.37 191.123 200.179 192.304 198.372 192.804C194.286 195.954 194.886 196.466 195.733 201.073Z" fill="#6C63FF"/>
<path d="M183.635 228.257C183.497 227.997 183.429 227.715 183.435 227.43C183.441 227.146 183.521 226.866 183.67 226.61C183.818 226.354 184.032 226.129 184.295 225.95C184.558 225.771 184.865 225.643 185.194 225.574L185.944 218.683L189.284 220.928L188.059 227.128C188.159 227.6 188.05 228.086 187.752 228.495C187.454 228.904 186.989 229.206 186.443 229.346C185.898 229.485 185.311 229.451 184.793 229.25C184.276 229.05 183.864 228.696 183.635 228.257Z" fill="#FFB6B6"/>
<path d="M184.488 208.157L195.271 194.467C196.127 193.382 197.46 192.628 198.977 192.369C200.493 192.11 202.07 192.367 203.362 193.085C204.076 193.483 204.677 194.008 205.123 194.624C205.569 195.239 205.848 195.93 205.941 196.646C206.034 197.363 205.938 198.087 205.66 198.769C205.382 199.451 204.93 200.073 204.334 200.591L192.283 211.071L190.145 223.681L185.305 223.859L184.488 208.157Z" fill="#6C63FF"/>
<path d="M207.341 177.21C209.492 180.776 208.087 184.906 204.095 187.078C199.779 189.427 194.175 188.913 192.362 184.348C190.344 179.266 192.002 177.085 195.608 174.48C199.834 171.427 205.017 173.357 207.341 177.21Z" fill="#2F2E41"/>
<path d="M196.752 185.154C197.847 186.36 199.467 187.152 201.256 187.355C203.045 187.558 204.856 187.156 206.292 186.236C207.728 185.316 208.671 183.955 208.914 182.45C209.158 180.946 208.681 179.422 207.589 178.213L207.53 178.148C206.414 176.974 204.795 176.215 203.02 176.036C201.246 175.857 199.459 176.272 198.044 177.191C196.63 178.11 195.702 179.46 195.461 180.949C195.219 182.439 195.684 183.948 196.754 185.152L196.752 185.154Z" fill="#FFB6B6"/>
<path d="M209.426 176.633C208.319 177.518 206.97 178.161 205.498 178.505C205.203 178.218 204.853 177.974 204.463 177.783C204.649 178.11 204.777 178.458 204.843 178.817C204.186 179.963 201.504 180.787 198.941 181.63L195.546 176.59L200.04 174.449C203.65 172.349 207.901 173.245 209.426 176.633Z" fill="#2F2E41"/>
<path d="M192.985 174.486C192.373 174.249 191.581 174.396 191.006 174.729C190.459 175.079 190.017 175.532 189.714 176.051C189.165 176.891 188.77 177.796 188.543 178.735C188.349 179.548 188.382 180.531 189.249 180.955C189.973 181.309 191.007 181.086 191.672 180.614C192.337 180.142 192.712 179.478 193.036 178.829C193.361 178.181 193.668 177.509 194.244 176.971L193.645 177.206C193.834 176.722 193.923 176.215 193.906 175.706C193.892 175.453 193.8 175.207 193.638 174.993C193.477 174.779 193.251 174.604 192.985 174.486Z" fill="#2F2E41"/>
<path d="M200.757 175.147L195.936 177.444C194.632 178.066 193.675 179.097 193.276 180.312C192.876 181.526 193.067 182.825 193.806 183.921C194.882 185.518 196.627 186.72 198.7 187.292C200.774 187.864 203.026 187.766 205.018 187.016L200.613 183.745L206.589 186.306L207.865 185.698C201.456 184.718 200.219 180.489 200.757 175.147Z" fill="#2F2E41"/>
</g>
<path d="M624.865 166.206C625.122 166.215 625.376 166.164 625.593 166.059C625.811 165.955 625.981 165.803 626.08 165.623C626.179 165.443 626.203 165.244 626.148 165.054C626.094 164.864 625.963 164.69 625.774 164.558C625.742 164.463 625.72 164.394 625.688 164.299C625.699 164.278 625.711 164.258 625.722 164.237C625.981 163.774 626.415 163.379 626.969 163.102C627.524 162.825 628.174 162.678 628.838 162.68C629.502 162.681 630.15 162.832 630.702 163.112C631.254 163.392 631.684 163.79 631.938 164.255C632.955 166.109 634.249 167.967 634.568 169.929C634.708 170.795 634.649 171.674 634.393 172.526C636.78 168.58 638.02 164.291 638.028 159.951C638.029 158.862 637.949 157.773 637.789 156.691C637.657 155.803 637.474 154.922 637.239 154.047C635.959 149.301 633.211 144.852 629.221 141.067C627.29 140.268 625.728 139.041 624.746 137.55C624.391 137.013 624.139 136.441 624 135.851C624.218 135.872 624.439 135.886 624.657 135.897C624.725 135.899 624.796 135.902 624.864 135.905L624.89 135.906C625.129 135.914 625.367 135.869 625.574 135.777C625.78 135.686 625.948 135.551 626.056 135.389C626.164 135.226 626.207 135.044 626.182 134.864C626.156 134.683 626.062 134.512 625.911 134.371C625.817 134.283 625.723 134.196 625.629 134.108C625.486 133.973 625.339 133.84 625.196 133.705C625.18 133.692 625.164 133.679 625.15 133.665C624.986 133.51 624.821 133.359 624.657 133.205C624.957 132.852 625.36 132.557 625.836 132.342C627.482 131.611 629.753 132.117 630.943 133.245C632.136 134.373 632.361 135.956 631.946 137.366C631.539 138.565 630.865 139.703 629.953 140.731C630.043 140.818 630.136 140.902 630.225 140.988C631.857 142.578 633.28 144.285 634.472 146.085C634.182 144.069 634.528 142.029 635.482 140.133C636.449 138.367 638.26 136.879 639.856 135.352C641.772 133.517 645.702 134.318 646.04 136.643C646.043 136.666 646.047 136.688 646.05 136.711C645.813 136.812 645.581 136.92 645.354 137.033C645.069 137.178 644.848 137.384 644.72 137.625C644.592 137.866 644.563 138.131 644.637 138.384C644.712 138.638 644.885 138.869 645.135 139.046C645.386 139.224 645.701 139.34 646.04 139.38L646.075 139.384C645.99 140.031 645.841 140.672 645.628 141.302C645.012 143.061 643.922 144.704 642.428 146.128C640.934 147.553 639.068 148.728 636.946 149.581C636.807 149.635 636.671 149.689 636.532 149.74C637.73 152.313 638.482 154.992 638.768 157.711C638.93 159.315 638.92 160.926 638.739 162.529L638.75 162.472C639.207 160.69 640.462 159.082 642.303 157.919C645.038 156.217 648.901 155.591 651.852 154.223C652.165 154.07 652.53 153.989 652.902 153.988C653.275 153.987 653.64 154.068 653.954 154.219C654.269 154.37 654.52 154.586 654.677 154.842C654.835 155.098 654.893 155.383 654.844 155.662C654.84 155.682 654.836 155.702 654.832 155.722C654.392 155.858 653.964 156.014 653.549 156.19C653.312 156.291 653.081 156.399 652.854 156.513C652.568 156.657 652.347 156.863 652.22 157.104C652.092 157.345 652.063 157.61 652.137 157.864C652.211 158.117 652.385 158.348 652.635 158.526C652.886 158.703 653.201 158.82 653.54 158.859L653.574 158.863C653.599 158.866 653.621 158.869 653.646 158.871C652.894 160.23 651.84 161.482 650.528 162.57C648.908 163.887 646.949 164.939 644.773 165.663C642.596 166.386 640.248 166.765 637.871 166.777H637.868C637.222 168.9 636.288 170.968 635.078 172.945H625.114C625.079 172.861 625.046 172.775 625.014 172.691C625.937 172.735 626.862 172.693 627.771 172.566C627.032 171.879 626.293 171.187 625.554 170.499C625.537 170.487 625.522 170.473 625.507 170.459C625.132 170.107 624.754 169.758 624.379 169.406L624.378 169.406C624.358 168.328 624.522 167.252 624.865 166.206Z" fill="#39803A"/>
<path d="M940.865 107.206C941.122 107.215 941.376 107.164 941.593 107.059C941.811 106.955 941.981 106.803 942.08 106.623C942.179 106.443 942.203 106.244 942.148 106.054C942.094 105.864 941.963 105.69 941.774 105.558C941.742 105.463 941.72 105.394 941.688 105.299C941.699 105.278 941.711 105.258 941.722 105.237C941.981 104.774 942.415 104.379 942.969 104.102C943.524 103.825 944.174 103.678 944.838 103.68C945.502 103.681 946.15 103.832 946.702 104.112C947.254 104.392 947.684 104.79 947.938 105.255C948.955 107.109 950.249 108.967 950.568 110.929C950.708 111.795 950.649 112.674 950.393 113.526C952.78 109.58 954.02 105.291 954.028 100.951C954.029 99.8616 953.949 98.7732 953.789 97.6907C953.657 96.8033 953.474 95.9222 953.239 95.0475C951.959 90.3011 949.211 85.8524 945.221 82.0667C943.29 81.2684 941.728 80.041 940.746 78.5496C940.391 78.0135 940.139 77.4412 940 76.8505C940.218 76.8722 940.439 76.8857 940.657 76.8965C940.725 76.8992 940.796 76.9019 940.864 76.9047L940.89 76.9055C941.129 76.9137 941.367 76.8692 941.574 76.7775C941.78 76.6858 941.948 76.5507 942.056 76.3886C942.164 76.2265 942.207 76.0442 942.182 75.8637C942.156 75.6832 942.062 75.5121 941.911 75.3712C941.817 75.2835 941.723 75.1958 941.629 75.1082C941.486 74.973 941.339 74.8404 941.196 74.7051C941.18 74.6923 941.164 74.6787 941.15 74.6645C940.986 74.5103 940.821 74.3588 940.657 74.2046C940.957 73.852 941.36 73.5566 941.836 73.3416C943.482 72.6111 945.753 73.117 946.943 74.2452C948.136 75.3734 948.361 76.9561 947.946 78.3656C947.539 79.565 946.865 80.7031 945.953 81.7312C946.043 81.8178 946.136 81.9016 946.225 81.9882C947.857 83.5781 949.28 85.2853 950.472 87.0854C950.182 85.0687 950.528 83.0288 951.482 81.1333C952.449 79.3668 954.26 77.879 955.856 76.3518C957.772 74.5175 961.702 75.318 962.04 77.6433C962.043 77.6659 962.047 77.6884 962.05 77.7109C961.813 77.8121 961.581 77.9197 961.354 78.0334C961.069 78.1777 960.848 78.3839 960.72 78.625C960.592 78.866 960.563 79.1307 960.637 79.3844C960.712 79.638 960.885 79.8688 961.135 80.0464C961.386 80.224 961.701 80.3402 962.04 80.3798L962.075 80.3839C961.99 81.0309 961.841 81.6722 961.628 82.3021C961.012 84.0605 959.922 85.7036 958.428 87.1282C956.934 88.5528 955.068 89.7282 952.946 90.5808C952.807 90.6349 952.671 90.689 952.532 90.7404C953.73 93.3125 954.482 95.9917 954.768 98.7107C954.93 100.315 954.92 101.926 954.739 103.529L954.75 103.472C955.207 101.69 956.462 100.082 958.303 98.919C961.038 97.2172 964.901 96.5906 967.852 95.2227C968.165 95.0702 968.53 94.9888 968.902 94.9881C969.275 94.9875 969.64 95.0675 969.954 95.2188C970.269 95.3702 970.52 95.5865 970.677 95.8423C970.835 96.0981 970.893 96.3826 970.844 96.6624C970.84 96.6824 970.836 96.7023 970.832 96.7222C970.392 96.8578 969.964 97.0142 969.549 97.1902C969.312 97.2915 969.081 97.399 968.854 97.5127C968.568 97.657 968.347 97.8632 968.22 98.1043C968.092 98.3454 968.063 98.6101 968.137 98.8637C968.211 99.1173 968.385 99.3481 968.635 99.5257C968.886 99.7033 969.201 99.8196 969.54 99.8591L969.574 99.8632C969.599 99.8659 969.621 99.8686 969.646 99.8713C968.894 101.23 967.84 102.482 966.528 103.57C964.908 104.887 962.949 105.939 960.773 106.663C958.596 107.386 956.248 107.765 953.871 107.777H953.868C953.222 109.9 952.288 111.968 951.078 113.945H941.114C941.079 113.861 941.046 113.775 941.014 113.691C941.937 113.735 942.862 113.693 943.771 113.566C943.032 112.879 942.293 112.187 941.554 111.499C941.537 111.487 941.522 111.473 941.507 111.459C941.132 111.107 940.754 110.758 940.379 110.406L940.378 110.406C940.358 109.328 940.522 108.252 940.865 107.206Z" fill="#39803A"/>
<path d="M1314.86 138.206C1315.12 138.215 1315.38 138.164 1315.59 138.059C1315.81 137.955 1315.98 137.803 1316.08 137.623C1316.18 137.443 1316.2 137.244 1316.15 137.054C1316.09 136.864 1315.96 136.69 1315.77 136.558C1315.74 136.463 1315.72 136.394 1315.69 136.299C1315.7 136.278 1315.71 136.258 1315.72 136.237C1315.98 135.774 1316.41 135.379 1316.97 135.102C1317.52 134.825 1318.17 134.678 1318.84 134.68C1319.5 134.681 1320.15 134.832 1320.7 135.112C1321.25 135.392 1321.68 135.79 1321.94 136.255C1322.95 138.109 1324.25 139.967 1324.57 141.929C1324.71 142.795 1324.65 143.674 1324.39 144.526C1326.78 140.58 1328.02 136.291 1328.03 131.951C1328.03 130.862 1327.95 129.773 1327.79 128.691C1327.66 127.803 1327.47 126.922 1327.24 126.047C1325.96 121.301 1323.21 116.852 1319.22 113.067C1317.29 112.268 1315.73 111.041 1314.75 109.55C1314.39 109.013 1314.14 108.441 1314 107.851C1314.22 107.872 1314.44 107.886 1314.66 107.897C1314.72 107.899 1314.8 107.902 1314.86 107.905L1314.89 107.906C1315.13 107.914 1315.37 107.869 1315.57 107.777C1315.78 107.686 1315.95 107.551 1316.06 107.389C1316.16 107.226 1316.21 107.044 1316.18 106.864C1316.16 106.683 1316.06 106.512 1315.91 106.371C1315.82 106.283 1315.72 106.196 1315.63 106.108C1315.49 105.973 1315.34 105.84 1315.2 105.705C1315.18 105.692 1315.16 105.679 1315.15 105.665C1314.99 105.51 1314.82 105.359 1314.66 105.205C1314.96 104.852 1315.36 104.557 1315.84 104.342C1317.48 103.611 1319.75 104.117 1320.94 105.245C1322.14 106.373 1322.36 107.956 1321.95 109.366C1321.54 110.565 1320.87 111.703 1319.95 112.731C1320.04 112.818 1320.14 112.902 1320.22 112.988C1321.86 114.578 1323.28 116.285 1324.47 118.085C1324.18 116.069 1324.53 114.029 1325.48 112.133C1326.45 110.367 1328.26 108.879 1329.86 107.352C1331.77 105.517 1335.7 106.318 1336.04 108.643C1336.04 108.666 1336.05 108.688 1336.05 108.711C1335.81 108.812 1335.58 108.92 1335.35 109.033C1335.07 109.178 1334.85 109.384 1334.72 109.625C1334.59 109.866 1334.56 110.131 1334.64 110.384C1334.71 110.638 1334.89 110.869 1335.14 111.046C1335.39 111.224 1335.7 111.34 1336.04 111.38L1336.07 111.384C1335.99 112.031 1335.84 112.672 1335.63 113.302C1335.01 115.061 1333.92 116.704 1332.43 118.128C1330.93 119.553 1329.07 120.728 1326.95 121.581C1326.81 121.635 1326.67 121.689 1326.53 121.74C1327.73 124.313 1328.48 126.992 1328.77 129.711C1328.93 131.315 1328.92 132.926 1328.74 134.529L1328.75 134.472C1329.21 132.69 1330.46 131.082 1332.3 129.919C1335.04 128.217 1338.9 127.591 1341.85 126.223C1342.17 126.07 1342.53 125.989 1342.9 125.988C1343.27 125.987 1343.64 126.068 1343.95 126.219C1344.27 126.37 1344.52 126.586 1344.68 126.842C1344.83 127.098 1344.89 127.383 1344.84 127.662C1344.84 127.682 1344.84 127.702 1344.83 127.722C1344.39 127.858 1343.96 128.014 1343.55 128.19C1343.31 128.291 1343.08 128.399 1342.85 128.513C1342.57 128.657 1342.35 128.863 1342.22 129.104C1342.09 129.345 1342.06 129.61 1342.14 129.864C1342.21 130.117 1342.39 130.348 1342.64 130.526C1342.89 130.703 1343.2 130.82 1343.54 130.859L1343.57 130.863C1343.6 130.866 1343.62 130.869 1343.65 130.871C1342.89 132.23 1341.84 133.482 1340.53 134.57C1338.91 135.887 1336.95 136.939 1334.77 137.663C1332.6 138.386 1330.25 138.765 1327.87 138.777H1327.87C1327.22 140.9 1326.29 142.968 1325.08 144.945H1315.11C1315.08 144.861 1315.05 144.775 1315.01 144.691C1315.94 144.735 1316.86 144.693 1317.77 144.566C1317.03 143.879 1316.29 143.187 1315.55 142.499C1315.54 142.487 1315.52 142.473 1315.51 142.459C1315.13 142.107 1314.75 141.758 1314.38 141.406L1314.38 141.406C1314.36 140.328 1314.52 139.252 1314.86 138.206Z" fill="#39803A"/>
<path d="M423.865 73.2057C424.122 73.2146 424.376 73.1635 424.593 73.0593C424.811 72.955 424.981 72.8027 425.08 72.6228C425.179 72.443 425.203 72.2444 425.148 72.054C425.094 71.8635 424.963 71.6904 424.774 71.5581C424.742 71.4628 424.72 71.3944 424.688 71.2992C424.699 71.2784 424.711 71.2577 424.722 71.237C424.981 70.7737 425.415 70.3787 425.969 70.1016C426.524 69.8245 427.174 69.6777 427.838 69.6796C428.502 69.6814 429.15 69.8319 429.702 70.1121C430.254 70.3923 430.684 70.7898 430.938 71.2545C431.955 73.1094 433.249 74.9674 433.568 76.9286C433.708 77.7955 433.649 78.6742 433.393 79.5258C435.78 75.58 437.02 71.2915 437.028 66.9508C437.029 65.8616 436.949 64.7732 436.789 63.6907C436.657 62.8033 436.474 61.9222 436.239 61.0475C434.959 56.3011 432.211 51.8524 428.221 48.0667C426.29 47.2684 424.728 46.041 423.746 44.5496C423.391 44.0135 423.139 43.4412 423 42.8505C423.218 42.8722 423.439 42.8857 423.657 42.8965C423.725 42.8992 423.796 42.9019 423.864 42.9047L423.89 42.9055C424.129 42.9137 424.367 42.8692 424.574 42.7775C424.78 42.6858 424.948 42.5507 425.056 42.3886C425.164 42.2265 425.207 42.0442 425.182 41.8637C425.156 41.6832 425.062 41.5121 424.911 41.3712C424.817 41.2835 424.723 41.1958 424.629 41.1082C424.486 40.973 424.339 40.8404 424.196 40.7051C424.18 40.6923 424.164 40.6787 424.15 40.6645C423.986 40.5103 423.821 40.3588 423.657 40.2046C423.957 39.852 424.36 39.5566 424.836 39.3416C426.482 38.6111 428.753 39.117 429.943 40.2452C431.136 41.3734 431.361 42.9561 430.946 44.3656C430.539 45.565 429.865 46.7031 428.953 47.7312C429.043 47.8178 429.136 47.9016 429.225 47.9882C430.857 49.5781 432.28 51.2853 433.472 53.0854C433.182 51.0687 433.528 49.0288 434.482 47.1333C435.449 45.3668 437.26 43.879 438.856 42.3518C440.772 40.5175 444.702 41.318 445.04 43.6433C445.043 43.6659 445.047 43.6884 445.05 43.7109C444.813 43.8121 444.581 43.9197 444.354 44.0334C444.069 44.1777 443.848 44.3839 443.72 44.625C443.592 44.866 443.563 45.1307 443.637 45.3844C443.712 45.638 443.885 45.8688 444.135 46.0464C444.386 46.224 444.701 46.3402 445.04 46.3798L445.075 46.3839C444.99 47.0309 444.841 47.6722 444.628 48.3021C444.012 50.0605 442.922 51.7036 441.428 53.1282C439.934 54.5528 438.068 55.7282 435.946 56.5808C435.807 56.6349 435.671 56.689 435.532 56.7404C436.73 59.3125 437.482 61.9917 437.768 64.7107C437.93 66.3148 437.92 67.9262 437.739 69.5291L437.75 69.4723C438.207 67.6899 439.462 66.0816 441.303 64.919C444.038 63.2172 447.901 62.5906 450.852 61.2227C451.165 61.0702 451.53 60.9888 451.902 60.9881C452.275 60.9875 452.64 61.0675 452.954 61.2188C453.269 61.3702 453.52 61.5865 453.677 61.8423C453.835 62.0981 453.893 62.3826 453.844 62.6624C453.84 62.6824 453.836 62.7023 453.832 62.7222C453.392 62.8578 452.964 63.0142 452.549 63.1902C452.312 63.2915 452.081 63.399 451.854 63.5127C451.568 63.657 451.347 63.8632 451.22 64.1043C451.092 64.3454 451.063 64.6101 451.137 64.8637C451.211 65.1173 451.385 65.3481 451.635 65.5257C451.886 65.7033 452.201 65.8196 452.54 65.8591L452.574 65.8632C452.599 65.8659 452.621 65.8686 452.646 65.8713C451.894 67.2305 450.84 68.4815 449.528 69.5697C447.908 70.8868 445.949 71.9394 443.773 72.6628C441.596 73.3862 439.248 73.7653 436.871 73.7767H436.868C436.222 75.9005 435.288 77.9677 434.078 79.9451H424.114C424.079 79.8613 424.046 79.7747 424.014 79.6908C424.937 79.7347 425.862 79.6929 426.771 79.5664C426.032 78.8792 425.293 78.1866 424.554 77.4994C424.537 77.4865 424.522 77.473 424.507 77.4588C424.132 77.1071 423.754 76.7581 423.379 76.4064L423.378 76.4059C423.358 75.3279 423.522 74.2522 423.865 73.2057Z" fill="#39803A"/>
<path d="M16.8645 152.206C17.1216 152.215 17.376 152.164 17.5934 152.059C17.8108 151.955 17.9806 151.803 18.0799 151.623C18.1791 151.443 18.203 151.244 18.1483 151.054C18.0936 150.864 17.9629 150.69 17.774 150.558C17.7423 150.463 17.7196 150.394 17.688 150.299C17.6993 150.278 17.7107 150.258 17.7221 150.237C17.9811 149.774 18.4149 149.379 18.9693 149.102C19.5236 148.825 20.1736 148.678 20.8377 148.68C21.5019 148.681 22.1504 148.832 22.702 149.112C23.2536 149.392 23.6836 149.79 23.9379 150.255C24.9546 152.109 26.2489 153.967 26.5676 155.929C26.708 156.795 26.6488 157.674 26.3926 158.526C28.7804 154.58 30.0203 150.291 30.0283 145.951C30.0288 144.862 29.9489 143.773 29.789 142.691C29.6569 141.803 29.4735 140.922 29.239 140.047C27.9592 135.301 25.2114 130.852 21.2213 127.067C19.2901 126.268 17.7283 125.041 16.7464 123.55C16.3907 123.013 16.1393 122.441 16 121.851C16.2178 121.872 16.4393 121.886 16.6571 121.897C16.725 121.899 16.7964 121.902 16.8643 121.905L16.8898 121.906C17.1293 121.914 17.3667 121.869 17.5736 121.777C17.7804 121.686 17.9478 121.551 18.0557 121.389C18.1636 121.226 18.2074 121.044 18.1817 120.864C18.156 120.683 18.0619 120.512 17.9109 120.371C17.8168 120.283 17.7227 120.196 17.6286 120.108C17.4857 119.973 17.3393 119.84 17.1964 119.705C17.1799 119.692 17.1644 119.679 17.15 119.665C16.9857 119.51 16.8214 119.359 16.6571 119.205C16.957 118.852 17.3603 118.557 17.8357 118.342C19.4821 117.611 21.7535 118.117 22.9428 119.245C24.1356 120.373 24.3606 121.956 23.9463 123.366C23.5389 124.565 22.865 125.703 21.9535 126.731C22.0428 126.818 22.1356 126.902 22.2249 126.988C23.857 128.578 25.2795 130.285 26.472 132.085C26.182 130.069 26.5282 128.029 27.482 126.133C28.4486 124.367 30.2604 122.879 31.856 121.352C33.7725 119.517 37.7024 120.318 38.0401 122.643C38.0433 122.666 38.0465 122.688 38.0496 122.711C37.8126 122.812 37.5806 122.92 37.3537 123.033C37.0685 123.178 36.8476 123.384 36.7198 123.625C36.592 123.866 36.5633 124.131 36.6375 124.384C36.7117 124.638 36.8852 124.869 37.1355 125.046C37.3857 125.224 37.701 125.34 38.0399 125.38L38.0746 125.384C37.9902 126.031 37.841 126.672 37.6282 127.302C37.0117 129.061 35.9223 130.704 34.4283 132.128C32.9343 133.553 31.068 134.728 28.9462 135.581C28.8069 135.635 28.6712 135.689 28.5319 135.74C29.73 138.313 30.4815 140.992 30.7676 143.711C30.9295 145.315 30.92 146.926 30.739 148.529L30.7497 148.472C31.2069 146.69 32.4621 145.082 34.3033 143.919C37.0379 142.217 40.9014 141.591 43.8516 140.223C44.1651 140.07 44.5297 139.989 44.9022 139.988C45.2748 139.987 45.6399 140.068 45.9544 140.219C46.2689 140.37 46.5198 140.586 46.6773 140.842C46.8349 141.098 46.8926 141.383 46.8437 141.662C46.8397 141.682 46.8357 141.702 46.8316 141.722C46.3918 141.858 45.9636 142.014 45.5495 142.19C45.3125 142.291 45.0805 142.399 44.8535 142.513C44.5684 142.657 44.3474 142.863 44.2196 143.104C44.0918 143.345 44.0631 143.61 44.1373 143.864C44.2115 144.117 44.3851 144.348 44.6353 144.526C44.8856 144.703 45.2008 144.82 45.5397 144.859L45.5745 144.863C45.5995 144.866 45.6209 144.869 45.6459 144.871C44.8944 146.23 43.8398 147.482 42.5281 148.57C40.9077 149.887 38.9493 150.939 36.7728 151.663C34.5964 152.386 32.2479 152.765 29.8712 152.777H29.8676C29.2224 154.9 28.2877 156.968 27.0783 158.945H17.1143C17.0785 158.861 17.0464 158.775 17.0142 158.691C17.9365 158.735 18.8625 158.693 19.7714 158.566C19.0321 157.879 18.2928 157.187 17.5535 156.499C17.5371 156.487 17.5215 156.473 17.5071 156.459C17.1321 156.107 16.7536 155.758 16.3786 155.406C16.3586 154.328 16.522 153.252 16.8645 152.206Z" fill="#39803A"/>
<defs>
<clipPath id="clip0_162_28">
<rect width="259" height="161" fill="white" transform="translate(133 98)"/>
</clipPath>
</defs>
</svg>
