<svg width="1440" height="356" viewBox="0 0 1440 356" fill="none" xmlns="http://www.w3.org/2000/svg">
<path d="M0 204.107L34.4 176.101C68.8 148.254 137.6 92.2436 206.08 60.9156C274.72 29.5876 342.88 22.6258 411.52 42.72C480 62.8142 548.8 109.648 617.28 125.787C685.92 141.925 754.08 127.052 822.72 117.876C891.2 108.699 960 104.901 1028.48 118.192C1097.12 131.324 1165.28 161.387 1233.92 144.457C1302.4 127.685 1371.2 63.7636 1405.6 31.9609L1440 0V356H1405.6C1371.2 356 1302.4 356 1233.92 356C1165.28 356 1097.12 356 1028.48 356C960 356 891.2 356 822.72 356C754.08 356 685.92 356 617.28 356C548.8 356 480 356 411.52 356C342.88 356 274.72 356 206.08 356C137.6 356 68.8 356 34.4 356H0V204.107Z" fill="#23160E"/>
<g clip-path="url(#clip0_162_28)">
<path d="M454.789 271.811V271.814C454.526 272.029 454.249 272.235 453.963 272.428C449.189 275.656 445.927 277.919 440.054 279.095C428.997 281.306 417.901 283.331 406.763 285.172C385.037 288.765 363.194 291.667 341.235 293.88C296.666 298.392 251.821 299.993 207.018 298.671C192.098 298.232 177.708 297.765 164.036 291.547C154.043 287.002 145.646 279.82 139.376 271.228C133.019 262.516 129.152 252.208 127.835 241.614C130.931 240.338 134.22 239.53 137.581 239.219C149.249 238.168 160.732 242.203 171.344 246.898C181.958 251.59 192.381 257.075 203.874 259.24C220.81 262.43 238.293 258.091 254.53 252.536C270.767 246.981 286.751 240.121 303.876 238.024C326.845 235.208 349.892 241.168 372.195 247.07C395.951 253.356 419.708 259.643 443.466 265.931C446.861 266.827 450.383 267.788 453.03 269.987C453.686 270.532 454.276 271.143 454.789 271.811Z" fill="#49C362"/>
<path d="M454.789 271.811V271.814C454.525 272.029 454.249 272.235 453.963 272.428C450.971 274.449 448.574 276.095 445.758 277.329C436.077 278.229 426.382 279.008 416.675 279.666C391.69 281.358 366.656 282.258 341.573 282.365C290.689 282.611 237.19 284.115 192.637 260.778C177.813 253.013 156.338 268.937 141.652 260.422C137.419 257.959 133.485 255.065 129.922 251.79C128.96 248.452 128.262 245.05 127.834 241.614C126.655 232.331 127.486 222.92 130.277 213.95C131.627 209.659 133.468 205.519 135.769 201.605C142.592 203.918 149.135 207.246 155.363 210.772C166.784 217.229 177.889 224.562 190.608 228.259C209.356 233.71 229.639 230.713 248.663 226.205C267.687 221.697 286.585 215.691 306.191 215.184C332.487 214.506 357.797 223.751 382.275 232.85C406.831 241.979 431.39 251.107 455.953 260.235C456.493 261.619 456.975 263.025 457.4 264.451C458.268 267.349 457.01 269.975 454.789 271.811Z" fill="#00FF15" fill-opacity="0.4"/>
<path d="M215.365 153.926C211.667 151.571 212.029 146.42 215.94 144.396C216.019 144.354 216.097 144.312 216.174 144.268C216.37 143.381 216.566 142.495 216.762 141.609C217.916 142.74 220.184 142.527 221.079 141.202C217.96 134.92 213.859 129.117 208.913 123.986C207.834 122.862 207.229 121.404 207.212 119.888C207.195 118.372 207.766 116.902 208.818 115.756C208.837 115.735 208.856 115.714 208.874 115.693C211.667 114.803 214.312 113.541 216.729 111.948C208.44 99.3721 192.633 89.3815 188.876 75C177.573 86.4613 176.305 90.4979 165.002 101.959C165.002 101.959 154.299 111.078 151.989 115.979C152.556 116.542 157.638 117.893 157.833 119C161.709 119.293 168.423 115.282 168.423 115.282C168.423 115.282 153.769 130.034 149.319 139.121C148.919 139.939 148.538 140.874 148.874 141.717C149.142 142.391 150.103 142.78 150.722 142.512C149.983 143.186 149.389 143.989 148.974 144.876C150.265 145.655 151.796 145.999 153.32 145.854C154.845 145.709 156.272 145.083 157.373 144.077C156.753 145.171 156.134 146.264 155.514 147.357L155.515 147.36C156.352 147.618 157.104 148.078 157.695 148.694C158.286 149.311 158.697 150.062 158.886 150.875C159.076 151.687 159.038 152.532 158.776 153.326C158.514 154.12 158.037 154.835 157.392 155.402C153.546 158.779 150.032 162.329 148.745 164.667C147.534 166.866 159.971 169.517 162.768 169.408C165.565 169.299 168.18 168.139 170.707 167C170.584 168.087 170.804 169.185 171.34 170.155C172.724 170.472 174.16 170.525 175.566 170.311C176.972 170.096 178.318 169.618 179.525 168.906C179.413 171.081 182.32 172.283 184.337 171.666C183.33 186.71 184.066 207.834 185.034 229.764H187.434V172.534C188.073 172.839 188.756 173.054 189.462 173.17C194.373 173.993 200.3 174.494 203.495 170.878C207.174 174.38 213.914 174.313 217.571 170.823C217.211 171.425 217.762 172.439 218.576 172.598C219.537 172.786 220.471 172.248 221.286 171.733C224.977 169.403 228.668 167.073 232.359 164.743C227.804 161.844 221.334 157.725 215.365 153.926Z" fill="#00FF15" fill-opacity="0.7"/>
<path d="M326.16 146.925C332.562 146.925 337.751 142.025 337.751 135.981C337.751 129.936 332.562 125.037 326.16 125.037C319.759 125.037 314.57 129.936 314.57 135.981C314.57 142.025 319.759 146.925 326.16 146.925Z" fill="#FEB631"/>
<path d="M352.102 130.799C351.432 128.679 349.538 127.295 347.249 126.991C347.224 126.988 347.2 126.992 347.175 126.99C347.143 126.981 347.11 126.974 347.076 126.969C343.834 126.596 340.555 127.27 337.77 128.882C335.088 130.463 331.962 131.178 328.802 131.295C328.783 131.295 328.765 131.296 328.746 131.297C327.571 131.371 326.449 131.785 325.533 132.482C324.616 133.18 323.95 134.127 323.624 135.195C323.589 135.326 323.599 135.464 323.653 135.589C323.707 135.714 323.801 135.819 323.923 135.89C324.273 136.17 324.688 136.369 325.134 136.47C326.096 136.663 327.062 136.839 328.032 136.999C329.924 137.312 331.825 137.565 333.736 137.757C337.616 138.15 341.521 138.289 345.421 138.174C346.72 138.136 347.973 138.096 349.163 137.554C350.029 137.15 350.769 136.541 351.31 135.785C351.819 135.059 352.154 134.237 352.291 133.375C352.428 132.514 352.363 131.634 352.102 130.799Z" fill="#E6E6E6"/>
<path d="M328.013 145.391C327.343 143.271 325.449 141.887 323.16 141.583C323.135 141.58 323.111 141.584 323.086 141.582C323.054 141.573 323.021 141.566 322.987 141.561C319.746 141.188 316.466 141.862 313.681 143.474C310.999 145.055 307.873 145.77 304.713 145.887C304.694 145.887 304.676 145.888 304.657 145.889C303.482 145.963 302.36 146.377 301.444 147.074C300.527 147.772 299.861 148.719 299.535 149.787C299.5 149.918 299.51 150.056 299.564 150.181C299.618 150.306 299.713 150.411 299.834 150.482C300.184 150.762 300.599 150.961 301.045 151.062C302.008 151.255 302.974 151.431 303.943 151.591C305.835 151.904 307.736 152.157 309.648 152.349C313.528 152.742 317.432 152.881 321.332 152.766C322.631 152.728 323.884 152.688 325.074 152.146C325.94 151.742 326.68 151.133 327.221 150.377C327.73 149.651 328.065 148.829 328.202 147.967C328.339 147.106 328.275 146.226 328.013 145.391Z" fill="white"/>
<path d="M426.096 191.081C422.397 188.727 422.759 183.576 426.67 181.551C426.75 181.51 426.828 181.468 426.904 181.424C427.1 180.537 427.296 179.651 427.492 178.764C428.646 179.896 430.915 179.682 431.809 178.358C428.69 172.076 424.589 166.272 419.643 161.142C418.565 160.018 417.96 158.56 417.942 157.044C417.925 155.527 418.496 154.057 419.549 152.912C419.567 152.891 419.586 152.87 419.605 152.849C422.398 151.958 425.043 150.697 427.46 149.103C419.17 136.528 403.364 126.537 399.607 112.156C388.304 123.617 387.035 127.654 375.732 139.115C375.732 139.115 365.029 148.234 362.719 153.135C363.287 153.698 368.369 155.049 368.564 156.156C372.439 156.449 379.153 152.438 379.153 152.438C379.153 152.438 364.499 167.19 360.05 176.277C359.649 177.095 359.269 178.029 359.604 178.873C359.872 179.547 360.834 179.935 361.453 179.668C360.713 180.341 360.119 181.144 359.704 182.032C360.995 182.81 362.527 183.155 364.051 183.01C365.575 182.865 367.003 182.239 368.104 181.233C367.484 182.326 366.864 183.419 366.244 184.513L366.246 184.515C367.083 184.774 367.834 185.234 368.425 185.85C369.017 186.467 369.427 187.218 369.617 188.03C369.806 188.842 369.768 189.687 369.506 190.481C369.244 191.275 368.767 191.991 368.122 192.558C364.277 195.935 360.763 199.485 359.475 201.822C358.264 204.021 370.701 206.672 373.498 206.564C376.296 206.455 378.911 205.294 381.437 204.155C381.314 205.243 381.534 206.341 382.07 207.311C383.454 207.628 384.891 207.681 386.296 207.466C387.702 207.252 389.048 206.774 390.255 206.061C390.144 208.237 393.05 209.438 395.067 208.822C394.06 223.866 394.797 244.99 395.764 266.92H398.165V209.689C398.804 209.995 399.487 210.21 400.192 210.326C405.104 211.149 411.03 211.649 414.226 208.033C417.904 211.535 424.644 211.469 428.301 207.979C427.941 208.581 428.492 209.594 429.307 209.754C430.267 209.942 431.201 209.403 432.017 208.889C435.708 206.559 439.399 204.229 443.09 201.899C438.535 198.999 432.065 194.881 426.096 191.081Z" fill="#0CF200" fill-opacity="0.73"/>
<path d="M147.478 249.422C147.718 249.432 147.956 249.373 148.16 249.251C148.364 249.129 148.523 248.951 148.616 248.741C148.709 248.532 148.731 248.3 148.68 248.077C148.628 247.855 148.506 247.653 148.329 247.499C148.3 247.388 148.278 247.308 148.249 247.196C148.259 247.172 148.27 247.148 148.281 247.124C148.523 246.583 148.929 246.122 149.448 245.799C149.968 245.475 150.576 245.304 151.198 245.306C151.82 245.308 152.427 245.484 152.944 245.811C153.46 246.138 153.863 246.602 154.101 247.144C155.053 249.309 156.265 251.478 156.564 253.767C156.695 254.779 156.64 255.805 156.4 256.799C158.636 252.193 159.797 247.187 159.804 242.121C159.805 240.85 159.73 239.579 159.58 238.316C159.457 237.28 159.285 236.252 159.065 235.231C157.867 229.691 155.294 224.498 151.557 220.079C149.749 219.148 148.286 217.715 147.367 215.974C147.034 215.348 146.798 214.68 146.668 213.991C146.872 214.016 147.079 214.032 147.283 214.045C147.347 214.048 147.414 214.051 147.477 214.054L147.501 214.055C147.725 214.065 147.948 214.013 148.141 213.906C148.335 213.799 148.492 213.641 148.593 213.452C148.694 213.262 148.735 213.05 148.711 212.839C148.687 212.628 148.599 212.429 148.457 212.264C148.369 212.162 148.281 212.059 148.193 211.957C148.059 211.799 147.922 211.645 147.788 211.487C147.773 211.472 147.758 211.456 147.745 211.439C147.591 211.259 147.437 211.082 147.283 210.902C147.564 210.491 147.942 210.146 148.387 209.895C149.929 209.043 152.056 209.633 153.169 210.95C154.286 212.267 154.497 214.114 154.109 215.759C153.728 217.159 153.096 218.488 152.243 219.688C152.327 219.789 152.413 219.887 152.497 219.988C154.025 221.843 155.358 223.836 156.474 225.937C156.203 223.583 156.527 221.202 157.42 218.99C158.325 216.928 160.022 215.191 161.516 213.409C163.31 211.268 166.991 212.202 167.307 214.916C167.31 214.943 167.313 214.969 167.316 214.995C167.094 215.113 166.877 215.239 166.664 215.371C166.397 215.54 166.19 215.781 166.07 216.062C165.951 216.343 165.924 216.652 165.993 216.948C166.063 217.244 166.225 217.514 166.46 217.721C166.694 217.928 166.989 218.064 167.307 218.11L167.339 218.115C167.26 218.87 167.12 219.619 166.921 220.354C166.344 222.406 165.324 224.324 163.925 225.987C162.526 227.65 160.778 229.022 158.791 230.017C158.661 230.08 158.534 230.143 158.403 230.203C159.002 231.796 159.48 233.426 159.834 235.082C160.152 236.543 160.373 238.02 160.497 239.506C160.648 241.379 160.639 243.259 160.47 245.13L160.48 245.064C160.908 242.984 162.083 241.106 163.807 239.749C166.368 237.763 169.986 237.032 172.749 235.435C173.042 235.257 173.384 235.162 173.733 235.161C174.082 235.161 174.423 235.254 174.718 235.431C175.012 235.607 175.247 235.86 175.395 236.158C175.542 236.457 175.596 236.789 175.551 237.116C175.547 237.139 175.543 237.162 175.539 237.185C175.127 237.344 174.726 237.526 174.339 237.732C174.117 237.85 173.9 237.975 173.687 238.108C173.42 238.276 173.213 238.517 173.093 238.799C172.974 239.08 172.947 239.389 173.016 239.685C173.086 239.981 173.248 240.25 173.483 240.458C173.717 240.665 174.012 240.801 174.33 240.847L174.362 240.852C174.386 240.855 174.406 240.858 174.429 240.861C173.725 242.447 172.738 243.908 171.509 245.178C169.992 246.715 168.158 247.944 166.12 248.788C164.082 249.633 161.883 250.075 159.657 250.088H159.654C159.05 252.567 158.174 254.98 157.042 257.288H147.711C147.678 257.19 147.648 257.089 147.618 256.991C148.481 257.043 149.348 256.994 150.2 256.846C149.507 256.044 148.815 255.236 148.123 254.433C148.107 254.418 148.093 254.403 148.079 254.386C147.728 253.976 147.374 253.568 147.022 253.158C147.004 251.899 147.157 250.643 147.478 249.422Z" fill="#7DDA93"/>
<path d="M425.525 258.02C425.766 258.03 426.004 257.971 426.208 257.849C426.411 257.727 426.57 257.549 426.663 257.339C426.756 257.13 426.779 256.898 426.728 256.676C426.676 256.453 426.554 256.251 426.377 256.097C426.347 255.986 426.326 255.906 426.296 255.795C426.307 255.77 426.318 255.746 426.328 255.722C426.571 255.181 426.977 254.72 427.496 254.397C428.015 254.073 428.624 253.902 429.246 253.904C429.868 253.906 430.475 254.082 430.992 254.409C431.508 254.736 431.911 255.2 432.149 255.742C433.101 257.907 434.313 260.076 434.612 262.365C434.743 263.377 434.688 264.403 434.448 265.397C436.684 260.791 437.845 255.785 437.852 250.719C437.853 249.448 437.778 248.177 437.628 246.914C437.504 245.878 437.333 244.85 437.113 243.829C435.915 238.289 433.342 233.096 429.605 228.677C427.797 227.746 426.334 226.313 425.415 224.572C425.082 223.946 424.846 223.278 424.716 222.589C424.92 222.614 425.127 222.63 425.331 222.643C425.395 222.646 425.462 222.649 425.525 222.652L425.549 222.653C425.773 222.663 425.996 222.611 426.189 222.504C426.383 222.397 426.54 222.239 426.641 222.05C426.742 221.86 426.783 221.648 426.759 221.437C426.735 221.226 426.647 221.027 426.505 220.862C426.417 220.76 426.329 220.657 426.241 220.555C426.107 220.397 425.97 220.243 425.836 220.085C425.821 220.07 425.806 220.054 425.793 220.037C425.639 219.857 425.485 219.68 425.331 219.5C425.612 219.089 425.99 218.744 426.435 218.493C427.977 217.641 430.104 218.231 431.217 219.548C432.334 220.865 432.545 222.712 432.157 224.357C431.775 225.757 431.144 227.086 430.291 228.286C430.374 228.387 430.461 228.485 430.545 228.586C432.073 230.441 433.405 232.434 434.522 234.535C434.25 232.181 434.575 229.8 435.468 227.588C436.373 225.526 438.07 223.789 439.564 222.007C441.358 219.866 445.038 220.8 445.355 223.514C445.358 223.541 445.361 223.567 445.364 223.593C445.142 223.711 444.924 223.837 444.712 223.969C444.445 224.138 444.238 224.379 444.118 224.66C443.999 224.941 443.972 225.25 444.041 225.546C444.111 225.842 444.273 226.112 444.508 226.319C444.742 226.526 445.037 226.662 445.354 226.708L445.387 226.713C445.308 227.468 445.168 228.217 444.969 228.952C444.392 231.004 443.371 232.922 441.972 234.585C440.573 236.248 438.826 237.62 436.839 238.615C436.708 238.678 436.581 238.741 436.451 238.801C437.573 241.804 438.277 244.931 438.544 248.104C438.696 249.977 438.687 251.857 438.518 253.728L438.528 253.662C438.956 251.582 440.131 249.704 441.855 248.347C444.416 246.361 448.034 245.63 450.797 244.033C451.09 243.855 451.432 243.76 451.78 243.759C452.129 243.759 452.471 243.852 452.766 244.029C453.06 244.205 453.295 244.458 453.443 244.756C453.59 245.055 453.644 245.387 453.598 245.714C453.595 245.737 453.591 245.76 453.587 245.783C453.175 245.942 452.774 246.124 452.387 246.33C452.165 246.448 451.947 246.573 451.735 246.706C451.468 246.874 451.261 247.115 451.141 247.397C451.022 247.678 450.995 247.987 451.064 248.283C451.134 248.579 451.296 248.848 451.531 249.056C451.765 249.263 452.06 249.399 452.377 249.445L452.41 249.45C452.433 249.453 452.453 249.456 452.477 249.459C451.773 251.045 450.786 252.506 449.557 253.776C448.04 255.313 446.206 256.542 444.168 257.386C442.13 258.231 439.931 258.673 437.705 258.686H437.702C437.098 261.165 436.222 263.578 435.09 265.886H425.759C425.726 265.788 425.696 265.687 425.666 265.589C426.529 265.641 427.396 265.592 428.247 265.444C427.555 264.642 426.863 263.834 426.171 263.031C426.155 263.016 426.141 263.001 426.127 262.984C425.776 262.574 425.421 262.166 425.07 261.756L425.07 261.755C425.051 260.497 425.205 259.241 425.525 258.02Z" fill="#83FF97"/>
<path d="M314.632 232.533C314.873 232.543 315.111 232.484 315.314 232.362C315.518 232.24 315.677 232.062 315.77 231.853C315.863 231.643 315.885 231.411 315.834 231.189C315.783 230.966 315.66 230.764 315.483 230.61C315.454 230.499 315.433 230.419 315.403 230.308C315.414 230.283 315.424 230.259 315.435 230.235C315.677 229.694 316.084 229.233 316.603 228.91C317.122 228.586 317.731 228.415 318.352 228.417C318.974 228.419 319.582 228.595 320.098 228.922C320.615 229.249 321.017 229.713 321.256 230.255C322.208 232.42 323.42 234.589 323.718 236.878C323.849 237.89 323.794 238.916 323.554 239.91C325.79 235.304 326.951 230.299 326.959 225.232C326.959 223.961 326.884 222.69 326.735 221.427C326.611 220.391 326.439 219.363 326.22 218.342C325.021 212.802 322.448 207.609 318.712 203.19C316.903 202.259 315.441 200.826 314.521 199.085C314.188 198.459 313.953 197.791 313.822 197.102C314.026 197.127 314.234 197.143 314.438 197.156C314.501 197.159 314.568 197.162 314.632 197.165L314.656 197.166C314.88 197.176 315.102 197.124 315.296 197.017C315.489 196.91 315.646 196.752 315.747 196.563C315.848 196.374 315.889 196.161 315.865 195.95C315.841 195.739 315.753 195.54 315.612 195.375C315.524 195.273 315.435 195.171 315.347 195.068C315.213 194.91 315.076 194.756 314.943 194.598C314.927 194.583 314.913 194.567 314.899 194.55C314.745 194.37 314.591 194.194 314.438 194.014C314.718 193.602 315.096 193.257 315.541 193.006C317.083 192.154 319.21 192.744 320.324 194.061C321.441 195.378 321.651 197.225 321.263 198.87C320.882 200.27 320.251 201.599 319.397 202.799C319.481 202.9 319.568 202.998 319.651 203.099C321.18 204.954 322.512 206.947 323.629 209.048C323.357 206.694 323.681 204.313 324.574 202.101C325.479 200.039 327.176 198.302 328.67 196.52C330.465 194.379 334.145 195.313 334.461 198.027C334.464 198.054 334.467 198.08 334.47 198.106C334.248 198.224 334.031 198.35 333.818 198.483C333.551 198.651 333.344 198.892 333.225 199.173C333.105 199.454 333.078 199.763 333.148 200.059C333.217 200.356 333.38 200.625 333.614 200.832C333.848 201.039 334.144 201.175 334.461 201.221L334.493 201.226C334.414 201.981 334.275 202.73 334.075 203.465C333.498 205.518 332.478 207.435 331.079 209.098C329.68 210.761 327.932 212.133 325.945 213.128C325.815 213.191 325.688 213.254 325.557 213.314C326.679 216.317 327.383 219.444 327.651 222.617C327.803 224.49 327.794 226.371 327.624 228.242L327.634 228.175C328.062 226.095 329.238 224.218 330.962 222.861C333.523 220.874 337.14 220.143 339.903 218.546C340.197 218.368 340.538 218.273 340.887 218.272C341.236 218.272 341.578 218.365 341.872 218.542C342.167 218.718 342.402 218.971 342.549 219.269C342.697 219.568 342.751 219.9 342.705 220.227C342.701 220.25 342.697 220.273 342.694 220.296C342.282 220.455 341.881 220.637 341.493 220.843C341.271 220.961 341.054 221.086 340.841 221.219C340.574 221.388 340.367 221.628 340.248 221.91C340.128 222.191 340.101 222.5 340.171 222.796C340.24 223.092 340.403 223.361 340.637 223.569C340.871 223.776 341.166 223.912 341.484 223.958L341.516 223.963C341.54 223.966 341.56 223.969 341.583 223.972C340.88 225.559 339.892 227.019 338.664 228.289C337.146 229.826 335.312 231.055 333.274 231.899C331.236 232.744 329.037 233.186 326.811 233.199H326.808C326.204 235.678 325.329 238.091 324.196 240.399H314.866C314.832 240.301 314.802 240.2 314.772 240.102C315.636 240.154 316.503 240.105 317.354 239.957C316.662 239.155 315.969 238.347 315.277 237.545C315.262 237.53 315.247 237.514 315.234 237.497C314.882 237.087 314.528 236.679 314.177 236.269L314.177 236.268C314.158 235.01 314.311 233.755 314.632 232.533L314.632 232.533Z" fill="#ACF292" fill-opacity="0.99"/>
<path d="M255.345 299.483L259.249 298.387L256.666 283.316L250.903 284.934L255.345 299.483Z" fill="#FFB6B6"/>
<path d="M231.398 293.534C231.636 293.73 231.874 293.923 232.115 294.116C232.594 294.503 233.079 294.885 233.566 295.262C233.81 295.451 234.057 295.64 234.302 295.826L234.3 295.834L234.316 295.839L234.321 295.842L234.715 295.999L235.551 294.617L235.937 293.981L236.482 293.079L237.48 291.43L242.735 282.745L237.199 280.541L236.843 281.342L236.841 281.342L236.665 281.739L233.359 289.146L232.684 290.661L232.663 290.707L232.257 291.611L231.907 292.395L231.516 293.271L231.398 293.534Z" fill="#FFB6B6"/>
<path d="M202.472 255.949C202.745 256.557 203.025 257.165 203.31 257.767C203.838 258.889 204.387 259.998 204.957 261.095C204.957 261.097 204.959 261.098 204.961 261.1C205.328 261.54 205.747 261.938 206.211 262.286C206.23 262.304 206.252 262.318 206.271 262.334C206.614 262.586 206.988 262.797 207.385 262.962C207.528 263.02 207.674 263.078 207.818 263.135C208.336 263.337 208.852 263.52 209.367 263.69C210.284 263.989 211.2 264.243 212.115 264.451C212.188 264.47 212.262 264.486 212.335 264.503C216.106 265.337 219.891 265.467 223.885 265.35C225.857 265.294 227.88 265.176 229.975 265.053C230.659 265.011 231.346 264.972 232.042 264.934C232.094 264.931 232.149 264.927 232.204 264.924C233.197 264.869 234.206 264.819 235.238 264.774C236.538 264.718 237.876 264.676 239.263 264.654L238.865 266.434C238.554 267.803 238.022 269.119 237.287 270.335C236.445 271.84 235.778 273.03 236.3 275.795L236.552 277.133C236.205 277.727 236.01 278.389 235.98 279.066C235.95 279.744 236.087 280.419 236.38 281.038L236.451 281.185L231.033 289.848L230.682 290.41L232.662 290.706L235.099 291.073L239.228 291.691L247.081 281.294L247.456 280.797L247.461 280.77L250.484 258.985C250.508 258.792 250.524 258.596 250.53 258.401C250.567 257.515 250.417 256.631 250.089 255.8C249.76 254.969 249.26 254.209 248.617 253.563C248.001 252.939 247.26 252.437 246.438 252.087C245.615 251.736 244.727 251.543 243.824 251.519L241.743 251.464L237.49 251.349L234.495 251.27L234.435 251.269L225.601 251.031L225.381 248.547L225.273 248.489L221.84 246.683L209.967 240.435L209.936 240.42L209.155 240.009L209.031 240.146C208.994 240.187 208.957 240.228 208.923 240.269C207.871 241.534 206.958 242.896 206.199 244.336C204.935 246.685 203.814 249.099 202.841 251.568C202.798 251.675 202.76 251.773 202.726 251.861L202.714 251.887C202.698 251.929 202.688 251.955 202.685 251.963C202.202 253.062 202.171 254.487 202.472 255.949Z" fill="#2F2E41"/>
<path d="M203.281 247.875C203.348 247.72 203.426 247.564 203.506 247.413C204.131 246.275 204.822 245.171 205.575 244.105C206.424 242.89 207.414 241.6 208.567 240.217C209.125 239.546 209.721 238.852 210.354 238.133C210.671 237.773 211 237.406 211.339 237.034C211.353 237.016 211.368 237 211.383 236.984L211.481 236.874L223.688 240.316L223.682 241.894L224.568 244.13L224.508 244.196C224.51 244.197 224.511 244.194 224.508 244.196V243.889L224.833 244.196L227.98 247.868L228.002 247.869L235.035 248.056L242.283 248.25L246.176 248.355C247.079 248.378 247.967 248.571 248.79 248.922C249.613 249.273 250.354 249.774 250.969 250.398C251.612 251.044 252.112 251.805 252.441 252.636C252.769 253.466 252.919 254.35 252.882 255.236C252.877 255.416 252.862 255.6 252.84 255.78L255.089 264.371C256.434 269.51 256.951 274.81 256.622 280.094L257.925 288.457L257.543 288.433L251.867 288.088L250.368 287.998L247.868 283.028C247.583 282.461 247.319 281.882 247.082 281.295C246.689 280.334 246.362 279.351 246.103 278.351L241.719 261.489C241.16 261.496 240.607 261.499 240.061 261.499C237.531 261.508 235.112 261.462 232.803 261.361C225.296 261.036 218.898 260.141 213.322 258.631C211.756 258.208 210.253 257.735 208.812 257.213C208.284 257.023 207.764 256.826 207.253 256.621C207.132 256.575 207.014 256.529 206.897 256.48C205.84 256.047 204.915 255.37 204.207 254.512C203.498 253.655 203.029 252.643 202.842 251.569C202.613 250.323 202.765 249.042 203.281 247.875Z" fill="#2F2E41"/>
<path d="M254.578 296.97L258.803 295.78L259.466 295.593L260.067 298.021L266.695 300.475C267.023 300.597 267.301 300.813 267.489 301.094C267.677 301.375 267.765 301.706 267.74 302.037C267.715 302.369 267.578 302.684 267.35 302.937C267.122 303.19 266.814 303.367 266.471 303.443L259.327 305.025L257.5 302.896L257.615 305.404L254.924 306L253.551 297.261L254.578 296.97Z" fill="#2F2E41"/>
<path d="M231.032 289.848L230.681 290.41L230.931 290.447L231.032 289.848Z" fill="#2F2E41"/>
<path d="M232.278 290.78L236.167 292.741L236.778 293.049L235.396 295.173L238.277 301.321C238.419 301.625 238.456 301.964 238.38 302.288C238.304 302.613 238.12 302.906 237.855 303.125C237.59 303.344 237.258 303.477 236.908 303.505C236.557 303.533 236.206 303.455 235.906 303.281L229.651 299.658L229.939 296.932L228.152 298.79L225.796 297.426L231.332 290.304L232.278 290.78Z" fill="#2F2E41"/>
<path d="M260.381 178.955C260.419 179.362 260.361 179.771 260.213 180.155C260.064 180.539 259.829 180.887 259.522 181.175C259.216 181.464 258.846 181.685 258.44 181.824C258.033 181.963 257.599 182.016 257.168 181.979L252.842 191.029L249.922 186.668L254.477 178.743C254.59 178.063 254.963 177.447 255.526 177.01C256.088 176.573 256.801 176.346 257.529 176.372C258.257 176.399 258.949 176.676 259.475 177.152C260.001 177.628 260.323 178.269 260.381 178.955Z" fill="#FFB6B6"/>
<path d="M249.379 205.878L229.562 220.196C227.99 221.329 226.006 221.827 224.045 221.581C222.084 221.334 220.307 220.364 219.104 218.882C218.438 218.061 217.972 217.111 217.739 216.101C217.506 215.09 217.512 214.044 217.755 213.036C217.998 212.028 218.474 211.082 219.147 210.267C219.821 209.452 220.677 208.787 221.653 208.319L241.41 198.855L250.248 182.596L256.183 184.261L249.379 205.878Z" fill="#6C63FF"/>
<path d="M207.174 222.887L206.772 236.78C201.243 245.6 200.614 249.884 202.144 252.167L224.879 244.325L225.262 243.461L226.45 237.254L228.602 230.849C228.981 230.18 234.126 226.068 229.303 218.268L219.6 205.925L211.825 205.505C210.543 208.611 212.855 210.306 210.546 211.023C205.324 215.542 206.091 216.278 207.174 222.887Z" fill="#6C63FF"/>
<path d="M191.711 261.891C191.535 261.518 191.448 261.113 191.456 260.704C191.463 260.296 191.566 259.894 191.755 259.527C191.945 259.16 192.218 258.837 192.555 258.58C192.891 258.324 193.283 258.14 193.703 258.042L194.662 248.154L198.93 251.375L197.365 260.271C197.493 260.948 197.354 261.646 196.973 262.232C196.592 262.818 195.997 263.253 195.3 263.452C194.603 263.652 193.853 263.603 193.192 263.316C192.53 263.028 192.003 262.521 191.711 261.891Z" fill="#FFB6B6"/>
<path d="M192.801 233.051L206.581 213.408C207.676 211.853 209.379 210.77 211.317 210.398C213.255 210.027 215.271 210.396 216.921 211.426C217.834 211.997 218.602 212.751 219.172 213.634C219.742 214.517 220.098 215.508 220.217 216.536C220.336 217.564 220.213 218.604 219.858 219.582C219.503 220.56 218.925 221.452 218.163 222.196L202.762 237.233L200.03 255.325L193.845 255.581L192.801 233.051Z" fill="#6C63FF"/>
<path d="M222.008 188.649C224.757 193.765 222.961 199.692 217.86 202.808C212.344 206.178 205.182 205.44 202.865 198.891C200.285 191.599 202.405 188.47 207.013 184.732C212.414 180.352 219.038 183.121 222.008 188.649Z" fill="#2F2E41"/>
<path d="M208.475 200.046C209.874 201.778 211.945 202.914 214.231 203.205C216.517 203.496 218.832 202.919 220.667 201.599C222.502 200.28 223.708 198.326 224.019 196.168C224.329 194.01 223.72 191.823 222.325 190.089L222.249 189.995C220.823 188.31 218.753 187.222 216.486 186.965C214.218 186.708 211.934 187.303 210.127 188.622C208.319 189.941 207.133 191.878 206.825 194.015C206.516 196.151 207.11 198.317 208.477 200.045L208.475 200.046Z" fill="#FFB6B6"/>
<path d="M224.671 187.821C223.257 189.092 221.533 190.014 219.651 190.507C219.274 190.095 218.827 189.745 218.328 189.471C218.567 189.94 218.731 190.44 218.814 190.955C217.974 192.599 214.547 193.781 211.271 194.99L206.933 187.76L212.675 184.687C217.29 181.675 222.722 182.961 224.671 187.821Z" fill="#2F2E41"/>
<path d="M203.66 184.741C202.879 184.4 201.866 184.611 201.132 185.09C200.432 185.592 199.867 186.241 199.481 186.986C198.778 188.191 198.274 189.49 197.984 190.838C197.736 192.004 197.778 193.414 198.887 194.022C199.811 194.53 201.133 194.211 201.983 193.533C202.833 192.855 203.312 191.902 203.726 190.972C204.141 190.042 204.533 189.078 205.27 188.306L204.504 188.643C204.746 187.949 204.859 187.221 204.838 186.491C204.82 186.128 204.702 185.775 204.496 185.468C204.289 185.161 204.001 184.911 203.66 184.741Z" fill="#2F2E41"/>
<path d="M213.592 185.689L207.431 188.985C205.765 189.877 204.542 191.357 204.032 193.099C203.521 194.842 203.765 196.705 204.709 198.278C206.084 200.569 208.314 202.294 210.964 203.115C213.614 203.936 216.493 203.795 219.039 202.718L213.409 198.025L221.046 201.7L222.677 200.827C214.486 199.421 212.906 193.354 213.592 185.689Z" fill="#2F2E41"/>
</g>
<path d="M633.185 129.925C633.44 129.936 633.694 129.876 633.91 129.754C634.126 129.633 634.295 129.455 634.394 129.245C634.493 129.035 634.517 128.803 634.462 128.581C634.408 128.359 634.278 128.157 634.09 128.002C634.058 127.891 634.036 127.811 634.004 127.7C634.015 127.676 634.027 127.652 634.038 127.627C634.296 127.087 634.727 126.626 635.279 126.302C635.831 125.979 636.478 125.807 637.139 125.81C637.799 125.812 638.445 125.987 638.994 126.314C639.543 126.642 639.971 127.105 640.224 127.648C641.235 129.813 642.524 131.982 642.841 134.271C642.98 135.283 642.922 136.308 642.667 137.302C645.043 132.697 646.277 127.691 646.285 122.625C646.285 121.353 646.206 120.083 646.047 118.819C645.915 117.784 645.733 116.755 645.499 115.734C644.226 110.194 641.491 105.001 637.52 100.583C635.598 99.651 634.044 98.2183 633.067 96.4776C632.713 95.8518 632.463 95.1838 632.324 94.4944C632.541 94.5197 632.761 94.5355 632.978 94.5481C633.046 94.5512 633.117 94.5544 633.184 94.5576L633.21 94.5586C633.448 94.5681 633.684 94.5162 633.89 94.4091C634.096 94.3021 634.263 94.1445 634.37 93.9552C634.477 93.766 634.521 93.5532 634.495 93.3425C634.47 93.1318 634.376 92.9322 634.226 92.7677C634.132 92.6653 634.039 92.563 633.945 92.4608C633.803 92.3029 633.657 92.1481 633.515 91.9902C633.498 91.9752 633.483 91.9594 633.469 91.9428C633.305 91.7628 633.142 91.586 632.978 91.406C633.277 90.9945 633.678 90.6497 634.151 90.3987C635.789 89.5461 638.05 90.1366 639.233 91.4534C640.42 92.7702 640.644 94.6176 640.232 96.2628C639.827 97.6628 639.156 98.9912 638.249 100.191C638.338 100.292 638.43 100.39 638.519 100.491C640.143 102.347 641.559 104.34 642.746 106.441C642.457 104.087 642.801 101.706 643.751 99.4933C644.713 97.4314 646.516 95.6948 648.103 93.9123C650.011 91.7712 653.922 92.7056 654.258 95.4198C654.261 95.446 654.264 95.4723 654.267 95.4986C654.031 95.6168 653.8 95.7423 653.575 95.875C653.291 96.0435 653.071 96.2841 652.944 96.5655C652.817 96.8469 652.788 97.1559 652.862 97.4519C652.936 97.748 653.108 98.0173 653.357 98.2246C653.606 98.4319 653.92 98.5676 654.257 98.6138L654.292 98.6185C654.208 99.3738 654.06 100.122 653.848 100.857C653.234 102.91 652.15 104.828 650.663 106.491C649.177 108.153 647.319 109.525 645.208 110.52C645.069 110.584 644.934 110.647 644.796 110.707C645.988 113.709 646.736 116.836 647.02 120.01C647.182 121.882 647.172 123.763 646.992 125.634L647.003 125.568C647.458 123.487 648.707 121.61 650.539 120.253C653.26 118.267 657.105 117.535 660.041 115.939C660.353 115.761 660.716 115.666 661.087 115.665C661.457 115.664 661.821 115.757 662.134 115.934C662.447 116.111 662.696 116.363 662.853 116.662C663.01 116.96 663.067 117.293 663.019 117.619C663.015 117.642 663.011 117.666 663.007 117.689C662.569 117.847 662.143 118.03 661.731 118.235C661.495 118.353 661.264 118.479 661.038 118.612C660.754 118.78 660.535 119.021 660.407 119.302C660.28 119.583 660.252 119.892 660.325 120.188C660.399 120.484 660.572 120.754 660.821 120.961C661.07 121.168 661.384 121.304 661.721 121.35L661.756 121.355C661.781 121.358 661.802 121.361 661.827 121.365C661.079 122.951 660.029 124.411 658.724 125.681C657.111 127.219 655.162 128.447 652.997 129.292C650.831 130.136 648.493 130.578 646.128 130.592H646.125C645.483 133.071 644.552 135.484 643.349 137.792H633.433C633.398 137.694 633.366 137.593 633.334 137.495C634.251 137.546 635.173 137.497 636.077 137.35C635.342 136.547 634.606 135.739 633.87 134.937C633.854 134.922 633.838 134.906 633.824 134.89C633.451 134.479 633.074 134.072 632.701 133.661L632.701 133.661C632.681 132.402 632.844 131.147 633.185 129.925Z" fill="#39803A"/>
<path d="M1054.86 129.925C1055.12 129.936 1055.37 129.876 1055.59 129.754C1055.8 129.633 1055.97 129.455 1056.07 129.245C1056.17 129.035 1056.19 128.803 1056.14 128.581C1056.08 128.359 1055.95 128.157 1055.77 128.002C1055.73 127.891 1055.71 127.811 1055.68 127.7C1055.69 127.676 1055.7 127.652 1055.71 127.627C1055.97 127.087 1056.4 126.626 1056.95 126.302C1057.51 125.979 1058.15 125.807 1058.81 125.81C1059.48 125.812 1060.12 125.987 1060.67 126.314C1061.22 126.642 1061.65 127.105 1061.9 127.648C1062.91 129.813 1064.2 131.982 1064.52 134.271C1064.66 135.283 1064.6 136.308 1064.34 137.302C1066.72 132.697 1067.95 127.691 1067.96 122.625C1067.96 121.353 1067.88 120.083 1067.72 118.819C1067.59 117.784 1067.41 116.755 1067.17 115.734C1065.9 110.194 1063.17 105.001 1059.2 100.583C1057.27 99.651 1055.72 98.2183 1054.74 96.4776C1054.39 95.8518 1054.14 95.1838 1054 94.4944C1054.22 94.5197 1054.44 94.5355 1054.65 94.5481C1054.72 94.5512 1054.79 94.5544 1054.86 94.5576L1054.89 94.5586C1055.12 94.5681 1055.36 94.5162 1055.57 94.4091C1055.77 94.3021 1055.94 94.1445 1056.05 93.9552C1056.15 93.766 1056.2 93.5532 1056.17 93.3425C1056.15 93.1318 1056.05 92.9322 1055.9 92.7677C1055.81 92.6653 1055.71 92.563 1055.62 92.4608C1055.48 92.3029 1055.33 92.1481 1055.19 91.9902C1055.17 91.9752 1055.16 91.9594 1055.14 91.9428C1054.98 91.7628 1054.82 91.586 1054.65 91.406C1054.95 90.9945 1055.35 90.6497 1055.83 90.3987C1057.47 89.5461 1059.73 90.1366 1060.91 91.4534C1062.1 92.7702 1062.32 94.6176 1061.91 96.2628C1061.5 97.6628 1060.83 98.9912 1059.92 100.191C1060.01 100.292 1060.11 100.39 1060.19 100.491C1061.82 102.347 1063.23 104.34 1064.42 106.441C1064.13 104.087 1064.48 101.706 1065.43 99.4933C1066.39 97.4314 1068.19 95.6948 1069.78 93.9123C1071.69 91.7712 1075.6 92.7056 1075.93 95.4198C1075.94 95.446 1075.94 95.4723 1075.94 95.4986C1075.71 95.6168 1075.48 95.7423 1075.25 95.875C1074.97 96.0435 1074.75 96.2841 1074.62 96.5655C1074.49 96.8469 1074.46 97.1559 1074.54 97.4519C1074.61 97.748 1074.78 98.0173 1075.03 98.2246C1075.28 98.4319 1075.6 98.5676 1075.93 98.6138L1075.97 98.6185C1075.88 99.3738 1075.74 100.122 1075.52 100.857C1074.91 102.91 1073.83 104.828 1072.34 106.491C1070.85 108.153 1069 109.525 1066.88 110.52C1066.74 110.584 1066.61 110.647 1066.47 110.707C1067.66 113.709 1068.41 116.836 1068.7 120.01C1068.86 121.882 1068.85 123.763 1068.67 125.634L1068.68 125.568C1069.13 123.487 1070.38 121.61 1072.21 120.253C1074.94 118.267 1078.78 117.535 1081.72 115.939C1082.03 115.761 1082.39 115.666 1082.76 115.665C1083.13 115.664 1083.5 115.757 1083.81 115.934C1084.12 116.111 1084.37 116.363 1084.53 116.662C1084.69 116.96 1084.74 117.293 1084.69 117.619C1084.69 117.642 1084.69 117.666 1084.68 117.689C1084.24 117.847 1083.82 118.03 1083.41 118.235C1083.17 118.353 1082.94 118.479 1082.71 118.612C1082.43 118.78 1082.21 119.021 1082.08 119.302C1081.96 119.583 1081.93 119.892 1082 120.188C1082.08 120.484 1082.25 120.754 1082.5 120.961C1082.75 121.168 1083.06 121.304 1083.4 121.35L1083.43 121.355C1083.46 121.358 1083.48 121.361 1083.5 121.365C1082.75 122.951 1081.71 124.411 1080.4 125.681C1078.79 127.219 1076.84 128.447 1074.67 129.292C1072.51 130.136 1070.17 130.578 1067.8 130.592H1067.8C1067.16 133.071 1066.23 135.484 1065.02 137.792H1055.11C1055.07 137.694 1055.04 137.593 1055.01 137.495C1055.93 137.546 1056.85 137.497 1057.75 137.35C1057.02 136.547 1056.28 135.739 1055.55 134.937C1055.53 134.922 1055.51 134.906 1055.5 134.89C1055.13 134.479 1054.75 134.072 1054.38 133.661L1054.38 133.661C1054.36 132.402 1054.52 131.147 1054.86 129.925Z" fill="#39803A"/>
<path d="M427.016 59.9253C427.271 59.9358 427.525 59.8761 427.741 59.7544C427.957 59.6327 428.126 59.4549 428.225 59.245C428.324 59.0351 428.348 58.8033 428.293 58.581C428.239 58.3587 428.109 58.1567 427.921 58.0023C427.889 57.8911 427.867 57.8112 427.835 57.7C427.846 57.6758 427.858 57.6516 427.869 57.6275C428.127 57.0867 428.559 56.6256 429.11 56.3022C429.662 55.9788 430.309 55.8074 430.97 55.8096C431.631 55.8118 432.276 55.9874 432.825 56.3145C433.374 56.6415 433.802 57.1054 434.055 57.6479C435.067 59.8129 436.355 61.9816 436.672 64.2707C436.811 65.2826 436.753 66.3083 436.498 67.3023C438.874 62.6967 440.108 57.691 440.116 52.6246C440.116 51.3532 440.037 50.0828 439.878 48.8193C439.746 47.7836 439.564 46.7551 439.33 45.7341C438.057 40.1941 435.322 35.0015 431.351 30.5828C429.429 29.651 427.875 28.2183 426.898 26.4776C426.544 25.8518 426.294 25.1838 426.155 24.4944C426.372 24.5197 426.592 24.5355 426.809 24.5481C426.877 24.5512 426.948 24.5544 427.015 24.5576L427.041 24.5586C427.279 24.5681 427.515 24.5162 427.721 24.4091C427.927 24.3021 428.094 24.1445 428.201 23.9552C428.308 23.766 428.352 23.5532 428.326 23.3425C428.301 23.1318 428.207 22.9322 428.057 22.7677C427.963 22.6653 427.87 22.563 427.776 22.4608C427.634 22.3029 427.488 22.1481 427.346 21.9902C427.33 21.9752 427.314 21.9594 427.3 21.9428C427.136 21.7628 426.973 21.586 426.809 21.406C427.108 20.9945 427.509 20.6497 427.982 20.3987C429.621 19.5461 431.881 20.1366 433.064 21.4534C434.252 22.7702 434.475 24.6176 434.063 26.2628C433.658 27.6628 432.987 28.9912 432.08 30.1912C432.169 30.2922 432.261 30.3901 432.35 30.4912C433.974 32.3469 435.39 34.3395 436.577 36.4406C436.288 34.0868 436.633 31.7057 437.582 29.4933C438.544 27.4314 440.347 25.6948 441.935 23.9123C443.842 21.7712 447.753 22.7056 448.089 25.4198C448.092 25.446 448.095 25.4723 448.098 25.4986C447.862 25.6168 447.632 25.7423 447.406 25.875C447.122 26.0435 446.902 26.2841 446.775 26.5655C446.648 26.8469 446.619 27.1559 446.693 27.4519C446.767 27.748 446.939 28.0173 447.189 28.2246C447.438 28.4319 447.751 28.5676 448.089 28.6138L448.123 28.6185C448.039 29.3738 447.891 30.1222 447.679 30.8575C447.065 32.91 445.981 34.8278 444.494 36.4906C443.008 38.1534 441.15 39.5254 439.039 40.5205C438.9 40.5836 438.765 40.6468 438.627 40.7068C439.819 43.709 440.567 46.8363 440.851 50.0098C441.013 51.8822 441.003 53.763 440.823 55.634L440.834 55.5677C441.289 53.4872 442.538 51.6099 444.37 50.253C447.091 48.2667 450.936 47.5353 453.872 45.9387C454.184 45.7607 454.547 45.6657 454.918 45.6649C455.289 45.6641 455.652 45.7575 455.965 45.9341C456.278 46.1108 456.527 46.3633 456.684 46.6618C456.841 46.9604 456.898 47.2925 456.85 47.6191C456.846 47.6424 456.842 47.6656 456.838 47.6888C456.4 47.8472 455.974 48.0296 455.562 48.2351C455.326 48.3533 455.095 48.4788 454.869 48.6115C454.585 48.78 454.366 49.0207 454.238 49.302C454.111 49.5834 454.083 49.8924 454.156 50.1884C454.23 50.4845 454.403 50.7538 454.652 50.9612C454.901 51.1685 455.215 51.3041 455.552 51.3503L455.587 51.355C455.612 51.3582 455.633 51.3614 455.658 51.3646C454.91 52.951 453.86 54.4112 452.555 55.6813C450.942 57.2187 448.994 58.4473 446.828 59.2917C444.662 60.1361 442.325 60.5785 439.959 60.5918H439.956C439.314 63.0707 438.384 65.4836 437.18 67.7917H427.264C427.229 67.6938 427.197 67.5927 427.165 67.4949C428.082 67.5461 429.004 67.4973 429.908 67.3496C429.173 66.5475 428.437 65.7391 427.701 64.937C427.685 64.922 427.669 64.9062 427.655 64.8896C427.282 64.4791 426.905 64.0717 426.532 63.6612L426.532 63.6607C426.512 62.4024 426.675 61.1468 427.016 59.9253Z" fill="#39803A"/>
<path d="M30.6172 172.925C30.873 172.936 31.1262 172.876 31.3425 172.754C31.5588 172.633 31.7279 172.455 31.8266 172.245C31.9254 172.035 31.9492 171.803 31.8947 171.581C31.8403 171.359 31.7102 171.157 31.5222 171.002C31.4907 170.891 31.4681 170.811 31.4366 170.7C31.4479 170.676 31.4592 170.652 31.4706 170.627C31.7283 170.087 32.1601 169.626 32.7117 169.302C33.2634 168.979 33.9103 168.807 34.5712 168.81C35.2321 168.812 35.8775 168.987 36.4264 169.314C36.9753 169.642 37.4032 170.105 37.6564 170.648C38.6681 172.813 39.9562 174.982 40.2734 177.271C40.413 178.283 40.3541 179.308 40.0992 180.302C42.4754 175.697 43.7093 170.691 43.7173 165.625C43.7178 164.353 43.6383 163.083 43.4792 161.819C43.3476 160.784 43.1652 159.755 42.9318 158.734C41.6582 153.194 38.9237 148.001 34.9529 143.583C33.031 142.651 31.4768 141.218 30.4996 139.478C30.1456 138.852 29.8954 138.184 29.7568 137.494C29.9736 137.52 30.194 137.535 30.4108 137.548C30.4783 137.551 30.5494 137.554 30.6169 137.558L30.6424 137.559C30.8806 137.568 31.1169 137.516 31.3228 137.409C31.5286 137.302 31.6953 137.144 31.8026 136.955C31.91 136.766 31.9535 136.553 31.9279 136.343C31.9024 136.132 31.8088 135.932 31.6585 135.768C31.5649 135.665 31.4712 135.563 31.3775 135.461C31.2353 135.303 31.0896 135.148 30.9475 134.99C30.9311 134.975 30.9156 134.959 30.9013 134.943C30.7378 134.763 30.5743 134.586 30.4108 134.406C30.7092 133.994 31.1106 133.65 31.5836 133.399C33.2221 132.546 35.4825 133.137 36.666 134.453C37.8531 135.77 38.077 137.618 37.6647 139.263C37.2593 140.663 36.5886 141.991 35.6815 143.191C35.7704 143.292 35.8628 143.39 35.9516 143.491C37.5758 145.347 38.9915 147.34 40.1782 149.441C39.8896 147.087 40.2341 144.706 41.1833 142.493C42.1452 140.431 43.9483 138.695 45.5361 136.912C47.4433 134.771 51.3543 135.706 51.6903 138.42C51.6935 138.446 51.6967 138.472 51.6998 138.499C51.464 138.617 51.2331 138.742 51.0072 138.875C50.7234 139.043 50.5036 139.284 50.3764 139.566C50.2492 139.847 50.2207 140.156 50.2945 140.452C50.3683 140.748 50.541 141.017 50.7901 141.225C51.0391 141.432 51.3528 141.568 51.6901 141.614L51.7247 141.619C51.6406 142.374 51.4921 143.122 51.2804 143.857C50.6669 145.91 49.5828 147.828 48.096 149.491C46.6092 151.153 44.7519 152.525 42.6404 153.52C42.5018 153.584 42.3667 153.647 42.2281 153.707C43.4204 156.709 44.1683 159.836 44.453 163.01C44.6141 164.882 44.6046 166.763 44.4245 168.634L44.4352 168.568C44.8902 166.487 46.1393 164.61 47.9716 163.253C50.693 161.267 54.5378 160.535 57.4737 158.939C57.7857 158.761 58.1485 158.666 58.5193 158.665C58.8901 158.664 59.2534 158.757 59.5664 158.934C59.8794 159.111 60.129 159.363 60.2858 159.662C60.4426 159.96 60.5 160.293 60.4513 160.619C60.4474 160.642 60.4434 160.666 60.4393 160.689C60.0016 160.847 59.5755 161.03 59.1634 161.235C58.9275 161.353 58.6967 161.479 58.4708 161.612C58.187 161.78 57.9672 162.021 57.84 162.302C57.7128 162.583 57.6842 162.892 57.758 163.188C57.8319 163.484 58.0046 163.754 58.2537 163.961C58.5027 164.168 58.8164 164.304 59.1537 164.35L59.1882 164.355C59.2131 164.358 59.2345 164.361 59.2593 164.365C58.5115 165.951 57.4619 167.411 56.1566 168.681C54.5441 170.219 52.5951 171.447 50.4292 172.292C48.2633 173.136 45.9261 173.578 43.5609 173.592H43.5573C42.9153 176.071 41.9851 178.484 40.7816 180.792H30.8657C30.8301 180.694 30.7982 180.593 30.7662 180.495C31.684 180.546 32.6055 180.497 33.51 180.35C32.7743 179.547 32.0386 178.739 31.3029 177.937C31.2865 177.922 31.271 177.906 31.2567 177.89C30.8835 177.479 30.5067 177.072 30.1336 176.661L30.1334 176.661C30.1135 175.402 30.2763 174.147 30.6172 172.925Z" fill="#39803A"/>
<defs>
<clipPath id="clip0_162_28">
<rect width="331" height="231" fill="white" transform="translate(127 75)"/>
</clipPath>
</defs>
</svg>
