<svg width="41" height="41" viewBox="0 0 41 41" fill="none" xmlns="http://www.w3.org/2000/svg">
<path d="M3.42385 37.5833L5.73352 29.0963C4.21163 26.4874 3.41205 23.5203 3.41702 20.5C3.41702 11.0648 11.0652 3.41663 20.5004 3.41663C29.9355 3.41663 37.5837 11.0648 37.5837 20.5C37.5837 29.9351 29.9355 37.5833 20.5004 37.5833C17.4813 37.5882 14.5155 36.7892 11.9074 35.2685L3.42385 37.5833ZM14.335 12.4845C14.1144 12.4982 13.8988 12.5563 13.7012 12.6553C13.5159 12.7602 13.3467 12.8914 13.1989 13.0448C12.9939 13.2378 12.8778 13.4053 12.7531 13.5675C12.1217 14.3892 11.7821 15.3979 11.7878 16.4341C11.7913 17.2712 12.0099 18.0861 12.3516 18.848C13.0503 20.3889 14.2 22.0204 15.7187 23.5323C16.0843 23.8961 16.4414 24.2617 16.8257 24.6017C18.7107 26.2613 20.9569 27.4581 23.3857 28.0969L24.3578 28.2455C24.6738 28.2626 24.9899 28.2387 25.3076 28.2233C25.8051 28.1977 26.2909 28.0629 26.7306 27.8287C27.0142 27.6784 27.1475 27.6032 27.3849 27.4529C27.3849 27.4529 27.4584 27.405 27.5985 27.2991C27.8291 27.1283 27.9709 27.007 28.1622 26.8071C28.304 26.6602 28.427 26.4877 28.521 26.2912C28.6542 26.0128 28.7875 25.4815 28.8421 25.039C28.8831 24.7008 28.8712 24.5163 28.8661 24.4018C28.8592 24.219 28.7072 24.0294 28.5415 23.9491L27.5472 23.5032C27.5472 23.5032 26.061 22.8558 25.1539 22.4423C25.0582 22.4006 24.9557 22.3769 24.8515 22.3723C24.7346 22.3603 24.6165 22.3734 24.5051 22.4109C24.3937 22.4483 24.2917 22.5091 24.2057 22.5893V22.5858C24.1972 22.5858 24.0827 22.6832 22.8476 24.1797C22.7767 24.275 22.6791 24.347 22.5671 24.3865C22.4551 24.4261 22.3339 24.4314 22.2189 24.4018C22.1076 24.372 21.9986 24.3344 21.8926 24.289C21.6808 24.2002 21.6074 24.166 21.4621 24.1028L21.4536 24.0994C20.4763 23.6727 19.5714 23.0964 18.7715 22.3911C18.5563 22.2032 18.3564 21.9982 18.1514 21.8C17.4793 21.1564 16.8936 20.4282 16.4089 19.6338L16.3081 19.4715C16.2357 19.3625 16.1772 19.2449 16.1339 19.1213C16.0689 18.8702 16.2381 18.6686 16.2381 18.6686C16.2381 18.6686 16.6532 18.2142 16.8462 17.9682C17.007 17.7638 17.1569 17.5511 17.2955 17.331C17.4971 17.0064 17.5603 16.6733 17.4544 16.4153C16.9761 15.2468 16.4806 14.0835 15.9716 12.9286C15.8708 12.6997 15.5718 12.5357 15.3002 12.5033C15.2079 12.493 15.1157 12.4828 15.0234 12.4759C14.794 12.4645 14.5641 12.4685 14.335 12.4845Z" fill="white"/>
</svg>
